<?xml version="1.0" encoding="utf-8" standalone="no"?>
<!DOCTYPE svg PUBLIC "-//W3C//DTD SVG 1.1//EN"
  "http://www.w3.org/Graphics/SVG/1.1/DTD/svg11.dtd">
<svg height="432pt" version="1.1" viewBox="0 0 576 432" width="576pt" xmlns="http://www.w3.org/2000/svg" xmlns:xlink="http://www.w3.org/1999/xlink">
 <metadata>
  <rdf:RDF xmlns:cc="http://creativecommons.org/ns#" xmlns:dc="http://purl.org/dc/elements/1.1/" xmlns:rdf="http://www.w3.org/1999/02/22-rdf-syntax-ns#">
   <cc:Work>
    <dc:type rdf:resource="http://purl.org/dc/dcmitype/StillImage"/>
    <dc:date>2021-11-15T01:39:09.795978</dc:date>
    <dc:format>image/svg+xml</dc:format>
    <dc:creator>
     <cc:Agent>
      <dc:title>Matplotlib v3.4.3, https://matplotlib.org/</dc:title>
     </cc:Agent>
    </dc:creator>
   </cc:Work>
  </rdf:RDF>
 </metadata>
 <defs>
  <style type="text/css">*{stroke-linecap:butt;stroke-linejoin:round;}</style>
 </defs>
 <g id="figure_1">
  <g id="patch_1">
   <path d="M 0 432 
L 576 432 
L 576 0 
L 0 0 
z
" style="fill:#ffffff;"/>
  </g>
  <g id="axes_1">
   <g id="patch_2">
    <path d="M 61.13 389.0725 
L 565.2 389.0725 
L 565.2 28.32 
L 61.13 28.32 
z
" style="fill:#e5e5e5;"/>
   </g>
   <g id="matplotlib.axis_1">
    <g id="xtick_1">
     <g id="line2d_1">
      <path clip-path="url(#p9c4a18758a)" d="M 84.042273 389.0725 
L 84.042273 28.32 
" style="fill:none;stroke:#ffffff;stroke-linecap:square;stroke-width:0.8;"/>
     </g>
     <g id="line2d_2">
      <defs>
       <path d="M 0 0 
L 0 3.5 
" id="m8a16460ba4" style="stroke:#555555;stroke-width:0.8;"/>
      </defs>
      <g>
       <use style="fill:#555555;stroke:#555555;stroke-width:0.8;" x="84.042273" xlink:href="#m8a16460ba4" y="389.0725"/>
      </g>
     </g>
     <g id="text_1">
      <!-- 0 -->
      <g style="fill:#555555;" transform="translate(80.893054 403.563125)scale(0.1 -0.1)">
       <defs>
        <path d="M 2038 4725 
Q 2881 4725 3334 3944 
Q 3694 3325 3694 2344 
Q 3694 1372 3334 741 
Q 2888 -31 2016 -31 
Q 1147 -31 700 741 
Q 341 1372 341 2350 
Q 341 3713 1000 4334 
Q 1419 4725 2038 4725 
z
M 2016 4266 
Q 1516 4266 1228 3759 
Q 934 3247 934 2344 
Q 934 1456 1222 947 
Q 1513 447 2016 447 
Q 2619 447 2909 1153 
Q 3100 1622 3100 2375 
Q 3100 3256 2806 3759 
Q 2509 4266 2016 4266 
z
" id="IPAexGothic-30" transform="scale(0.015625)"/>
       </defs>
       <use xlink:href="#IPAexGothic-30"/>
      </g>
     </g>
    </g>
    <g id="xtick_2">
     <g id="line2d_3">
      <path clip-path="url(#p9c4a18758a)" d="M 175.691364 389.0725 
L 175.691364 28.32 
" style="fill:none;stroke:#ffffff;stroke-linecap:square;stroke-width:0.8;"/>
     </g>
     <g id="line2d_4">
      <g>
       <use style="fill:#555555;stroke:#555555;stroke-width:0.8;" x="175.691364" xlink:href="#m8a16460ba4" y="389.0725"/>
      </g>
     </g>
     <g id="text_2">
      <!-- 2,000 -->
      <g style="fill:#555555;" transform="translate(161.773395 403.563125)scale(0.1 -0.1)">
       <defs>
        <path d="M 3659 63 
L 447 63 
L 447 594 
Q 825 1475 1894 2203 
L 2072 2322 
Q 2619 2697 2791 2906 
Q 2988 3153 2988 3444 
Q 2988 3772 2756 4003 
Q 2500 4259 2084 4259 
Q 1250 4259 991 3328 
L 497 3506 
Q 853 4725 2116 4725 
Q 2806 4725 3216 4316 
Q 3575 3947 3575 3425 
Q 3575 3038 3344 2722 
Q 3131 2416 2366 1938 
L 2231 1856 
Q 1256 1253 978 569 
L 3659 569 
L 3659 63 
z
" id="IPAexGothic-32" transform="scale(0.015625)"/>
        <path d="M 1150 728 
Q 1028 -159 563 -1006 
L 153 -897 
Q 494 -100 569 728 
L 1150 728 
z
" id="IPAexGothic-2c" transform="scale(0.015625)"/>
       </defs>
       <use xlink:href="#IPAexGothic-32"/>
       <use x="62.988281" xlink:href="#IPAexGothic-2c"/>
       <use x="89.404297" xlink:href="#IPAexGothic-30"/>
       <use x="152.392578" xlink:href="#IPAexGothic-30"/>
       <use x="215.380859" xlink:href="#IPAexGothic-30"/>
      </g>
     </g>
    </g>
    <g id="xtick_3">
     <g id="line2d_5">
      <path clip-path="url(#p9c4a18758a)" d="M 267.340455 389.0725 
L 267.340455 28.32 
" style="fill:none;stroke:#ffffff;stroke-linecap:square;stroke-width:0.8;"/>
     </g>
     <g id="line2d_6">
      <g>
       <use style="fill:#555555;stroke:#555555;stroke-width:0.8;" x="267.340455" xlink:href="#m8a16460ba4" y="389.0725"/>
      </g>
     </g>
     <g id="text_3">
      <!-- 4,000 -->
      <g style="fill:#555555;" transform="translate(253.422486 403.563125)scale(0.1 -0.1)">
       <defs>
        <path d="M 3813 1159 
L 3059 1159 
L 3059 63 
L 2547 63 
L 2547 1159 
L 197 1159 
L 197 1672 
L 2456 4678 
L 3059 4678 
L 3059 1634 
L 3813 1634 
L 3813 1159 
z
M 2578 4109 
L 2559 4109 
Q 2278 3656 2003 3284 
L 759 1634 
L 2547 1634 
L 2547 3144 
Q 2547 3481 2578 4109 
z
" id="IPAexGothic-34" transform="scale(0.015625)"/>
       </defs>
       <use xlink:href="#IPAexGothic-34"/>
       <use x="62.988281" xlink:href="#IPAexGothic-2c"/>
       <use x="89.404297" xlink:href="#IPAexGothic-30"/>
       <use x="152.392578" xlink:href="#IPAexGothic-30"/>
       <use x="215.380859" xlink:href="#IPAexGothic-30"/>
      </g>
     </g>
    </g>
    <g id="xtick_4">
     <g id="line2d_7">
      <path clip-path="url(#p9c4a18758a)" d="M 358.989545 389.0725 
L 358.989545 28.32 
" style="fill:none;stroke:#ffffff;stroke-linecap:square;stroke-width:0.8;"/>
     </g>
     <g id="line2d_8">
      <g>
       <use style="fill:#555555;stroke:#555555;stroke-width:0.8;" x="358.989545" xlink:href="#m8a16460ba4" y="389.0725"/>
      </g>
     </g>
     <g id="text_4">
      <!-- 6,000 -->
      <g style="fill:#555555;" transform="translate(345.071577 403.563125)scale(0.1 -0.1)">
       <defs>
        <path d="M 1056 2328 
Q 1509 2981 2234 2981 
Q 2906 2981 3316 2513 
Q 3675 2106 3675 1522 
Q 3675 884 3272 434 
Q 2853 -31 2178 -31 
Q 1375 -31 922 581 
Q 481 1178 481 2228 
Q 481 3425 1013 4109 
Q 1494 4725 2272 4725 
Q 3191 4725 3609 4025 
L 3150 3775 
Q 2894 4266 2300 4266 
Q 1119 4266 1031 2328 
L 1056 2328 
z
M 2141 2547 
Q 1684 2547 1384 2206 
Q 1116 1900 1116 1541 
Q 1116 1156 1353 844 
Q 1672 428 2159 428 
Q 2669 428 2941 844 
Q 3125 1128 3125 1503 
Q 3125 1944 2881 2228 
Q 2600 2547 2141 2547 
z
" id="IPAexGothic-36" transform="scale(0.015625)"/>
       </defs>
       <use xlink:href="#IPAexGothic-36"/>
       <use x="62.988281" xlink:href="#IPAexGothic-2c"/>
       <use x="89.404297" xlink:href="#IPAexGothic-30"/>
       <use x="152.392578" xlink:href="#IPAexGothic-30"/>
       <use x="215.380859" xlink:href="#IPAexGothic-30"/>
      </g>
     </g>
    </g>
    <g id="xtick_5">
     <g id="line2d_9">
      <path clip-path="url(#p9c4a18758a)" d="M 450.638636 389.0725 
L 450.638636 28.32 
" style="fill:none;stroke:#ffffff;stroke-linecap:square;stroke-width:0.8;"/>
     </g>
     <g id="line2d_10">
      <g>
       <use style="fill:#555555;stroke:#555555;stroke-width:0.8;" x="450.638636" xlink:href="#m8a16460ba4" y="389.0725"/>
      </g>
     </g>
     <g id="text_5">
      <!-- 8,000 -->
      <g style="fill:#555555;" transform="translate(436.720668 403.563125)scale(0.1 -0.1)">
       <defs>
        <path d="M 2541 2425 
Q 3700 2031 3700 1197 
Q 3700 541 3100 197 
Q 2663 -56 2016 -56 
Q 1366 -56 928 197 
Q 347 531 347 1178 
Q 347 1988 1409 2381 
L 1409 2400 
Q 481 2734 481 3509 
Q 481 4100 981 4456 
Q 1406 4756 2019 4756 
Q 2703 4756 3131 4403 
Q 3553 4069 3553 3566 
Q 3553 2706 2541 2444 
L 2541 2425 
z
M 2022 2625 
Q 2997 2856 2997 3528 
Q 2997 3916 2675 4150 
Q 2413 4347 2016 4347 
Q 1606 4347 1331 4128 
Q 1050 3897 1050 3522 
Q 1050 3150 1350 2925 
Q 1494 2809 1722 2722 
Q 1984 2616 2022 2625 
z
M 1978 2209 
Q 922 1931 922 1216 
Q 922 775 1313 556 
Q 1606 391 2009 391 
Q 2575 391 2881 697 
Q 3106 922 3106 1250 
Q 3106 1594 2794 1850 
Q 2609 1994 2350 2100 
Q 2047 2222 1978 2209 
z
" id="IPAexGothic-38" transform="scale(0.015625)"/>
       </defs>
       <use xlink:href="#IPAexGothic-38"/>
       <use x="62.988281" xlink:href="#IPAexGothic-2c"/>
       <use x="89.404297" xlink:href="#IPAexGothic-30"/>
       <use x="152.392578" xlink:href="#IPAexGothic-30"/>
       <use x="215.380859" xlink:href="#IPAexGothic-30"/>
      </g>
     </g>
    </g>
    <g id="xtick_6">
     <g id="line2d_11">
      <path clip-path="url(#p9c4a18758a)" d="M 542.287727 389.0725 
L 542.287727 28.32 
" style="fill:none;stroke:#ffffff;stroke-linecap:square;stroke-width:0.8;"/>
     </g>
     <g id="line2d_12">
      <g>
       <use style="fill:#555555;stroke:#555555;stroke-width:0.8;" x="542.287727" xlink:href="#m8a16460ba4" y="389.0725"/>
      </g>
     </g>
     <g id="text_6">
      <!-- 10,000 -->
      <g style="fill:#555555;" transform="translate(525.22054 403.563125)scale(0.1 -0.1)">
       <defs>
        <path d="M 2463 63 
L 1900 63 
L 1900 4103 
Q 1372 3922 788 3797 
L 684 4231 
Q 1519 4441 2106 4731 
L 2463 4731 
L 2463 63 
z
" id="IPAexGothic-31" transform="scale(0.015625)"/>
       </defs>
       <use xlink:href="#IPAexGothic-31"/>
       <use x="62.988281" xlink:href="#IPAexGothic-30"/>
       <use x="125.976562" xlink:href="#IPAexGothic-2c"/>
       <use x="152.392578" xlink:href="#IPAexGothic-30"/>
       <use x="215.380859" xlink:href="#IPAexGothic-30"/>
       <use x="278.369141" xlink:href="#IPAexGothic-30"/>
      </g>
     </g>
    </g>
    <g id="text_7">
     <!-- Amount of yell (Yen) -->
     <g style="fill:#555555;" transform="translate(256.488437 418.643125)scale(0.12 -0.12)">
      <defs>
       <path d="M 4056 63 
L 3444 63 
L 2938 1409 
L 1100 1409 
L 603 63 
L -6 63 
L 1806 4666 
L 2259 4666 
L 4056 63 
z
M 2778 1863 
L 2316 3078 
Q 2125 3588 2028 4000 
L 2009 4000 
Q 1897 3563 1716 3078 
L 1263 1863 
L 2778 1863 
z
" id="IPAexGothic-41" transform="scale(0.015625)"/>
       <path d="M 5022 63 
L 4472 63 
L 4472 2059 
Q 4472 2869 3847 2869 
Q 3550 2869 3303 2594 
Q 3128 2397 3059 2103 
L 3059 63 
L 2509 63 
L 2509 2066 
Q 2509 2869 1919 2869 
Q 1606 2869 1369 2594 
Q 1113 2306 1113 2041 
L 1113 63 
L 563 63 
L 563 3250 
L 1075 3250 
L 1075 2700 
Q 1391 3316 2028 3316 
Q 2725 3316 2956 2647 
Q 3303 3316 3953 3316 
Q 4478 3316 4772 2944 
Q 5022 2638 5022 2072 
L 5022 63 
z
" id="IPAexGothic-6d" transform="scale(0.015625)"/>
       <path d="M 1919 3341 
Q 2594 3341 3056 2888 
Q 3531 2413 3531 1638 
Q 3531 888 3066 422 
Q 2609 -31 1919 -31 
Q 1228 -31 781 416 
Q 313 881 313 1656 
Q 313 2413 788 2888 
Q 1241 3341 1919 3341 
z
M 1919 2919 
Q 1519 2919 1241 2631 
Q 888 2278 888 1650 
Q 888 1031 1234 684 
Q 1516 403 1919 403 
Q 2331 403 2609 691 
Q 2956 1038 2956 1672 
Q 2956 2269 2603 2631 
Q 2316 2919 1919 2919 
z
" id="IPAexGothic-6f" transform="scale(0.015625)"/>
       <path d="M 3284 63 
L 2772 63 
L 2772 644 
Q 2300 0 1625 0 
Q 1072 0 763 375 
Q 519 678 519 1241 
L 519 3250 
L 1069 3250 
L 1069 1259 
Q 1069 466 1734 466 
Q 2406 466 2734 1291 
L 2734 3250 
L 3284 3250 
L 3284 63 
z
" id="IPAexGothic-75" transform="scale(0.015625)"/>
       <path d="M 3328 63 
L 2778 63 
L 2778 2041 
Q 2778 2853 2106 2853 
Q 1428 2853 1113 2041 
L 1113 63 
L 563 63 
L 563 3250 
L 1075 3250 
L 1075 2675 
Q 1525 3316 2222 3316 
Q 3328 3316 3328 2072 
L 3328 63 
z
" id="IPAexGothic-6e" transform="scale(0.015625)"/>
       <path d="M 2125 241 
Q 1769 -6 1397 -6 
Q 653 -6 653 831 
L 653 2859 
L 219 2859 
L 219 3250 
L 653 3250 
L 653 3966 
L 1178 4228 
L 1178 3250 
L 2063 3250 
L 2063 2859 
L 1178 2859 
L 1178 906 
Q 1178 416 1513 416 
Q 1738 416 1941 588 
L 2125 241 
z
" id="IPAexGothic-74" transform="scale(0.015625)"/>
       <path id="IPAexGothic-20" transform="scale(0.015625)"/>
       <path d="M 2456 4622 
L 2228 4244 
Q 1991 4422 1741 4422 
Q 1184 4422 1184 3672 
L 1184 3250 
L 2053 3250 
L 2053 2859 
L 1184 2859 
L 1184 63 
L 641 63 
L 641 2859 
L 122 2859 
L 122 3250 
L 641 3250 
L 641 3659 
Q 641 4188 891 4484 
Q 1200 4844 1709 4844 
Q 2116 4844 2456 4622 
z
" id="IPAexGothic-66" transform="scale(0.015625)"/>
       <path d="M 3122 3250 
L 1575 -488 
Q 1278 -1203 550 -1203 
L 478 -1203 
L 344 -703 
L 447 -703 
Q 969 -703 1150 -238 
L 1356 275 
L 38 3250 
L 659 3250 
L 1363 1459 
Q 1528 1025 1606 781 
L 1625 781 
Q 1750 1169 1863 1459 
L 2528 3250 
L 3122 3250 
z
" id="IPAexGothic-79" transform="scale(0.015625)"/>
       <path d="M 863 1594 
Q 891 1041 1209 722 
Q 1534 397 1997 397 
Q 2606 397 2963 966 
L 3322 728 
Q 2869 -31 1931 -31 
Q 1222 -31 766 422 
Q 306 884 306 1641 
Q 306 2444 788 2925 
Q 1216 3353 1856 3353 
Q 2459 3353 2866 2956 
Q 3322 2494 3322 1722 
L 3322 1594 
L 863 1594 
z
M 2756 1997 
Q 2709 2431 2450 2681 
Q 2194 2938 1844 2938 
Q 1438 2938 1150 2591 
Q 953 2356 894 1997 
L 2756 1997 
z
" id="IPAexGothic-65" transform="scale(0.015625)"/>
       <path d="M 1131 63 
L 581 63 
L 581 4794 
L 1131 4794 
L 1131 63 
z
" id="IPAexGothic-6c" transform="scale(0.015625)"/>
       <path d="M 1928 -1016 
L 1653 -1166 
Q 488 69 488 1875 
Q 488 3678 1653 4909 
L 1928 4763 
Q 1006 3522 1006 1881 
Q 1006 203 1928 -1016 
z
" id="IPAexGothic-28" transform="scale(0.015625)"/>
       <path d="M 3963 4634 
L 2241 2188 
L 2241 63 
L 1678 63 
L 1678 2188 
L -13 4634 
L 697 4634 
L 1978 2638 
L 3256 4634 
L 3963 4634 
z
" id="IPAexGothic-59" transform="scale(0.015625)"/>
       <path d="M 466 4909 
Q 1638 3672 1638 1875 
Q 1638 75 466 -1166 
L 191 -1016 
Q 1119 216 1119 1881 
Q 1119 3509 191 4763 
L 466 4909 
z
" id="IPAexGothic-29" transform="scale(0.015625)"/>
      </defs>
      <use xlink:href="#IPAexGothic-41"/>
      <use x="63.720703" xlink:href="#IPAexGothic-6d"/>
      <use x="150.830078" xlink:href="#IPAexGothic-6f"/>
      <use x="211.230469" xlink:href="#IPAexGothic-75"/>
      <use x="271.630859" xlink:href="#IPAexGothic-6e"/>
      <use x="332.03125" xlink:href="#IPAexGothic-74"/>
      <use x="366.650391" xlink:href="#IPAexGothic-20"/>
      <use x="393.652344" xlink:href="#IPAexGothic-6f"/>
      <use x="454.052734" xlink:href="#IPAexGothic-66"/>
      <use x="484.667969" xlink:href="#IPAexGothic-20"/>
      <use x="511.669922" xlink:href="#IPAexGothic-79"/>
      <use x="560.888672" xlink:href="#IPAexGothic-65"/>
      <use x="617.773438" xlink:href="#IPAexGothic-6c"/>
      <use x="644.775391" xlink:href="#IPAexGothic-6c"/>
      <use x="671.777344" xlink:href="#IPAexGothic-20"/>
      <use x="698.779297" xlink:href="#IPAexGothic-28"/>
      <use x="732.080078" xlink:href="#IPAexGothic-59"/>
      <use x="793.994141" xlink:href="#IPAexGothic-65"/>
      <use x="850.878906" xlink:href="#IPAexGothic-6e"/>
      <use x="911.279297" xlink:href="#IPAexGothic-29"/>
     </g>
    </g>
   </g>
   <g id="matplotlib.axis_2">
    <g id="ytick_1">
     <g id="line2d_13">
      <path clip-path="url(#p9c4a18758a)" d="M 61.13 389.0725 
L 565.2 389.0725 
" style="fill:none;stroke:#ffffff;stroke-linecap:square;stroke-width:0.8;"/>
     </g>
     <g id="line2d_14">
      <defs>
       <path d="M 0 0 
L -3.5 0 
" id="m26de5fbced" style="stroke:#555555;stroke-width:0.8;"/>
      </defs>
      <g>
       <use style="fill:#555555;stroke:#555555;stroke-width:0.8;" x="61.13" xlink:href="#m26de5fbced" y="389.0725"/>
      </g>
     </g>
     <g id="text_8">
      <!-- 0 -->
      <g style="fill:#555555;" transform="translate(47.831563 392.817813)scale(0.1 -0.1)">
       <use xlink:href="#IPAexGothic-30"/>
      </g>
     </g>
    </g>
    <g id="ytick_2">
     <g id="line2d_15">
      <path clip-path="url(#p9c4a18758a)" d="M 61.13 341.4861 
L 565.2 341.4861 
" style="fill:none;stroke:#ffffff;stroke-linecap:square;stroke-width:0.8;"/>
     </g>
     <g id="line2d_16">
      <g>
       <use style="fill:#555555;stroke:#555555;stroke-width:0.8;" x="61.13" xlink:href="#m26de5fbced" y="341.4861"/>
      </g>
     </g>
     <g id="text_9">
      <!-- 500 -->
      <g style="fill:#555555;" transform="translate(35.234688 345.231412)scale(0.1 -0.1)">
       <defs>
        <path d="M 1178 2603 
Q 1634 2963 2172 2963 
Q 2816 2963 3241 2528 
Q 3638 2113 3638 1497 
Q 3638 938 3297 513 
Q 2869 -31 2031 -31 
Q 959 -31 469 784 
L 938 1028 
Q 1309 434 2013 434 
Q 2466 434 2769 716 
Q 3081 1013 3081 1503 
Q 3081 1966 2806 2241 
Q 2519 2528 2056 2528 
Q 1406 2528 1072 2028 
L 591 2091 
L 884 4634 
L 3406 4634 
L 3406 4153 
L 1341 4153 
L 1134 2603 
L 1178 2603 
z
" id="IPAexGothic-35" transform="scale(0.015625)"/>
       </defs>
       <use xlink:href="#IPAexGothic-35"/>
       <use x="62.988281" xlink:href="#IPAexGothic-30"/>
       <use x="125.976562" xlink:href="#IPAexGothic-30"/>
      </g>
     </g>
    </g>
    <g id="ytick_3">
     <g id="line2d_17">
      <path clip-path="url(#p9c4a18758a)" d="M 61.13 293.8997 
L 565.2 293.8997 
" style="fill:none;stroke:#ffffff;stroke-linecap:square;stroke-width:0.8;"/>
     </g>
     <g id="line2d_18">
      <g>
       <use style="fill:#555555;stroke:#555555;stroke-width:0.8;" x="61.13" xlink:href="#m26de5fbced" y="293.8997"/>
      </g>
     </g>
     <g id="text_10">
      <!-- 1,000 -->
      <g style="fill:#555555;" transform="translate(26.294063 297.645012)scale(0.1 -0.1)">
       <use xlink:href="#IPAexGothic-31"/>
       <use x="62.988281" xlink:href="#IPAexGothic-2c"/>
       <use x="89.404297" xlink:href="#IPAexGothic-30"/>
       <use x="152.392578" xlink:href="#IPAexGothic-30"/>
       <use x="215.380859" xlink:href="#IPAexGothic-30"/>
      </g>
     </g>
    </g>
    <g id="ytick_4">
     <g id="line2d_19">
      <path clip-path="url(#p9c4a18758a)" d="M 61.13 246.313299 
L 565.2 246.313299 
" style="fill:none;stroke:#ffffff;stroke-linecap:square;stroke-width:0.8;"/>
     </g>
     <g id="line2d_20">
      <g>
       <use style="fill:#555555;stroke:#555555;stroke-width:0.8;" x="61.13" xlink:href="#m26de5fbced" y="246.313299"/>
      </g>
     </g>
     <g id="text_11">
      <!-- 1,500 -->
      <g style="fill:#555555;" transform="translate(26.294063 250.058612)scale(0.1 -0.1)">
       <use xlink:href="#IPAexGothic-31"/>
       <use x="62.988281" xlink:href="#IPAexGothic-2c"/>
       <use x="89.404297" xlink:href="#IPAexGothic-35"/>
       <use x="152.392578" xlink:href="#IPAexGothic-30"/>
       <use x="215.380859" xlink:href="#IPAexGothic-30"/>
      </g>
     </g>
    </g>
    <g id="ytick_5">
     <g id="line2d_21">
      <path clip-path="url(#p9c4a18758a)" d="M 61.13 198.726899 
L 565.2 198.726899 
" style="fill:none;stroke:#ffffff;stroke-linecap:square;stroke-width:0.8;"/>
     </g>
     <g id="line2d_22">
      <g>
       <use style="fill:#555555;stroke:#555555;stroke-width:0.8;" x="61.13" xlink:href="#m26de5fbced" y="198.726899"/>
      </g>
     </g>
     <g id="text_12">
      <!-- 2,000 -->
      <g style="fill:#555555;" transform="translate(26.294063 202.472212)scale(0.1 -0.1)">
       <use xlink:href="#IPAexGothic-32"/>
       <use x="62.988281" xlink:href="#IPAexGothic-2c"/>
       <use x="89.404297" xlink:href="#IPAexGothic-30"/>
       <use x="152.392578" xlink:href="#IPAexGothic-30"/>
       <use x="215.380859" xlink:href="#IPAexGothic-30"/>
      </g>
     </g>
    </g>
    <g id="ytick_6">
     <g id="line2d_23">
      <path clip-path="url(#p9c4a18758a)" d="M 61.13 151.140499 
L 565.2 151.140499 
" style="fill:none;stroke:#ffffff;stroke-linecap:square;stroke-width:0.8;"/>
     </g>
     <g id="line2d_24">
      <g>
       <use style="fill:#555555;stroke:#555555;stroke-width:0.8;" x="61.13" xlink:href="#m26de5fbced" y="151.140499"/>
      </g>
     </g>
     <g id="text_13">
      <!-- 2,500 -->
      <g style="fill:#555555;" transform="translate(26.294063 154.885811)scale(0.1 -0.1)">
       <use xlink:href="#IPAexGothic-32"/>
       <use x="62.988281" xlink:href="#IPAexGothic-2c"/>
       <use x="89.404297" xlink:href="#IPAexGothic-35"/>
       <use x="152.392578" xlink:href="#IPAexGothic-30"/>
       <use x="215.380859" xlink:href="#IPAexGothic-30"/>
      </g>
     </g>
    </g>
    <g id="ytick_7">
     <g id="line2d_25">
      <path clip-path="url(#p9c4a18758a)" d="M 61.13 103.554099 
L 565.2 103.554099 
" style="fill:none;stroke:#ffffff;stroke-linecap:square;stroke-width:0.8;"/>
     </g>
     <g id="line2d_26">
      <g>
       <use style="fill:#555555;stroke:#555555;stroke-width:0.8;" x="61.13" xlink:href="#m26de5fbced" y="103.554099"/>
      </g>
     </g>
     <g id="text_14">
      <!-- 3,000 -->
      <g style="fill:#555555;" transform="translate(26.294063 107.299411)scale(0.1 -0.1)">
       <defs>
        <path d="M 2381 2419 
Q 3506 2216 3506 1278 
Q 3506 716 3128 356 
Q 2709 -31 1944 -31 
Q 797 -31 288 881 
L 756 1131 
Q 1109 441 1938 441 
Q 2425 441 2694 691 
Q 2950 928 2950 1291 
Q 2950 1719 2566 1978 
Q 2216 2213 1644 2213 
L 1363 2213 
L 1363 2669 
L 1656 2669 
Q 2231 2669 2534 2888 
Q 2859 3119 2859 3509 
Q 2859 3934 2494 4138 
Q 2259 4278 1931 4278 
Q 1238 4278 903 3578 
L 434 3803 
Q 897 4725 1938 4725 
Q 2597 4725 3006 4394 
Q 3416 4069 3416 3534 
Q 3416 3028 3019 2706 
Q 2763 2500 2381 2444 
L 2381 2419 
z
" id="IPAexGothic-33" transform="scale(0.015625)"/>
       </defs>
       <use xlink:href="#IPAexGothic-33"/>
       <use x="62.988281" xlink:href="#IPAexGothic-2c"/>
       <use x="89.404297" xlink:href="#IPAexGothic-30"/>
       <use x="152.392578" xlink:href="#IPAexGothic-30"/>
       <use x="215.380859" xlink:href="#IPAexGothic-30"/>
      </g>
     </g>
    </g>
    <g id="ytick_8">
     <g id="line2d_27">
      <path clip-path="url(#p9c4a18758a)" d="M 61.13 55.967699 
L 565.2 55.967699 
" style="fill:none;stroke:#ffffff;stroke-linecap:square;stroke-width:0.8;"/>
     </g>
     <g id="line2d_28">
      <g>
       <use style="fill:#555555;stroke:#555555;stroke-width:0.8;" x="61.13" xlink:href="#m26de5fbced" y="55.967699"/>
      </g>
     </g>
     <g id="text_15">
      <!-- 3,500 -->
      <g style="fill:#555555;" transform="translate(26.294063 59.713011)scale(0.1 -0.1)">
       <use xlink:href="#IPAexGothic-33"/>
       <use x="62.988281" xlink:href="#IPAexGothic-2c"/>
       <use x="89.404297" xlink:href="#IPAexGothic-35"/>
       <use x="152.392578" xlink:href="#IPAexGothic-30"/>
       <use x="215.380859" xlink:href="#IPAexGothic-30"/>
      </g>
     </g>
    </g>
    <g id="text_16">
     <!-- The number of event -->
     <g style="fill:#555555;" transform="translate(20.014063 266.96375)rotate(-90)scale(0.12 -0.12)">
      <defs>
       <path d="M 3866 4141 
L 2175 4141 
L 2175 63 
L 1606 63 
L 1606 4141 
L -31 4141 
L -31 4634 
L 3866 4634 
L 3866 4141 
z
" id="IPAexGothic-54" transform="scale(0.015625)"/>
       <path d="M 3347 63 
L 2797 63 
L 2797 2041 
Q 2797 2853 2131 2853 
Q 1447 2853 1131 2041 
L 1131 63 
L 581 63 
L 581 4794 
L 1131 4794 
L 1131 2706 
Q 1566 3316 2247 3316 
Q 3347 3316 3347 2072 
L 3347 63 
z
" id="IPAexGothic-68" transform="scale(0.015625)"/>
       <path d="M 1125 2731 
Q 1550 3341 2219 3341 
Q 2788 3341 3191 2938 
Q 3659 2469 3659 1644 
Q 3659 838 3191 372 
Q 2788 -31 2206 -31 
Q 1559 -31 1088 516 
L 1009 44 
L 581 44 
L 581 4794 
L 1125 4794 
L 1125 2731 
z
M 1125 1997 
L 1125 1253 
Q 1125 888 1528 600 
Q 1803 403 2119 403 
Q 2488 403 2744 659 
Q 3084 1009 3084 1631 
Q 3084 2194 2803 2553 
Q 2525 2900 2125 2900 
Q 1759 2900 1438 2578 
Q 1125 2266 1125 1997 
z
" id="IPAexGothic-62" transform="scale(0.015625)"/>
       <path d="M 2309 3316 
L 2213 2769 
Q 2106 2791 2022 2791 
Q 1653 2791 1413 2444 
Q 1113 2006 1113 1675 
L 1113 63 
L 563 63 
L 563 3250 
L 1081 3250 
L 1056 2303 
L 1069 2303 
Q 1422 3341 2097 3341 
Q 2206 3341 2309 3316 
z
" id="IPAexGothic-72" transform="scale(0.015625)"/>
       <path d="M 3103 3250 
L 1747 6 
L 1375 6 
L 25 3250 
L 628 3250 
L 1338 1388 
L 1522 844 
L 1569 703 
L 1588 703 
Q 1641 884 1822 1388 
L 2516 3250 
L 3103 3250 
z
" id="IPAexGothic-76" transform="scale(0.015625)"/>
      </defs>
      <use xlink:href="#IPAexGothic-54"/>
      <use x="59.912109" xlink:href="#IPAexGothic-68"/>
      <use x="120.605469" xlink:href="#IPAexGothic-65"/>
      <use x="177.490234" xlink:href="#IPAexGothic-20"/>
      <use x="204.492188" xlink:href="#IPAexGothic-6e"/>
      <use x="264.892578" xlink:href="#IPAexGothic-75"/>
      <use x="325.292969" xlink:href="#IPAexGothic-6d"/>
      <use x="412.402344" xlink:href="#IPAexGothic-62"/>
      <use x="474.804688" xlink:href="#IPAexGothic-65"/>
      <use x="531.689453" xlink:href="#IPAexGothic-72"/>
      <use x="568.701172" xlink:href="#IPAexGothic-20"/>
      <use x="595.703125" xlink:href="#IPAexGothic-6f"/>
      <use x="656.103516" xlink:href="#IPAexGothic-66"/>
      <use x="686.71875" xlink:href="#IPAexGothic-20"/>
      <use x="713.720703" xlink:href="#IPAexGothic-65"/>
      <use x="770.605469" xlink:href="#IPAexGothic-76"/>
      <use x="819.189453" xlink:href="#IPAexGothic-65"/>
      <use x="876.074219" xlink:href="#IPAexGothic-6e"/>
      <use x="936.474609" xlink:href="#IPAexGothic-74"/>
     </g>
    </g>
   </g>
   <g id="patch_3">
    <path clip-path="url(#p9c4a18758a)" d="M 84.042273 389.0725 
L 93.207182 389.0725 
L 93.207182 146.667377 
L 84.042273 146.667377 
z
" style="fill:#e24a33;"/>
   </g>
   <g id="patch_4">
    <path clip-path="url(#p9c4a18758a)" d="M 93.207182 389.0725 
L 102.372091 389.0725 
L 102.372091 45.49869 
L 93.207182 45.49869 
z
" style="fill:#e24a33;"/>
   </g>
   <g id="patch_5">
    <path clip-path="url(#p9c4a18758a)" d="M 102.372091 389.0725 
L 111.537 389.0725 
L 111.537 226.422184 
L 102.372091 226.422184 
z
" style="fill:#e24a33;"/>
   </g>
   <g id="patch_6">
    <path clip-path="url(#p9c4a18758a)" d="M 111.537 389.0725 
L 120.701909 389.0725 
L 120.701909 389.0725 
L 111.537 389.0725 
z
" style="fill:#e24a33;"/>
   </g>
   <g id="patch_7">
    <path clip-path="url(#p9c4a18758a)" d="M 120.701909 389.0725 
L 129.866818 389.0725 
L 129.866818 314.361852 
L 120.701909 314.361852 
z
" style="fill:#e24a33;"/>
   </g>
   <g id="patch_8">
    <path clip-path="url(#p9c4a18758a)" d="M 129.866818 389.0725 
L 139.031727 389.0725 
L 139.031727 370.799322 
L 129.866818 370.799322 
z
" style="fill:#e24a33;"/>
   </g>
   <g id="patch_9">
    <path clip-path="url(#p9c4a18758a)" d="M 139.031727 389.0725 
L 148.196636 389.0725 
L 148.196636 388.501463 
L 139.031727 388.501463 
z
" style="fill:#e24a33;"/>
   </g>
   <g id="patch_10">
    <path clip-path="url(#p9c4a18758a)" d="M 148.196636 389.0725 
L 157.361545 389.0725 
L 157.361545 389.0725 
L 148.196636 389.0725 
z
" style="fill:#e24a33;"/>
   </g>
   <g id="patch_11">
    <path clip-path="url(#p9c4a18758a)" d="M 157.361545 389.0725 
L 166.526455 389.0725 
L 166.526455 377.651764 
L 157.361545 377.651764 
z
" style="fill:#e24a33;"/>
   </g>
   <g id="patch_12">
    <path clip-path="url(#p9c4a18758a)" d="M 166.526455 389.0725 
L 175.691364 389.0725 
L 175.691364 389.0725 
L 166.526455 389.0725 
z
" style="fill:#e24a33;"/>
   </g>
   <g id="patch_13">
    <path clip-path="url(#p9c4a18758a)" d="M 175.691364 389.0725 
L 184.856273 389.0725 
L 184.856273 385.931798 
L 175.691364 385.931798 
z
" style="fill:#e24a33;"/>
   </g>
   <g id="patch_14">
    <path clip-path="url(#p9c4a18758a)" d="M 184.856273 389.0725 
L 194.021182 389.0725 
L 194.021182 389.0725 
L 184.856273 389.0725 
z
" style="fill:#e24a33;"/>
   </g>
   <g id="patch_15">
    <path clip-path="url(#p9c4a18758a)" d="M 194.021182 389.0725 
L 203.186091 389.0725 
L 203.186091 376.604863 
L 194.021182 376.604863 
z
" style="fill:#e24a33;"/>
   </g>
   <g id="patch_16">
    <path clip-path="url(#p9c4a18758a)" d="M 203.186091 389.0725 
L 212.351 389.0725 
L 212.351 389.0725 
L 203.186091 389.0725 
z
" style="fill:#e24a33;"/>
   </g>
   <g id="patch_17">
    <path clip-path="url(#p9c4a18758a)" d="M 212.351 389.0725 
L 221.515909 389.0725 
L 221.515909 389.0725 
L 212.351 389.0725 
z
" style="fill:#e24a33;"/>
   </g>
   <g id="patch_18">
    <path clip-path="url(#p9c4a18758a)" d="M 221.515909 389.0725 
L 230.680818 389.0725 
L 230.680818 387.35939 
L 221.515909 387.35939 
z
" style="fill:#e24a33;"/>
   </g>
   <g id="patch_19">
    <path clip-path="url(#p9c4a18758a)" d="M 230.680818 389.0725 
L 239.845727 389.0725 
L 239.845727 383.362132 
L 230.680818 383.362132 
z
" style="fill:#e24a33;"/>
   </g>
   <g id="patch_20">
    <path clip-path="url(#p9c4a18758a)" d="M 239.845727 389.0725 
L 249.010636 389.0725 
L 249.010636 389.0725 
L 239.845727 389.0725 
z
" style="fill:#e24a33;"/>
   </g>
   <g id="patch_21">
    <path clip-path="url(#p9c4a18758a)" d="M 249.010636 389.0725 
L 258.175545 389.0725 
L 258.175545 389.0725 
L 249.010636 389.0725 
z
" style="fill:#e24a33;"/>
   </g>
   <g id="patch_22">
    <path clip-path="url(#p9c4a18758a)" d="M 258.175545 389.0725 
L 267.340455 389.0725 
L 267.340455 389.0725 
L 258.175545 389.0725 
z
" style="fill:#e24a33;"/>
   </g>
   <g id="patch_23">
    <path clip-path="url(#p9c4a18758a)" d="M 267.340455 389.0725 
L 276.505364 389.0725 
L 276.505364 385.455934 
L 267.340455 385.455934 
z
" style="fill:#e24a33;"/>
   </g>
   <g id="patch_24">
    <path clip-path="url(#p9c4a18758a)" d="M 276.505364 389.0725 
L 285.670273 389.0725 
L 285.670273 389.0725 
L 276.505364 389.0725 
z
" style="fill:#e24a33;"/>
   </g>
   <g id="patch_25">
    <path clip-path="url(#p9c4a18758a)" d="M 285.670273 389.0725 
L 294.835182 389.0725 
L 294.835182 389.0725 
L 285.670273 389.0725 
z
" style="fill:#e24a33;"/>
   </g>
   <g id="patch_26">
    <path clip-path="url(#p9c4a18758a)" d="M 294.835182 389.0725 
L 304.000091 389.0725 
L 304.000091 389.0725 
L 294.835182 389.0725 
z
" style="fill:#e24a33;"/>
   </g>
   <g id="patch_27">
    <path clip-path="url(#p9c4a18758a)" d="M 304.000091 389.0725 
L 313.165 389.0725 
L 313.165 387.264217 
L 304.000091 387.264217 
z
" style="fill:#e24a33;"/>
   </g>
   <g id="patch_28">
    <path clip-path="url(#p9c4a18758a)" d="M 313.165 389.0725 
L 322.329909 389.0725 
L 322.329909 389.0725 
L 313.165 389.0725 
z
" style="fill:#e24a33;"/>
   </g>
   <g id="patch_29">
    <path clip-path="url(#p9c4a18758a)" d="M 322.329909 389.0725 
L 331.494818 389.0725 
L 331.494818 389.0725 
L 322.329909 389.0725 
z
" style="fill:#e24a33;"/>
   </g>
   <g id="patch_30">
    <path clip-path="url(#p9c4a18758a)" d="M 331.494818 389.0725 
L 340.659727 389.0725 
L 340.659727 389.0725 
L 331.494818 389.0725 
z
" style="fill:#e24a33;"/>
   </g>
   <g id="patch_31">
    <path clip-path="url(#p9c4a18758a)" d="M 340.659727 389.0725 
L 349.824636 389.0725 
L 349.824636 389.0725 
L 340.659727 389.0725 
z
" style="fill:#e24a33;"/>
   </g>
   <g id="patch_32">
    <path clip-path="url(#p9c4a18758a)" d="M 349.824636 389.0725 
L 358.989545 389.0725 
L 358.989545 389.0725 
L 349.824636 389.0725 
z
" style="fill:#e24a33;"/>
   </g>
   <g id="patch_33">
    <path clip-path="url(#p9c4a18758a)" d="M 358.989545 389.0725 
L 368.154455 389.0725 
L 368.154455 389.0725 
L 358.989545 389.0725 
z
" style="fill:#e24a33;"/>
   </g>
   <g id="patch_34">
    <path clip-path="url(#p9c4a18758a)" d="M 368.154455 389.0725 
L 377.319364 389.0725 
L 377.319364 389.0725 
L 368.154455 389.0725 
z
" style="fill:#e24a33;"/>
   </g>
   <g id="patch_35">
    <path clip-path="url(#p9c4a18758a)" d="M 377.319364 389.0725 
L 386.484273 389.0725 
L 386.484273 389.0725 
L 377.319364 389.0725 
z
" style="fill:#e24a33;"/>
   </g>
   <g id="patch_36">
    <path clip-path="url(#p9c4a18758a)" d="M 386.484273 389.0725 
L 395.649182 389.0725 
L 395.649182 389.0725 
L 386.484273 389.0725 
z
" style="fill:#e24a33;"/>
   </g>
   <g id="patch_37">
    <path clip-path="url(#p9c4a18758a)" d="M 395.649182 389.0725 
L 404.814091 389.0725 
L 404.814091 389.0725 
L 395.649182 389.0725 
z
" style="fill:#e24a33;"/>
   </g>
   <g id="patch_38">
    <path clip-path="url(#p9c4a18758a)" d="M 404.814091 389.0725 
L 413.979 389.0725 
L 413.979 389.0725 
L 404.814091 389.0725 
z
" style="fill:#e24a33;"/>
   </g>
   <g id="patch_39">
    <path clip-path="url(#p9c4a18758a)" d="M 413.979 389.0725 
L 423.143909 389.0725 
L 423.143909 389.0725 
L 413.979 389.0725 
z
" style="fill:#e24a33;"/>
   </g>
   <g id="patch_40">
    <path clip-path="url(#p9c4a18758a)" d="M 423.143909 389.0725 
L 432.308818 389.0725 
L 432.308818 389.0725 
L 423.143909 389.0725 
z
" style="fill:#e24a33;"/>
   </g>
   <g id="patch_41">
    <path clip-path="url(#p9c4a18758a)" d="M 432.308818 389.0725 
L 441.473727 389.0725 
L 441.473727 389.0725 
L 432.308818 389.0725 
z
" style="fill:#e24a33;"/>
   </g>
   <g id="patch_42">
    <path clip-path="url(#p9c4a18758a)" d="M 441.473727 389.0725 
L 450.638636 389.0725 
L 450.638636 389.0725 
L 441.473727 389.0725 
z
" style="fill:#e24a33;"/>
   </g>
   <g id="patch_43">
    <path clip-path="url(#p9c4a18758a)" d="M 450.638636 389.0725 
L 459.803545 389.0725 
L 459.803545 387.549735 
L 450.638636 387.549735 
z
" style="fill:#e24a33;"/>
   </g>
   <g id="patch_44">
    <path clip-path="url(#p9c4a18758a)" d="M 459.803545 389.0725 
L 468.968455 389.0725 
L 468.968455 389.0725 
L 459.803545 389.0725 
z
" style="fill:#e24a33;"/>
   </g>
   <g id="patch_45">
    <path clip-path="url(#p9c4a18758a)" d="M 468.968455 389.0725 
L 478.133364 389.0725 
L 478.133364 389.0725 
L 468.968455 389.0725 
z
" style="fill:#e24a33;"/>
   </g>
   <g id="patch_46">
    <path clip-path="url(#p9c4a18758a)" d="M 478.133364 389.0725 
L 487.298273 389.0725 
L 487.298273 389.0725 
L 478.133364 389.0725 
z
" style="fill:#e24a33;"/>
   </g>
   <g id="patch_47">
    <path clip-path="url(#p9c4a18758a)" d="M 487.298273 389.0725 
L 496.463182 389.0725 
L 496.463182 389.0725 
L 487.298273 389.0725 
z
" style="fill:#e24a33;"/>
   </g>
   <g id="patch_48">
    <path clip-path="url(#p9c4a18758a)" d="M 496.463182 389.0725 
L 505.628091 389.0725 
L 505.628091 389.0725 
L 496.463182 389.0725 
z
" style="fill:#e24a33;"/>
   </g>
   <g id="patch_49">
    <path clip-path="url(#p9c4a18758a)" d="M 505.628091 389.0725 
L 514.793 389.0725 
L 514.793 389.0725 
L 505.628091 389.0725 
z
" style="fill:#e24a33;"/>
   </g>
   <g id="patch_50">
    <path clip-path="url(#p9c4a18758a)" d="M 514.793 389.0725 
L 523.957909 389.0725 
L 523.957909 389.0725 
L 514.793 389.0725 
z
" style="fill:#e24a33;"/>
   </g>
   <g id="patch_51">
    <path clip-path="url(#p9c4a18758a)" d="M 523.957909 389.0725 
L 533.122818 389.0725 
L 533.122818 388.882154 
L 523.957909 388.882154 
z
" style="fill:#e24a33;"/>
   </g>
   <g id="patch_52">
    <path clip-path="url(#p9c4a18758a)" d="M 533.122818 389.0725 
L 542.287727 389.0725 
L 542.287727 389.0725 
L 533.122818 389.0725 
z
" style="fill:#e24a33;"/>
   </g>
   <g id="patch_53">
    <path d="M 61.13 389.0725 
L 61.13 28.32 
" style="fill:none;stroke:#ffffff;stroke-linecap:square;stroke-linejoin:miter;"/>
   </g>
   <g id="patch_54">
    <path d="M 565.2 389.0725 
L 565.2 28.32 
" style="fill:none;stroke:#ffffff;stroke-linecap:square;stroke-linejoin:miter;"/>
   </g>
   <g id="patch_55">
    <path d="M 61.13 389.0725 
L 565.2 389.0725 
" style="fill:none;stroke:#ffffff;stroke-linecap:square;stroke-linejoin:miter;"/>
   </g>
   <g id="patch_56">
    <path d="M 61.13 28.32 
L 565.2 28.32 
" style="fill:none;stroke:#ffffff;stroke-linecap:square;stroke-linejoin:miter;"/>
   </g>
   <g id="text_17">
    <!-- Histgram -->
    <g transform="translate(283.1095 22.32)scale(0.144 -0.144)">
     <defs>
      <path d="M 4181 63 
L 3619 63 
L 3619 2200 
L 1172 2200 
L 1172 63 
L 609 63 
L 609 4634 
L 1172 4634 
L 1172 2669 
L 3619 2669 
L 3619 4634 
L 4181 4634 
L 4181 63 
z
" id="IPAexGothic-48" transform="scale(0.015625)"/>
      <path d="M 1178 3928 
L 550 3928 
L 550 4569 
L 1178 4569 
L 1178 3928 
z
M 1138 63 
L 588 63 
L 588 3250 
L 1138 3250 
L 1138 63 
z
" id="IPAexGothic-69" transform="scale(0.015625)"/>
      <path d="M 2234 2547 
Q 1938 2931 1484 2931 
Q 891 2931 891 2475 
Q 891 2153 1531 1944 
L 1741 1875 
Q 2650 1578 2650 894 
Q 2650 434 2272 172 
Q 1972 -31 1497 -31 
Q 766 -31 256 503 
L 603 819 
Q 997 397 1516 397 
Q 2131 397 2131 875 
Q 2131 1238 1453 1478 
L 1234 1553 
Q 378 1853 378 2431 
Q 378 2797 628 3047 
Q 928 3347 1453 3347 
Q 2156 3347 2606 2859 
L 2234 2547 
z
" id="IPAexGothic-73" transform="scale(0.015625)"/>
      <path d="M 1331 1150 
Q 1006 1122 1006 900 
Q 1006 613 1763 575 
L 2131 556 
Q 3303 497 3303 -294 
Q 3303 -700 2925 -959 
Q 2519 -1253 1794 -1253 
Q 1138 -1253 738 -1028 
Q 353 -809 353 -428 
Q 353 84 1075 247 
L 1075 269 
Q 506 413 506 778 
Q 506 1116 994 1297 
Q 456 1575 456 2181 
Q 456 2650 769 2963 
Q 1128 3322 1738 3322 
Q 2125 3322 2422 3153 
Q 2650 3453 3259 3463 
L 3259 3013 
Q 2838 3003 2703 2938 
Q 3034 2613 3034 2169 
Q 3034 1728 2734 1425 
Q 2400 1094 1813 1094 
Q 1563 1094 1331 1150 
z
M 1734 2919 
Q 1409 2919 1197 2706 
Q 988 2497 988 2181 
Q 988 1872 1184 1684 
Q 1397 1472 1756 1472 
Q 2094 1472 2297 1678 
Q 2503 1881 2503 2203 
Q 2503 2497 2297 2700 
Q 2081 2919 1734 2919 
z
M 1753 159 
Q 903 159 903 -366 
Q 903 -875 1800 -875 
Q 2378 -875 2638 -606 
Q 2772 -481 2772 -313 
Q 2772 159 1753 159 
z
" id="IPAexGothic-67" transform="scale(0.015625)"/>
      <path d="M 3156 63 
L 2672 63 
Q 2559 303 2531 556 
L 2509 556 
Q 2147 -25 1428 -25 
Q 934 -25 622 288 
Q 347 563 347 959 
Q 347 1947 2050 1997 
L 2478 2009 
L 2478 2175 
Q 2478 2509 2288 2700 
Q 2088 2900 1775 2900 
Q 1238 2900 969 2378 
L 494 2597 
Q 938 3328 1788 3328 
Q 2375 3328 2691 3000 
Q 2984 2706 2984 2169 
L 2984 997 
Q 2984 400 3156 63 
z
M 2491 1625 
L 2141 1619 
Q 903 1591 903 953 
Q 903 728 1050 581 
Q 1231 403 1525 403 
Q 1934 403 2234 703 
Q 2491 969 2491 1344 
L 2491 1625 
z
" id="IPAexGothic-61" transform="scale(0.015625)"/>
     </defs>
     <use xlink:href="#IPAexGothic-48"/>
     <use x="75" xlink:href="#IPAexGothic-69"/>
     <use x="102.001953" xlink:href="#IPAexGothic-73"/>
     <use x="148.193359" xlink:href="#IPAexGothic-74"/>
     <use x="182.8125" xlink:href="#IPAexGothic-67"/>
     <use x="238.330078" xlink:href="#IPAexGothic-72"/>
     <use x="275.341797" xlink:href="#IPAexGothic-61"/>
     <use x="330.322266" xlink:href="#IPAexGothic-6d"/>
    </g>
   </g>
  </g>
 </g>
 <defs>
  <clipPath id="p9c4a18758a">
   <rect height="360.7525" width="504.07" x="61.13" y="28.32"/>
  </clipPath>
 </defs>
</svg>
