<?xml version="1.0" encoding="utf-8" standalone="no"?>
<!DOCTYPE svg PUBLIC "-//W3C//DTD SVG 1.1//EN"
  "http://www.w3.org/Graphics/SVG/1.1/DTD/svg11.dtd">
<svg height="432pt" version="1.1" viewBox="0 0 576 432" width="576pt" xmlns="http://www.w3.org/2000/svg" xmlns:xlink="http://www.w3.org/1999/xlink">
 <metadata>
  <rdf:RDF xmlns:cc="http://creativecommons.org/ns#" xmlns:dc="http://purl.org/dc/elements/1.1/" xmlns:rdf="http://www.w3.org/1999/02/22-rdf-syntax-ns#">
   <cc:Work>
    <dc:type rdf:resource="http://purl.org/dc/dcmitype/StillImage"/>
    <dc:date>2021-11-02T18:18:52.425775</dc:date>
    <dc:format>image/svg+xml</dc:format>
    <dc:creator>
     <cc:Agent>
      <dc:title>Matplotlib v3.4.2, https://matplotlib.org/</dc:title>
     </cc:Agent>
    </dc:creator>
   </cc:Work>
  </rdf:RDF>
 </metadata>
 <defs>
  <style type="text/css">*{stroke-linecap:butt;stroke-linejoin:round;}</style>
 </defs>
 <g id="figure_1">
  <g id="patch_1">
   <path d="M 0 432 
L 576 432 
L 576 0 
L 0 0 
z
" style="fill:#ffffff;"/>
  </g>
  <g id="axes_1">
   <g id="patch_2">
    <path d="M 72 384.48 
L 518.4 384.48 
L 518.4 51.84 
L 72 51.84 
z
" style="fill:#ffffff;"/>
   </g>
   <g id="PolyCollection_1">
    <defs>
     <path d="M 118.058534 -113.227571 
L 115.221466 -113.227571 
L 114.863919 -115.344146 
L 114.434975 -117.46072 
L 113.925396 -119.577294 
L 113.325971 -121.693869 
L 112.62785 -123.810443 
L 111.822925 -125.927017 
L 110.904266 -128.043592 
L 109.866581 -130.160166 
L 108.706692 -132.27674 
L 107.424009 -134.393314 
L 106.020957 -136.509889 
L 104.503351 -138.626463 
L 102.880665 -140.743037 
L 101.166197 -142.859612 
L 99.37707 -144.976186 
L 97.534079 -147.09276 
L 95.661357 -149.209335 
L 93.785857 -151.325909 
L 91.936667 -153.442483 
L 90.144169 -155.559058 
L 88.439077 -157.675632 
L 86.851393 -159.792206 
L 85.40933 -161.908781 
L 84.138262 -164.025355 
L 83.059754 -166.141929 
L 82.190723 -168.258504 
L 81.542793 -170.375078 
L 81.121875 -172.491652 
L 80.928 -174.608226 
L 80.955428 -176.724801 
L 81.193014 -178.841375 
L 81.624826 -180.957949 
L 82.230966 -183.074524 
L 82.988557 -185.191098 
L 83.872824 -187.307672 
L 84.858216 -189.424247 
L 85.919496 -191.540821 
L 87.032737 -193.657395 
L 88.176183 -195.77397 
L 89.330909 -197.890544 
L 90.481278 -200.007118 
L 91.615164 -202.123693 
L 92.723962 -204.240267 
L 93.802379 -206.356841 
L 94.848063 -208.473416 
L 95.861093 -210.58999 
L 96.843375 -212.706564 
L 97.798004 -214.823139 
L 98.728622 -216.939713 
L 99.638825 -219.056287 
L 100.53165 -221.172861 
L 101.409165 -223.289436 
L 102.272182 -225.40601 
L 103.120106 -227.522584 
L 103.950902 -229.639159 
L 104.761192 -231.755733 
L 105.546448 -233.872307 
L 106.301274 -235.988882 
L 107.019747 -238.105456 
L 107.695796 -240.22203 
L 108.323589 -242.338605 
L 108.897914 -244.455179 
L 109.414523 -246.571753 
L 109.870426 -248.688328 
L 110.264116 -250.804902 
L 110.595724 -252.921476 
L 110.867083 -255.038051 
L 111.081706 -257.154625 
L 111.244683 -259.271199 
L 111.362495 -261.387774 
L 111.44276 -263.504348 
L 111.493929 -265.620922 
L 111.524933 -267.737496 
L 111.544821 -269.854071 
L 111.562386 -271.970645 
L 111.585818 -274.087219 
L 111.622386 -276.203794 
L 111.678181 -278.320368 
L 111.757918 -280.436942 
L 111.86481 -282.553517 
L 112.000527 -284.670091 
L 112.165223 -286.786665 
L 112.357644 -288.90324 
L 112.575285 -291.019814 
L 112.814611 -293.136388 
L 113.071301 -295.252963 
L 113.340509 -297.369537 
L 113.617138 -299.486111 
L 113.896087 -301.602686 
L 114.172479 -303.71926 
L 114.441854 -305.835834 
L 114.700315 -307.952408 
L 114.944631 -310.068983 
L 115.172293 -312.185557 
L 115.381526 -314.302131 
L 115.571269 -316.418706 
L 115.741115 -318.53528 
L 115.891236 -320.651854 
L 116.022287 -322.768429 
L 117.257713 -322.768429 
L 117.257713 -322.768429 
L 117.388764 -320.651854 
L 117.538885 -318.53528 
L 117.708731 -316.418706 
L 117.898474 -314.302131 
L 118.107707 -312.185557 
L 118.335369 -310.068983 
L 118.579685 -307.952408 
L 118.838146 -305.835834 
L 119.107521 -303.71926 
L 119.383913 -301.602686 
L 119.662862 -299.486111 
L 119.939491 -297.369537 
L 120.208699 -295.252963 
L 120.465389 -293.136388 
L 120.704715 -291.019814 
L 120.922356 -288.90324 
L 121.114777 -286.786665 
L 121.279473 -284.670091 
L 121.41519 -282.553517 
L 121.522082 -280.436942 
L 121.601819 -278.320368 
L 121.657614 -276.203794 
L 121.694182 -274.087219 
L 121.717614 -271.970645 
L 121.735179 -269.854071 
L 121.755067 -267.737496 
L 121.786071 -265.620922 
L 121.83724 -263.504348 
L 121.917505 -261.387774 
L 122.035317 -259.271199 
L 122.198294 -257.154625 
L 122.412917 -255.038051 
L 122.684276 -252.921476 
L 123.015884 -250.804902 
L 123.409574 -248.688328 
L 123.865477 -246.571753 
L 124.382086 -244.455179 
L 124.956411 -242.338605 
L 125.584204 -240.22203 
L 126.260253 -238.105456 
L 126.978726 -235.988882 
L 127.733552 -233.872307 
L 128.518808 -231.755733 
L 129.329098 -229.639159 
L 130.159894 -227.522584 
L 131.007818 -225.40601 
L 131.870835 -223.289436 
L 132.74835 -221.172861 
L 133.641175 -219.056287 
L 134.551378 -216.939713 
L 135.481996 -214.823139 
L 136.436625 -212.706564 
L 137.418907 -210.58999 
L 138.431937 -208.473416 
L 139.477621 -206.356841 
L 140.556038 -204.240267 
L 141.664836 -202.123693 
L 142.798722 -200.007118 
L 143.949091 -197.890544 
L 145.103817 -195.77397 
L 146.247263 -193.657395 
L 147.360504 -191.540821 
L 148.421784 -189.424247 
L 149.407176 -187.307672 
L 150.291443 -185.191098 
L 151.049034 -183.074524 
L 151.655174 -180.957949 
L 152.086986 -178.841375 
L 152.324572 -176.724801 
L 152.352 -174.608226 
L 152.158125 -172.491652 
L 151.737207 -170.375078 
L 151.089277 -168.258504 
L 150.220246 -166.141929 
L 149.141738 -164.025355 
L 147.87067 -161.908781 
L 146.428607 -159.792206 
L 144.840923 -157.675632 
L 143.135831 -155.559058 
L 141.343333 -153.442483 
L 139.494143 -151.325909 
L 137.618643 -149.209335 
L 135.745921 -147.09276 
L 133.90293 -144.976186 
L 132.113803 -142.859612 
L 130.399335 -140.743037 
L 128.776649 -138.626463 
L 127.259043 -136.509889 
L 125.855991 -134.393314 
L 124.573308 -132.27674 
L 123.413419 -130.160166 
L 122.375734 -128.043592 
L 121.457075 -125.927017 
L 120.65215 -123.810443 
L 119.954029 -121.693869 
L 119.354604 -119.577294 
L 118.845025 -117.46072 
L 118.416081 -115.344146 
L 118.058534 -113.227571 
z
" id="mfd92ef5142" style="stroke:#6b6b6b;stroke-width:1.5;"/>
    </defs>
    <g clip-path="url(#p3c527962cb)">
     <use style="fill:#b2b2b2;stroke:#6b6b6b;stroke-width:1.5;" x="0" xlink:href="#mfd92ef5142" y="432"/>
    </g>
   </g>
   <g id="PolyCollection_2">
    <defs>
     <path d="M 206.837451 -27.506979 
L 205.002549 -27.506979 
L 204.793049 -30.285682 
L 204.547692 -33.064386 
L 204.263314 -35.843089 
L 203.937146 -38.621793 
L 203.566984 -41.400496 
L 203.151354 -44.1792 
L 202.689678 -46.957903 
L 202.182415 -49.736607 
L 201.631177 -52.51531 
L 201.038806 -55.294013 
L 200.409399 -58.072717 
L 199.748281 -60.85142 
L 199.061907 -63.630124 
L 198.357717 -66.408827 
L 197.643914 -69.187531 
L 196.929204 -71.966234 
L 196.222484 -74.744938 
L 195.532509 -77.523641 
L 194.867546 -80.302345 
L 194.235035 -83.081048 
L 193.641279 -85.859751 
L 193.091179 -88.638455 
L 192.588018 -91.417158 
L 192.133331 -94.195862 
L 191.726839 -96.974565 
L 191.366473 -99.753269 
L 191.048472 -102.531972 
L 190.767563 -105.310676 
L 190.517201 -108.089379 
L 190.289863 -110.868083 
L 190.077394 -113.646786 
L 189.871371 -116.425489 
L 189.663484 -119.204193 
L 189.445927 -121.982896 
L 189.211765 -124.7616 
L 188.955286 -127.540303 
L 188.672317 -130.319007 
L 188.360489 -133.09771 
L 188.019449 -135.876414 
L 187.651006 -138.655117 
L 187.259195 -141.433821 
L 186.850261 -144.212524 
L 186.432545 -146.991228 
L 186.016281 -149.769931 
L 185.613294 -152.548634 
L 185.236606 -155.327338 
L 184.899968 -158.106041 
L 184.617323 -160.884745 
L 184.40223 -163.663448 
L 184.267267 -166.442152 
L 184.223453 -169.220855 
L 184.27971 -171.999559 
L 184.442404 -174.778262 
L 184.714986 -177.556966 
L 185.097762 -180.335669 
L 185.587809 -183.114372 
L 186.179035 -185.893076 
L 186.8624 -188.671779 
L 187.626269 -191.450483 
L 188.456895 -194.229186 
L 189.338993 -197.00789 
L 190.256373 -199.786593 
L 191.192609 -202.565297 
L 192.131694 -205.344 
L 193.058644 -208.122704 
L 193.960037 -210.901407 
L 194.824435 -213.680111 
L 195.642697 -216.458814 
L 196.408151 -219.237517 
L 197.116639 -222.016221 
L 197.766431 -224.794924 
L 198.358025 -227.573628 
L 198.89386 -230.352331 
L 199.37795 -233.131035 
L 199.815482 -235.909738 
L 200.212395 -238.688442 
L 200.574969 -241.467145 
L 200.909446 -244.245849 
L 201.2217 -247.024552 
L 201.516972 -249.803255 
L 201.79968 -252.581959 
L 202.073298 -255.360662 
L 202.340315 -258.139366 
L 202.602254 -260.918069 
L 202.859751 -263.696773 
L 203.112673 -266.475476 
L 203.360273 -269.25418 
L 203.601354 -272.032883 
L 203.834438 -274.811587 
L 204.05793 -277.59029 
L 204.270264 -280.368993 
L 204.470018 -283.147697 
L 204.656009 -285.9264 
L 204.827358 -288.705104 
L 204.983522 -291.483807 
L 205.124302 -294.262511 
L 205.249832 -297.041214 
L 205.360544 -299.819918 
L 205.457123 -302.598621 
L 206.382877 -302.598621 
L 206.382877 -302.598621 
L 206.479456 -299.819918 
L 206.590168 -297.041214 
L 206.715698 -294.262511 
L 206.856478 -291.483807 
L 207.012642 -288.705104 
L 207.183991 -285.9264 
L 207.369982 -283.147697 
L 207.569736 -280.368993 
L 207.78207 -277.59029 
L 208.005562 -274.811587 
L 208.238646 -272.032883 
L 208.479727 -269.25418 
L 208.727327 -266.475476 
L 208.980249 -263.696773 
L 209.237746 -260.918069 
L 209.499685 -258.139366 
L 209.766702 -255.360662 
L 210.04032 -252.581959 
L 210.323028 -249.803255 
L 210.6183 -247.024552 
L 210.930554 -244.245849 
L 211.265031 -241.467145 
L 211.627605 -238.688442 
L 212.024518 -235.909738 
L 212.46205 -233.131035 
L 212.94614 -230.352331 
L 213.481975 -227.573628 
L 214.073569 -224.794924 
L 214.723361 -222.016221 
L 215.431849 -219.237517 
L 216.197303 -216.458814 
L 217.015565 -213.680111 
L 217.879963 -210.901407 
L 218.781356 -208.122704 
L 219.708306 -205.344 
L 220.647391 -202.565297 
L 221.583627 -199.786593 
L 222.501007 -197.00789 
L 223.383105 -194.229186 
L 224.213731 -191.450483 
L 224.9776 -188.671779 
L 225.660965 -185.893076 
L 226.252191 -183.114372 
L 226.742238 -180.335669 
L 227.125014 -177.556966 
L 227.397596 -174.778262 
L 227.56029 -171.999559 
L 227.616547 -169.220855 
L 227.572733 -166.442152 
L 227.43777 -163.663448 
L 227.222677 -160.884745 
L 226.940032 -158.106041 
L 226.603394 -155.327338 
L 226.226706 -152.548634 
L 225.823719 -149.769931 
L 225.407455 -146.991228 
L 224.989739 -144.212524 
L 224.580805 -141.433821 
L 224.188994 -138.655117 
L 223.820551 -135.876414 
L 223.479511 -133.09771 
L 223.167683 -130.319007 
L 222.884714 -127.540303 
L 222.628235 -124.7616 
L 222.394073 -121.982896 
L 222.176516 -119.204193 
L 221.968629 -116.425489 
L 221.762606 -113.646786 
L 221.550137 -110.868083 
L 221.322799 -108.089379 
L 221.072437 -105.310676 
L 220.791528 -102.531972 
L 220.473527 -99.753269 
L 220.113161 -96.974565 
L 219.706669 -94.195862 
L 219.251982 -91.417158 
L 218.748821 -88.638455 
L 218.198721 -85.859751 
L 217.604965 -83.081048 
L 216.972454 -80.302345 
L 216.307491 -77.523641 
L 215.617516 -74.744938 
L 214.910796 -71.966234 
L 214.196086 -69.187531 
L 213.482283 -66.408827 
L 212.778093 -63.630124 
L 212.091719 -60.85142 
L 211.430601 -58.072717 
L 210.801194 -55.294013 
L 210.208823 -52.51531 
L 209.657585 -49.736607 
L 209.150322 -46.957903 
L 208.688646 -44.1792 
L 208.273016 -41.400496 
L 207.902854 -38.621793 
L 207.576686 -35.843089 
L 207.292308 -33.064386 
L 207.046951 -30.285682 
L 206.837451 -27.506979 
z
" id="me5ba0a2d23" style="stroke:#6b6b6b;stroke-width:1.5;"/>
    </defs>
    <g clip-path="url(#p3c527962cb)">
     <use style="fill:#b2b2b2;stroke:#6b6b6b;stroke-width:1.5;" x="0" xlink:href="#me5ba0a2d23" y="432"/>
    </g>
   </g>
   <g id="PolyCollection_3">
    <defs>
     <path d="M 296.11857 -26.060574 
L 294.28143 -26.060574 
L 294.074659 -28.078898 
L 293.831009 -30.097221 
L 293.546194 -32.115545 
L 293.215915 -34.133869 
L 292.835981 -36.152193 
L 292.402434 -38.170516 
L 291.911695 -40.18884 
L 291.360721 -42.207164 
L 290.747167 -44.225488 
L 290.069548 -46.243811 
L 289.3274 -48.262135 
L 288.52143 -50.280459 
L 287.653639 -52.298783 
L 286.727426 -54.317106 
L 285.747657 -56.33543 
L 284.720686 -58.353754 
L 283.65434 -60.372078 
L 282.557845 -62.390402 
L 281.441693 -64.408725 
L 280.317467 -66.427049 
L 279.197598 -68.445373 
L 278.09508 -70.463697 
L 277.023138 -72.48202 
L 275.994866 -74.500344 
L 275.022834 -76.518668 
L 274.118702 -78.536992 
L 273.292826 -80.555315 
L 272.5539 -82.573639 
L 271.908637 -84.591963 
L 271.361509 -86.610287 
L 270.914561 -88.62861 
L 270.567314 -90.646934 
L 270.316764 -92.665258 
L 270.157485 -94.683582 
L 270.08183 -96.701905 
L 270.080234 -98.720229 
L 270.141603 -100.738553 
L 270.253776 -102.756877 
L 270.404038 -104.775201 
L 270.579658 -106.793524 
L 270.768437 -108.811848 
L 270.959221 -110.830172 
L 271.14237 -112.848496 
L 271.310141 -114.866819 
L 271.456977 -116.885143 
L 271.579684 -118.903467 
L 271.677482 -120.921791 
L 271.751925 -122.940114 
L 271.806714 -124.958438 
L 271.847391 -126.976762 
L 271.880955 -128.995086 
L 271.915405 -131.013409 
L 271.959261 -133.031733 
L 272.021071 -135.050057 
L 272.108951 -137.068381 
L 272.230174 -139.086704 
L 272.390837 -141.105028 
L 272.595622 -143.123352 
L 272.847654 -145.141676 
L 273.148472 -147.159999 
L 273.49809 -149.178323 
L 273.895152 -151.196647 
L 274.337153 -153.214971 
L 274.820701 -155.233295 
L 275.341815 -157.251618 
L 275.896207 -159.269942 
L 276.479549 -161.288266 
L 277.087698 -163.30659 
L 277.716859 -165.324913 
L 278.363698 -167.343237 
L 279.025373 -169.361561 
L 279.699518 -171.379885 
L 280.384166 -173.398208 
L 281.077638 -175.416532 
L 281.778407 -177.434856 
L 282.484949 -179.45318 
L 283.195607 -181.471503 
L 283.908474 -183.489827 
L 284.62131 -185.508151 
L 285.331493 -187.526475 
L 286.036015 -189.544798 
L 286.731524 -191.563122 
L 287.414396 -193.581446 
L 288.08084 -195.59977 
L 288.727026 -197.618094 
L 289.349219 -199.636417 
L 289.943916 -201.654741 
L 290.507976 -203.673065 
L 291.038728 -205.691389 
L 291.534056 -207.709712 
L 291.99246 -209.728036 
L 292.413081 -211.74636 
L 292.795703 -213.764684 
L 293.140725 -215.783007 
L 293.449106 -217.801331 
L 293.722304 -219.819655 
L 293.962185 -221.837979 
L 294.17094 -223.856302 
L 294.35099 -225.874626 
L 296.04901 -225.874626 
L 296.04901 -225.874626 
L 296.22906 -223.856302 
L 296.437815 -221.837979 
L 296.677696 -219.819655 
L 296.950894 -217.801331 
L 297.259275 -215.783007 
L 297.604297 -213.764684 
L 297.986919 -211.74636 
L 298.40754 -209.728036 
L 298.865944 -207.709712 
L 299.361272 -205.691389 
L 299.892024 -203.673065 
L 300.456084 -201.654741 
L 301.050781 -199.636417 
L 301.672974 -197.618094 
L 302.31916 -195.59977 
L 302.985604 -193.581446 
L 303.668476 -191.563122 
L 304.363985 -189.544798 
L 305.068507 -187.526475 
L 305.77869 -185.508151 
L 306.491526 -183.489827 
L 307.204393 -181.471503 
L 307.915051 -179.45318 
L 308.621593 -177.434856 
L 309.322362 -175.416532 
L 310.015834 -173.398208 
L 310.700482 -171.379885 
L 311.374627 -169.361561 
L 312.036302 -167.343237 
L 312.683141 -165.324913 
L 313.312302 -163.30659 
L 313.920451 -161.288266 
L 314.503793 -159.269942 
L 315.058185 -157.251618 
L 315.579299 -155.233295 
L 316.062847 -153.214971 
L 316.504848 -151.196647 
L 316.90191 -149.178323 
L 317.251528 -147.159999 
L 317.552346 -145.141676 
L 317.804378 -143.123352 
L 318.009163 -141.105028 
L 318.169826 -139.086704 
L 318.291049 -137.068381 
L 318.378929 -135.050057 
L 318.440739 -133.031733 
L 318.484595 -131.013409 
L 318.519045 -128.995086 
L 318.552609 -126.976762 
L 318.593286 -124.958438 
L 318.648075 -122.940114 
L 318.722518 -120.921791 
L 318.820316 -118.903467 
L 318.943023 -116.885143 
L 319.089859 -114.866819 
L 319.25763 -112.848496 
L 319.440779 -110.830172 
L 319.631563 -108.811848 
L 319.820342 -106.793524 
L 319.995962 -104.775201 
L 320.146224 -102.756877 
L 320.258397 -100.738553 
L 320.319766 -98.720229 
L 320.31817 -96.701905 
L 320.242515 -94.683582 
L 320.083236 -92.665258 
L 319.832686 -90.646934 
L 319.485439 -88.62861 
L 319.038491 -86.610287 
L 318.491363 -84.591963 
L 317.8461 -82.573639 
L 317.107174 -80.555315 
L 316.281298 -78.536992 
L 315.377166 -76.518668 
L 314.405134 -74.500344 
L 313.376862 -72.48202 
L 312.30492 -70.463697 
L 311.202402 -68.445373 
L 310.082533 -66.427049 
L 308.958307 -64.408725 
L 307.842155 -62.390402 
L 306.74566 -60.372078 
L 305.679314 -58.353754 
L 304.652343 -56.33543 
L 303.672574 -54.317106 
L 302.746361 -52.298783 
L 301.87857 -50.280459 
L 301.0726 -48.262135 
L 300.330452 -46.243811 
L 299.652833 -44.225488 
L 299.039279 -42.207164 
L 298.488305 -40.18884 
L 297.997566 -38.170516 
L 297.564019 -36.152193 
L 297.184085 -34.133869 
L 296.853806 -32.115545 
L 296.568991 -30.097221 
L 296.325341 -28.078898 
L 296.11857 -26.060574 
z
" id="me56a8985e7" style="stroke:#6b6b6b;stroke-width:1.5;"/>
    </defs>
    <g clip-path="url(#p3c527962cb)">
     <use style="fill:#b2b2b2;stroke:#6b6b6b;stroke-width:1.5;" x="0" xlink:href="#me56a8985e7" y="432"/>
    </g>
   </g>
   <g id="PolyCollection_4">
    <defs>
     <path d="M 385.639284 6.983852 
L 383.320716 6.983852 
L 383.033022 4.258764 
L 382.690134 1.533677 
L 382.285732 -1.191411 
L 381.813784 -3.916499 
L 381.268812 -6.641587 
L 380.646185 -9.366675 
L 379.942424 -12.091763 
L 379.155497 -14.816851 
L 378.285106 -17.541939 
L 377.332923 -20.267027 
L 376.302779 -22.992115 
L 375.200777 -25.717203 
L 374.035317 -28.442291 
L 372.817032 -31.167379 
L 371.558614 -33.892466 
L 370.274548 -36.617554 
L 368.980753 -39.342642 
L 367.69414 -42.06773 
L 366.432118 -44.792818 
L 365.212052 -47.517906 
L 364.050724 -50.242994 
L 362.963796 -52.968082 
L 361.965322 -55.69317 
L 361.067333 -58.418258 
L 360.279497 -61.143346 
L 359.608893 -63.868434 
L 359.059902 -66.593522 
L 358.634205 -69.31861 
L 358.330915 -72.043697 
L 358.146804 -74.768785 
L 358.07663 -77.493873 
L 358.113537 -80.218961 
L 358.249507 -82.944049 
L 358.475833 -85.669137 
L 358.783593 -88.394225 
L 359.164083 -91.119313 
L 359.609203 -93.844401 
L 360.111752 -96.569489 
L 360.665634 -99.294577 
L 361.265952 -102.019665 
L 361.908989 -104.744753 
L 362.592084 -107.469841 
L 363.313416 -110.194928 
L 364.071709 -112.920016 
L 364.865893 -115.645104 
L 365.69474 -118.370192 
L 366.556509 -121.09528 
L 367.44864 -123.820368 
L 368.367501 -126.545456 
L 369.308228 -129.270544 
L 370.26466 -131.995632 
L 371.229384 -134.72072 
L 372.193872 -137.445808 
L 373.148718 -140.170896 
L 374.083942 -142.895984 
L 374.989346 -145.621072 
L 375.854907 -148.346159 
L 376.671158 -151.071247 
L 377.429563 -153.796335 
L 378.122845 -156.521423 
L 378.745257 -159.246511 
L 379.292784 -161.971599 
L 379.763279 -164.696687 
L 380.156508 -167.421775 
L 380.474134 -170.146863 
L 380.71962 -172.871951 
L 380.898081 -175.597039 
L 381.016073 -178.322127 
L 381.081341 -181.047215 
L 381.102544 -183.772303 
L 381.08894 -186.49739 
L 381.050077 -189.222478 
L 380.995473 -191.947566 
L 380.93431 -194.672654 
L 380.875149 -197.397742 
L 380.825675 -200.12283 
L 380.792483 -202.847918 
L 380.780912 -205.573006 
L 380.794932 -208.298094 
L 380.837095 -211.023182 
L 380.908536 -213.74827 
L 381.009045 -216.473358 
L 381.137176 -219.198446 
L 381.290419 -221.923534 
L 381.465389 -224.648621 
L 381.658056 -227.373709 
L 381.863974 -230.098797 
L 382.078508 -232.823885 
L 382.297058 -235.548973 
L 382.515245 -238.274061 
L 382.729077 -240.999149 
L 382.93507 -243.724237 
L 383.130332 -246.449325 
L 383.312609 -249.174413 
L 383.480291 -251.899501 
L 383.63239 -254.624589 
L 383.76849 -257.349677 
L 383.888673 -260.074764 
L 383.993441 -262.799852 
L 384.966559 -262.799852 
L 384.966559 -262.799852 
L 385.071327 -260.074764 
L 385.19151 -257.349677 
L 385.32761 -254.624589 
L 385.479709 -251.899501 
L 385.647391 -249.174413 
L 385.829668 -246.449325 
L 386.02493 -243.724237 
L 386.230923 -240.999149 
L 386.444755 -238.274061 
L 386.662942 -235.548973 
L 386.881492 -232.823885 
L 387.096026 -230.098797 
L 387.301944 -227.373709 
L 387.494611 -224.648621 
L 387.669581 -221.923534 
L 387.822824 -219.198446 
L 387.950955 -216.473358 
L 388.051464 -213.74827 
L 388.122905 -211.023182 
L 388.165068 -208.298094 
L 388.179088 -205.573006 
L 388.167517 -202.847918 
L 388.134325 -200.12283 
L 388.084851 -197.397742 
L 388.02569 -194.672654 
L 387.964527 -191.947566 
L 387.909923 -189.222478 
L 387.87106 -186.49739 
L 387.857456 -183.772303 
L 387.878659 -181.047215 
L 387.943927 -178.322127 
L 388.061919 -175.597039 
L 388.24038 -172.871951 
L 388.485866 -170.146863 
L 388.803492 -167.421775 
L 389.196721 -164.696687 
L 389.667216 -161.971599 
L 390.214743 -159.246511 
L 390.837155 -156.521423 
L 391.530437 -153.796335 
L 392.288842 -151.071247 
L 393.105093 -148.346159 
L 393.970654 -145.621072 
L 394.876058 -142.895984 
L 395.811282 -140.170896 
L 396.766128 -137.445808 
L 397.730616 -134.72072 
L 398.69534 -131.995632 
L 399.651772 -129.270544 
L 400.592499 -126.545456 
L 401.51136 -123.820368 
L 402.403491 -121.09528 
L 403.26526 -118.370192 
L 404.094107 -115.645104 
L 404.888291 -112.920016 
L 405.646584 -110.194928 
L 406.367916 -107.469841 
L 407.051011 -104.744753 
L 407.694048 -102.019665 
L 408.294366 -99.294577 
L 408.848248 -96.569489 
L 409.350797 -93.844401 
L 409.795917 -91.119313 
L 410.176407 -88.394225 
L 410.484167 -85.669137 
L 410.710493 -82.944049 
L 410.846463 -80.218961 
L 410.88337 -77.493873 
L 410.813196 -74.768785 
L 410.629085 -72.043697 
L 410.325795 -69.31861 
L 409.900098 -66.593522 
L 409.351107 -63.868434 
L 408.680503 -61.143346 
L 407.892667 -58.418258 
L 406.994678 -55.69317 
L 405.996204 -52.968082 
L 404.909276 -50.242994 
L 403.747948 -47.517906 
L 402.527882 -44.792818 
L 401.26586 -42.06773 
L 399.979247 -39.342642 
L 398.685452 -36.617554 
L 397.401386 -33.892466 
L 396.142968 -31.167379 
L 394.924683 -28.442291 
L 393.759223 -25.717203 
L 392.657221 -22.992115 
L 391.627077 -20.267027 
L 390.674894 -17.541939 
L 389.804503 -14.816851 
L 389.017576 -12.091763 
L 388.313815 -9.366675 
L 387.691188 -6.641587 
L 387.146216 -3.916499 
L 386.674268 -1.191411 
L 386.269866 1.533677 
L 385.926978 4.258764 
L 385.639284 6.983852 
z
" id="mc39d4ab351" style="stroke:#6b6b6b;stroke-width:1.5;"/>
    </defs>
    <g clip-path="url(#p3c527962cb)">
     <use style="fill:#b2b2b2;stroke:#6b6b6b;stroke-width:1.5;" x="0" xlink:href="#mc39d4ab351" y="432"/>
    </g>
   </g>
   <g id="PolyCollection_5">
    <defs>
     <path d="M 474.820557 16.035058 
L 472.699443 16.035058 
L 472.464839 12.897517 
L 472.19115 9.759977 
L 471.874884 6.622436 
L 471.512873 3.484896 
L 471.102418 0.347355 
L 470.641431 -2.790185 
L 470.128576 -5.927726 
L 469.563396 -9.065267 
L 468.946416 -12.202807 
L 468.279222 -15.340348 
L 467.564505 -18.477888 
L 466.806067 -21.615429 
L 466.008795 -24.752969 
L 465.178589 -27.89051 
L 464.322255 -31.028051 
L 463.447381 -34.165591 
L 462.562171 -37.303132 
L 461.675279 -40.440672 
L 460.795632 -43.578213 
L 459.932252 -46.715753 
L 459.094088 -49.853294 
L 458.289862 -52.990834 
L 457.527926 -56.128375 
L 456.816141 -59.265916 
L 456.161766 -62.403456 
L 455.571355 -65.540997 
L 455.050674 -68.678537 
L 454.604603 -71.816078 
L 454.237061 -74.953618 
L 453.950911 -78.091159 
L 453.747883 -81.2287 
L 453.628497 -84.36624 
L 453.591997 -87.503781 
L 453.636319 -90.641321 
L 453.758075 -93.778862 
L 453.952589 -96.916402 
L 454.213978 -100.053943 
L 454.535284 -103.191484 
L 454.908663 -106.329024 
L 455.325618 -109.466565 
L 455.77728 -112.604105 
L 456.254716 -115.741646 
L 456.74924 -118.879186 
L 457.252728 -122.016727 
L 457.757902 -125.154267 
L 458.258562 -128.291808 
L 458.749769 -131.429349 
L 459.227937 -134.566889 
L 459.690863 -137.70443 
L 460.137664 -140.84197 
L 460.56864 -143.979511 
L 460.985079 -147.117051 
L 461.389003 -150.254592 
L 461.7829 -153.392133 
L 462.16943 -156.529673 
L 462.55116 -159.667214 
L 462.930318 -162.804754 
L 463.308606 -165.942295 
L 463.687062 -169.079835 
L 464.065999 -172.217376 
L 464.445001 -175.354916 
L 464.822993 -178.492457 
L 465.198351 -181.629998 
L 465.569069 -184.767538 
L 465.932939 -187.905079 
L 466.287747 -191.042619 
L 466.63146 -194.18016 
L 466.962389 -197.3177 
L 467.279324 -200.455241 
L 467.581617 -203.592782 
L 467.869223 -206.730322 
L 468.14269 -209.867863 
L 468.403105 -213.005403 
L 468.651996 -216.142944 
L 468.89121 -219.280484 
L 469.122768 -222.418025 
L 469.348717 -225.555566 
L 469.570979 -228.693106 
L 469.791229 -231.830647 
L 470.010783 -234.968187 
L 470.230526 -238.105728 
L 470.450871 -241.243268 
L 470.67175 -244.380809 
L 470.892639 -247.518349 
L 471.112616 -250.65589 
L 471.330435 -253.793431 
L 471.544618 -256.930971 
L 471.753552 -260.068512 
L 471.955596 -263.206052 
L 472.149163 -266.343593 
L 472.332815 -269.481133 
L 472.50532 -272.618674 
L 472.665704 -275.756215 
L 472.81328 -278.893755 
L 472.94766 -282.031296 
L 473.068749 -285.168836 
L 473.176721 -288.306377 
L 473.271995 -291.443917 
L 473.355191 -294.581458 
L 474.164809 -294.581458 
L 474.164809 -294.581458 
L 474.248005 -291.443917 
L 474.343279 -288.306377 
L 474.451251 -285.168836 
L 474.57234 -282.031296 
L 474.70672 -278.893755 
L 474.854296 -275.756215 
L 475.01468 -272.618674 
L 475.187185 -269.481133 
L 475.370837 -266.343593 
L 475.564404 -263.206052 
L 475.766448 -260.068512 
L 475.975382 -256.930971 
L 476.189565 -253.793431 
L 476.407384 -250.65589 
L 476.627361 -247.518349 
L 476.84825 -244.380809 
L 477.069129 -241.243268 
L 477.289474 -238.105728 
L 477.509217 -234.968187 
L 477.728771 -231.830647 
L 477.949021 -228.693106 
L 478.171283 -225.555566 
L 478.397232 -222.418025 
L 478.62879 -219.280484 
L 478.868004 -216.142944 
L 479.116895 -213.005403 
L 479.37731 -209.867863 
L 479.650777 -206.730322 
L 479.938383 -203.592782 
L 480.240676 -200.455241 
L 480.557611 -197.3177 
L 480.88854 -194.18016 
L 481.232253 -191.042619 
L 481.587061 -187.905079 
L 481.950931 -184.767538 
L 482.321649 -181.629998 
L 482.697007 -178.492457 
L 483.074999 -175.354916 
L 483.454001 -172.217376 
L 483.832938 -169.079835 
L 484.211394 -165.942295 
L 484.589682 -162.804754 
L 484.96884 -159.667214 
L 485.35057 -156.529673 
L 485.7371 -153.392133 
L 486.130997 -150.254592 
L 486.534921 -147.117051 
L 486.95136 -143.979511 
L 487.382336 -140.84197 
L 487.829137 -137.70443 
L 488.292063 -134.566889 
L 488.770231 -131.429349 
L 489.261438 -128.291808 
L 489.762098 -125.154267 
L 490.267272 -122.016727 
L 490.77076 -118.879186 
L 491.265284 -115.741646 
L 491.74272 -112.604105 
L 492.194382 -109.466565 
L 492.611337 -106.329024 
L 492.984716 -103.191484 
L 493.306022 -100.053943 
L 493.567411 -96.916402 
L 493.761925 -93.778862 
L 493.883681 -90.641321 
L 493.928003 -87.503781 
L 493.891503 -84.36624 
L 493.772117 -81.2287 
L 493.569089 -78.091159 
L 493.282939 -74.953618 
L 492.915397 -71.816078 
L 492.469326 -68.678537 
L 491.948645 -65.540997 
L 491.358234 -62.403456 
L 490.703859 -59.265916 
L 489.992074 -56.128375 
L 489.230138 -52.990834 
L 488.425912 -49.853294 
L 487.587748 -46.715753 
L 486.724368 -43.578213 
L 485.844721 -40.440672 
L 484.957829 -37.303132 
L 484.072619 -34.165591 
L 483.197745 -31.028051 
L 482.341411 -27.89051 
L 481.511205 -24.752969 
L 480.713933 -21.615429 
L 479.955495 -18.477888 
L 479.240778 -15.340348 
L 478.573584 -12.202807 
L 477.956604 -9.065267 
L 477.391424 -5.927726 
L 476.878569 -2.790185 
L 476.417582 0.347355 
L 476.007127 3.484896 
L 475.645116 6.622436 
L 475.32885 9.759977 
L 475.055161 12.897517 
L 474.820557 16.035058 
z
" id="md4aa134024" style="stroke:#6b6b6b;stroke-width:1.5;"/>
    </defs>
    <g clip-path="url(#p3c527962cb)">
     <use style="fill:#b2b2b2;stroke:#6b6b6b;stroke-width:1.5;" x="0" xlink:href="#md4aa134024" y="432"/>
    </g>
   </g>
   <g id="matplotlib.axis_1">
    <g id="xtick_1">
     <g id="line2d_1">
      <defs>
       <path d="M 0 0 
L 0 3.5 
" id="m2d4415e973" style="stroke:#000000;stroke-width:0.8;"/>
      </defs>
      <g>
       <use style="stroke:#000000;stroke-width:0.8;" x="116.64" xlink:href="#m2d4415e973" y="384.48"/>
      </g>
     </g>
     <g id="text_1">
      <!-- 渋谷かのん -->
      <g transform="translate(91.64 398.970625)scale(0.1 -0.1)">
       <defs>
        <path d="M 4147 4263 
L 5631 4263 
L 5631 3866 
L 4147 3866 
L 4147 2994 
L 6078 2994 
L 6078 2597 
L 1756 2597 
L 1756 2994 
L 2484 2994 
L 2484 4603 
L 2925 4603 
L 2925 2994 
L 3694 2994 
L 3694 5216 
L 4147 5216 
L 4147 4263 
z
M 1453 3878 
Q 1084 4341 556 4763 
L 859 5100 
Q 1391 4706 1772 4250 
L 1453 3878 
z
M 1294 2375 
Q 872 2891 384 3256 
L 678 3591 
Q 1128 3275 1613 2753 
L 1294 2375 
z
M 378 -78 
Q 941 822 1306 1906 
L 1678 1619 
Q 1328 550 756 -428 
L 378 -78 
z
M 3278 1222 
Q 2566 1750 2028 2009 
L 2344 2344 
Q 2956 2038 3578 1563 
L 3278 1222 
z
M 3931 1606 
Q 4750 1988 5338 2444 
L 5691 2119 
Q 5081 1678 4219 1259 
L 3931 1606 
z
M 5678 -366 
Q 4900 278 4000 763 
L 4294 1088 
Q 5159 675 6041 31 
L 5678 -366 
z
M 1653 -13 
Q 2600 444 3372 1025 
L 3553 628 
Q 2669 -53 1941 -447 
L 1653 -13 
z
" id="IPAexGothic-6e0b" transform="scale(0.015625)"/>
        <path d="M 1859 -97 
L 1859 -450 
L 1384 -450 
L 1384 1797 
Q 1097 1603 641 1356 
L 328 1741 
Q 2000 2519 2900 4063 
L 3431 4063 
Q 4425 2641 6113 1925 
L 5819 1497 
Q 5375 1725 5019 1947 
L 5019 -450 
L 4544 -450 
L 4544 -97 
L 1859 -97 
z
M 1678 2003 
L 4928 2003 
Q 3928 2675 3175 3634 
Q 2553 2656 1678 2003 
z
M 4544 1606 
L 1859 1606 
L 1859 300 
L 4544 300 
L 4544 1606 
z
M 622 3684 
Q 1456 4175 2100 5069 
L 2509 4838 
Q 1841 3897 1000 3334 
L 622 3684 
z
M 5325 3438 
Q 4647 4172 3766 4872 
L 4109 5147 
Q 4928 4531 5678 3781 
L 5325 3438 
z
" id="IPAexGothic-8c37" transform="scale(0.015625)"/>
        <path d="M 659 3384 
Q 1434 3503 2113 3581 
Q 2313 4341 2394 4972 
L 2900 4875 
Q 2759 4147 2619 3628 
L 2719 3634 
Q 2894 3641 3041 3641 
Q 4072 3641 4072 2369 
Q 4072 1128 3700 384 
Q 3478 -56 3003 -56 
Q 2591 -56 2113 231 
L 2138 775 
Q 2631 444 2925 444 
Q 3169 444 3297 706 
Q 3566 1294 3566 2388 
Q 3566 3219 3016 3219 
Q 2825 3219 2497 3194 
Q 2388 2763 2113 2047 
Q 1634 797 1119 -38 
L 678 244 
Q 1356 1238 1863 2750 
Q 1888 2819 1991 3128 
Q 1594 3081 769 2916 
L 659 3384 
z
M 5644 1753 
Q 5072 3025 4238 3916 
L 4641 4184 
Q 5494 3275 6081 2094 
L 5644 1753 
z
" id="IPAexGothic-304b" transform="scale(0.015625)"/>
        <path d="M 3119 469 
Q 5275 766 5275 2425 
Q 5275 3453 4413 3925 
Q 4041 4116 3547 4159 
Q 3394 2525 2850 1400 
Q 2322 306 1722 306 
Q 1384 306 1084 666 
Q 609 1244 609 2003 
Q 609 3025 1397 3794 
Q 2184 4563 3431 4563 
Q 4306 4563 4928 4122 
Q 5813 3506 5813 2425 
Q 5813 438 3431 6 
L 3119 469 
z
M 3053 4147 
Q 2378 4044 1891 3641 
Q 1097 2981 1097 1991 
Q 1097 1366 1434 978 
Q 1581 813 1719 813 
Q 2022 813 2416 1625 
Q 2909 2638 3053 4147 
z
" id="IPAexGothic-306e" transform="scale(0.015625)"/>
        <path d="M 659 31 
Q 1684 2316 3066 4934 
L 3559 4703 
Q 2781 3375 2156 2100 
Q 2659 2572 3109 2572 
Q 3619 2572 3781 2059 
Q 3863 1803 3872 1147 
Q 3881 328 4313 328 
Q 4928 328 5466 1663 
L 5875 1288 
Q 5175 -178 4300 -178 
Q 3400 -178 3400 1069 
L 3400 1119 
Q 3400 2125 3003 2125 
Q 2153 2125 1128 -178 
L 659 31 
z
" id="IPAexGothic-3093" transform="scale(0.015625)"/>
       </defs>
       <use xlink:href="#IPAexGothic-6e0b"/>
       <use x="100" xlink:href="#IPAexGothic-8c37"/>
       <use x="200" xlink:href="#IPAexGothic-304b"/>
       <use x="300" xlink:href="#IPAexGothic-306e"/>
       <use x="400" xlink:href="#IPAexGothic-3093"/>
      </g>
     </g>
    </g>
    <g id="xtick_2">
     <g id="line2d_2">
      <g>
       <use style="stroke:#000000;stroke-width:0.8;" x="205.92" xlink:href="#m2d4415e973" y="384.48"/>
      </g>
     </g>
     <g id="text_2">
      <!-- 唐可可 -->
      <g transform="translate(190.92 398.970625)scale(0.1 -0.1)">
       <defs>
        <path d="M 3597 3788 
L 5128 3788 
L 5128 2981 
L 6025 2981 
L 6025 2609 
L 5128 2609 
L 5128 1772 
L 1747 1772 
L 1747 2125 
L 3169 2125 
L 3169 2616 
L 1263 2616 
Q 1263 1575 1184 972 
Q 1078 175 688 -450 
L 316 -91 
Q 694 481 769 1325 
Q 822 1856 822 2781 
L 822 4628 
L 3034 4628 
L 3034 5313 
L 3509 5313 
L 3509 4628 
L 5794 4628 
L 5794 4244 
L 3597 4244 
L 3597 3788 
z
M 3169 2975 
L 3169 3434 
L 1747 3434 
L 1747 3788 
L 3169 3788 
L 3169 4244 
L 1263 4244 
L 1263 2975 
L 3169 2975 
z
M 3597 2975 
L 4700 2975 
L 4700 3434 
L 3597 3434 
L 3597 2975 
z
M 3597 2125 
L 4700 2125 
L 4700 2616 
L 3597 2616 
L 3597 2125 
z
M 5328 1338 
L 5328 -447 
L 4881 -447 
L 4881 -184 
L 2300 -184 
L 2300 -447 
L 1853 -447 
L 1853 1338 
L 5328 1338 
z
M 2300 978 
L 2300 181 
L 4881 181 
L 4881 978 
L 2300 978 
z
" id="IPAexGothic-5510" transform="scale(0.015625)"/>
        <path d="M 5100 4313 
L 5100 288 
Q 5100 -63 4913 -200 
Q 4756 -322 4313 -322 
Q 3859 -322 3313 -263 
L 3231 263 
Q 3869 178 4294 178 
Q 4525 178 4575 275 
Q 4613 341 4613 497 
L 4613 4313 
L 416 4313 
L 416 4728 
L 5972 4728 
L 5972 4313 
L 5100 4313 
z
M 3666 3406 
L 3666 1259 
L 1713 1259 
L 1713 741 
L 1259 741 
L 1259 3406 
L 3666 3406 
z
M 1713 3003 
L 1713 1669 
L 3213 1669 
L 3213 3003 
L 1713 3003 
z
" id="IPAexGothic-53ef" transform="scale(0.015625)"/>
       </defs>
       <use xlink:href="#IPAexGothic-5510"/>
       <use x="100" xlink:href="#IPAexGothic-53ef"/>
       <use x="200" xlink:href="#IPAexGothic-53ef"/>
      </g>
     </g>
    </g>
    <g id="xtick_3">
     <g id="line2d_3">
      <g>
       <use style="stroke:#000000;stroke-width:0.8;" x="295.2" xlink:href="#m2d4415e973" y="384.48"/>
      </g>
     </g>
     <g id="text_3">
      <!-- 嵐千沙都 -->
      <g transform="translate(275.2 398.970625)scale(0.1 -0.1)">
       <defs>
        <path d="M 4206 353 
Q 4084 525 3938 703 
L 4288 856 
Q 4728 338 5044 -206 
L 4659 -397 
Q 4519 -131 4403 50 
Q 3091 -159 1516 -244 
L 1369 178 
Q 2456 209 2919 244 
L 2919 941 
L 2156 941 
L 2156 641 
L 1759 641 
L 1759 2150 
L 2919 2150 
L 2919 2584 
Q 2228 2531 1791 2516 
L 1606 2847 
Q 3294 2922 4275 3128 
L 4544 2803 
Q 3984 2684 3316 2622 
L 3316 2150 
L 4494 2150 
L 4494 941 
L 3316 941 
L 3316 269 
Q 3338 272 3450 281 
Q 3575 291 3675 300 
L 4206 353 
z
M 2156 1825 
L 2156 1266 
L 2919 1266 
L 2919 1825 
L 2156 1825 
z
M 4091 1266 
L 4091 1825 
L 3316 1825 
L 3316 1266 
L 4091 1266 
z
M 3341 4384 
L 4922 4384 
L 4922 5081 
L 5369 5081 
L 5369 4000 
L 903 4000 
L 903 5081 
L 1350 5081 
L 1350 4384 
L 2894 4384 
L 2894 5313 
L 3341 5313 
L 3341 4384 
z
M 5203 3647 
L 5203 2738 
Q 5203 1184 5491 466 
Q 5619 166 5656 166 
Q 5738 166 5766 1144 
L 6156 778 
Q 6091 -488 5747 -488 
Q 5381 -488 5075 344 
Q 4763 1178 4763 2725 
L 4763 3288 
L 1413 3288 
L 1413 2072 
Q 1413 1150 1228 516 
Q 1056 -50 634 -541 
L 281 -188 
Q 972 531 972 1994 
L 972 3647 
L 5203 3647 
z
" id="IPAexGothic-5d50" transform="scale(0.015625)"/>
        <path d="M 2925 2694 
L 2925 4159 
Q 1706 4019 947 3975 
L 769 4397 
Q 3213 4538 4884 4997 
L 5275 4569 
Q 4534 4388 3509 4244 
L 3438 4228 
L 3438 2694 
L 5916 2694 
L 5916 2253 
L 3438 2253 
L 3438 -447 
L 2925 -447 
L 2925 2253 
L 481 2253 
L 481 2694 
L 2925 2694 
z
" id="IPAexGothic-5343" transform="scale(0.015625)"/>
        <path d="M 1716 3744 
Q 1288 4269 731 4684 
L 1056 5031 
Q 1603 4647 2053 4128 
L 1716 3744 
z
M 1484 2278 
Q 1050 2769 469 3194 
L 788 3541 
Q 1325 3184 1819 2663 
L 1484 2278 
z
M 391 19 
Q 1116 856 1691 1978 
L 2028 1650 
Q 1491 519 756 -384 
L 391 19 
z
M 3747 5300 
L 4200 5300 
L 4200 1722 
Q 4200 1275 3709 1275 
Q 3525 1275 2959 1325 
L 2875 1819 
Q 3238 1734 3581 1734 
Q 3747 1734 3747 1913 
L 3747 5300 
z
M 5631 2234 
Q 5047 3434 4500 4153 
L 4878 4359 
Q 5541 3550 6069 2541 
L 5631 2234 
z
M 2034 2259 
Q 2606 3069 2869 4225 
L 3309 4122 
Q 3034 2800 2400 1894 
L 2034 2259 
z
M 2094 44 
Q 3447 322 4172 934 
Q 4772 1444 5159 2322 
L 5556 2059 
Q 5022 888 4025 250 
Q 3384 -163 2419 -403 
L 2094 44 
z
" id="IPAexGothic-6c99" transform="scale(0.015625)"/>
        <path d="M 2956 4238 
Q 3153 4631 3300 5031 
L 3703 4878 
Q 3338 4041 2891 3384 
L 3709 3384 
L 3709 3000 
L 2597 3000 
L 2566 2963 
Q 2325 2678 1956 2328 
L 3384 2328 
L 3384 -422 
L 2969 -422 
L 2969 -147 
L 1541 -147 
L 1541 -459 
L 1125 -459 
L 1125 1638 
Q 919 1488 459 1191 
L 197 1528 
Q 1159 2063 2041 2963 
L 350 2963 
L 350 3347 
L 1656 3347 
L 1656 4116 
L 703 4116 
L 703 4488 
L 1688 4488 
L 1688 5313 
L 2109 5313 
L 2109 4488 
L 2956 4488 
L 2956 4238 
z
M 2897 4116 
L 2072 4116 
L 2072 3347 
L 2372 3347 
Q 2656 3722 2878 4091 
L 2897 4116 
z
M 1541 1956 
L 1541 1306 
L 2969 1306 
L 2969 1956 
L 1541 1956 
z
M 1541 941 
L 1541 225 
L 2969 225 
L 2969 941 
L 1541 941 
z
M 5288 2828 
Q 6041 2053 6041 1191 
Q 6041 422 5419 422 
Q 5081 422 4781 459 
L 4703 928 
Q 5034 856 5297 856 
Q 5513 856 5553 1003 
Q 5572 1081 5572 1216 
Q 5572 2028 4794 2791 
Q 5178 3569 5388 4428 
L 4403 4428 
L 4403 -450 
L 3963 -450 
L 3963 4831 
L 5697 4831 
L 5931 4613 
Q 5603 3509 5288 2828 
z
" id="IPAexGothic-90fd" transform="scale(0.015625)"/>
       </defs>
       <use xlink:href="#IPAexGothic-5d50"/>
       <use x="100" xlink:href="#IPAexGothic-5343"/>
       <use x="200" xlink:href="#IPAexGothic-6c99"/>
       <use x="300" xlink:href="#IPAexGothic-90fd"/>
      </g>
     </g>
    </g>
    <g id="xtick_4">
     <g id="line2d_4">
      <g>
       <use style="stroke:#000000;stroke-width:0.8;" x="384.48" xlink:href="#m2d4415e973" y="384.48"/>
      </g>
     </g>
     <g id="text_4">
      <!-- 葉月恋 -->
      <g transform="translate(369.48 398.970625)scale(0.1 -0.1)">
       <defs>
        <path d="M 3838 991 
Q 4731 425 6113 147 
L 5822 -275 
Q 4234 138 3397 888 
L 3397 -450 
L 2956 -450 
L 2956 850 
Q 2109 41 541 -403 
L 275 -22 
Q 1700 303 2578 991 
L 381 991 
L 381 1363 
L 2956 1363 
L 2956 1803 
L 1406 1803 
L 1406 3147 
L 325 3147 
L 325 3519 
L 1406 3519 
L 1406 3934 
L 1834 3934 
L 1834 3519 
L 2906 3519 
L 2906 4006 
L 3319 4006 
L 3319 3519 
L 4550 3519 
L 4550 4006 
L 4978 4006 
L 4978 3519 
L 6084 3519 
L 6084 3147 
L 4978 3147 
L 4978 2425 
L 2906 2425 
L 2906 3147 
L 1834 3147 
L 1834 2163 
L 5553 2163 
L 5553 1803 
L 3397 1803 
L 3397 1363 
L 6016 1363 
L 6016 991 
L 3838 991 
z
M 4550 3153 
L 3319 3153 
L 3319 2778 
L 4550 2778 
L 4550 3153 
z
M 1984 4769 
L 1984 5313 
L 2438 5313 
L 2438 4769 
L 3916 4769 
L 3916 5313 
L 4372 5313 
L 4372 4769 
L 6003 4769 
L 6003 4397 
L 4372 4397 
L 4372 3981 
L 3916 3981 
L 3916 4397 
L 2438 4397 
L 2438 3981 
L 1984 3981 
L 1984 4397 
L 409 4397 
L 409 4769 
L 1984 4769 
z
" id="IPAexGothic-8449" transform="scale(0.015625)"/>
        <path d="M 5044 4984 
L 5044 256 
Q 5044 -78 4869 -203 
Q 4734 -300 4403 -300 
Q 3894 -300 3253 -247 
L 3169 244 
Q 3750 159 4294 159 
Q 4503 159 4547 263 
Q 4569 313 4569 438 
L 4569 1672 
L 1953 1672 
Q 1906 956 1716 475 
Q 1538 6 1116 -472 
L 744 -63 
Q 1259 475 1403 1244 
Q 1500 1772 1500 2650 
L 1500 4984 
L 5044 4984 
z
M 1981 4569 
L 1981 3541 
L 4569 3541 
L 4569 4569 
L 1981 4569 
z
M 1981 3144 
L 1981 2556 
Q 1981 2288 1975 2147 
L 1975 2069 
L 4569 2069 
L 4569 3144 
L 1981 3144 
z
" id="IPAexGothic-6708" transform="scale(0.015625)"/>
        <path d="M 3413 4609 
L 5922 4609 
L 5922 4200 
L 4066 4200 
L 4066 2497 
Q 4066 2044 3547 2044 
Q 3341 2044 2981 2081 
L 2881 2556 
Q 3181 2519 3381 2519 
Q 3606 2519 3606 2691 
L 3606 4200 
L 2828 4200 
Q 2819 3228 2644 2831 
Q 2366 2206 1644 1850 
L 1294 2197 
Q 2025 2500 2247 3138 
Q 2363 3475 2363 4200 
L 481 4200 
L 481 4609 
L 2938 4609 
L 2938 5313 
L 3413 5313 
L 3413 4609 
z
M 5509 2316 
Q 4909 3150 4372 3622 
L 4728 3897 
Q 5372 3344 5925 2631 
L 5509 2316 
z
M 441 72 
Q 922 638 1141 1556 
L 1556 1409 
Q 1334 394 850 -191 
L 441 72 
z
M 2009 1741 
L 2478 1741 
L 2478 325 
Q 2478 166 2606 134 
Q 2769 103 3309 103 
Q 4197 103 4297 231 
Q 4356 322 4384 750 
L 4391 838 
L 4841 703 
Q 4772 53 4672 -88 
Q 4569 -231 4328 -281 
Q 4028 -331 3375 -331 
Q 2441 -331 2234 -241 
Q 2009 -134 2009 191 
L 2009 1741 
z
M 397 2597 
Q 1100 3128 1453 3872 
L 1844 3669 
Q 1413 2778 738 2253 
L 397 2597 
z
M 3559 628 
Q 3194 1231 2809 1625 
L 3181 1819 
Q 3531 1497 3950 884 
L 3559 628 
z
M 5600 -13 
Q 5134 906 4563 1516 
L 4928 1734 
Q 5475 1188 6022 275 
L 5600 -13 
z
" id="IPAexGothic-604b" transform="scale(0.015625)"/>
       </defs>
       <use xlink:href="#IPAexGothic-8449"/>
       <use x="100" xlink:href="#IPAexGothic-6708"/>
       <use x="200" xlink:href="#IPAexGothic-604b"/>
      </g>
     </g>
    </g>
    <g id="xtick_5">
     <g id="line2d_5">
      <g>
       <use style="stroke:#000000;stroke-width:0.8;" x="473.76" xlink:href="#m2d4415e973" y="384.48"/>
      </g>
     </g>
     <g id="text_5">
      <!-- 平安名すみれ -->
      <g transform="translate(443.76 398.970625)scale(0.1 -0.1)">
       <defs>
        <path d="M 3422 4428 
L 3422 1941 
L 6084 1941 
L 6084 1513 
L 3422 1513 
L 3422 -447 
L 2934 -447 
L 2934 1513 
L 322 1513 
L 322 1941 
L 2934 1941 
L 2934 4428 
L 641 4428 
L 641 4856 
L 5763 4856 
L 5763 4428 
L 3422 4428 
z
M 1728 2278 
Q 1488 3094 1081 3859 
L 1544 4038 
Q 1875 3422 2222 2472 
L 1728 2278 
z
M 4134 2425 
Q 4509 3138 4813 4128 
L 5306 3944 
Q 4984 3006 4569 2228 
L 4134 2425 
z
" id="IPAexGothic-5e73" transform="scale(0.015625)"/>
        <path d="M 4728 2381 
Q 4484 1484 3969 872 
Q 5034 406 5778 31 
L 5394 -353 
Q 4466 163 3616 538 
Q 2703 -194 838 -403 
L 550 31 
Q 2269 166 3147 738 
Q 2625 963 1925 1216 
Q 1863 1119 1663 831 
L 1259 1050 
Q 1688 1653 2088 2381 
L 416 2381 
L 416 2784 
L 2284 2784 
Q 2559 3388 2713 3828 
L 3169 3706 
Q 2969 3178 2791 2784 
L 5984 2784 
L 5984 2381 
L 4728 2381 
z
M 4244 2381 
L 2597 2381 
Q 2459 2097 2206 1659 
L 2150 1563 
Q 2750 1359 3366 1113 
L 3525 1050 
Q 4019 1572 4244 2381 
z
M 3419 4428 
L 5753 4428 
L 5753 3159 
L 5278 3159 
L 5278 4025 
L 1116 4025 
L 1116 3159 
L 641 3159 
L 641 4428 
L 2931 4428 
L 2931 5313 
L 3419 5313 
L 3419 4428 
z
" id="IPAexGothic-5b89" transform="scale(0.015625)"/>
        <path d="M 2669 2094 
L 5563 2094 
L 5563 -434 
L 5088 -434 
L 5088 -122 
L 2459 -122 
L 2459 -447 
L 1984 -447 
L 1984 1716 
Q 1294 1366 716 1147 
L 397 1531 
Q 1775 1950 2844 2700 
Q 2400 3181 1978 3500 
Q 1509 3091 934 2784 
L 609 3122 
Q 2097 3881 2869 5297 
L 3322 5184 
Q 3263 5081 3028 4709 
L 4984 4709 
L 5253 4478 
Q 4072 2894 2669 2094 
z
M 2459 1697 
L 2459 269 
L 5088 269 
L 5088 1697 
L 2459 1697 
z
M 3213 2981 
Q 4069 3694 4531 4319 
L 2747 4319 
Q 2563 4088 2278 3781 
Q 2847 3366 3213 2981 
z
" id="IPAexGothic-540d" transform="scale(0.015625)"/>
        <path d="M 3322 5075 
L 3816 5075 
L 3816 4063 
Q 4131 4075 5756 4116 
L 5756 3669 
Q 5431 3672 3816 3653 
L 3816 2463 
Q 3956 2125 3956 1741 
Q 3956 922 3519 397 
Q 3128 -72 2309 -409 
L 1941 -31 
Q 3263 453 3488 1363 
Q 3250 1031 2809 1031 
Q 2441 1031 2150 1313 
Q 1875 1588 1875 2050 
Q 1875 2475 2166 2769 
Q 2431 3041 2822 3041 
Q 3088 3041 3322 2881 
L 3322 3641 
Q 3000 3634 609 3547 
L 609 3988 
Q 1197 4000 2106 4022 
Q 3066 4047 3322 4050 
L 3322 5075 
z
M 3372 2044 
Q 3372 2300 3194 2478 
Q 3050 2613 2869 2613 
Q 2622 2613 2463 2406 
Q 2344 2250 2344 2088 
Q 2344 1797 2484 1622 
Q 2625 1453 2859 1453 
Q 3372 1453 3372 2044 
z
" id="IPAexGothic-3059" transform="scale(0.015625)"/>
        <path d="M 1291 4416 
Q 2209 4456 3341 4647 
L 3666 4409 
Q 3478 3597 3134 2703 
Q 3959 2575 4581 2300 
Q 4669 2759 4678 3488 
L 5163 3381 
Q 5134 2672 5016 2106 
Q 5519 1856 6016 1519 
L 5722 1081 
Q 5184 1459 4888 1613 
Q 4572 441 3456 -238 
L 3072 109 
Q 4150 678 4472 1831 
Q 3706 2200 2969 2284 
Q 2038 200 1319 200 
Q 1013 200 775 525 
Q 569 819 569 1197 
Q 569 1756 1081 2172 
Q 1681 2647 2663 2716 
Q 2900 3313 3084 4159 
Q 2278 4022 1447 3956 
L 1291 4416 
z
M 2481 2291 
Q 1644 2206 1241 1734 
Q 1038 1494 1038 1178 
Q 1038 1019 1100 897 
Q 1188 706 1338 706 
Q 1513 706 1797 1097 
Q 2131 1534 2481 2291 
z
" id="IPAexGothic-307f" transform="scale(0.015625)"/>
        <path d="M 538 3694 
Q 1275 3791 1800 3903 
L 1838 5006 
L 2316 5006 
L 2253 4006 
L 2619 3675 
Q 2428 3425 2247 3144 
Q 2241 3084 2241 2869 
Q 3341 4031 4134 4031 
Q 4856 4031 4856 3309 
Q 4856 3047 4794 2491 
Q 4719 1747 4719 1044 
Q 4719 672 4922 672 
Q 5084 672 5263 788 
Q 5613 1034 5850 1491 
L 6131 1025 
Q 5856 641 5600 447 
Q 5238 166 4866 166 
Q 4244 166 4244 1100 
Q 4244 1519 4350 2956 
Q 4369 3181 4369 3238 
Q 4369 3434 4297 3513 
Q 4231 3584 4081 3584 
Q 3438 3584 2228 2291 
Q 2222 1931 2222 1478 
Q 2222 753 2241 -159 
L 1747 -159 
Q 1747 1241 1753 1734 
Q 1544 1466 928 647 
L 531 991 
Q 1603 2291 1772 2478 
Q 1772 3038 1791 3469 
Q 1128 3284 653 3194 
L 538 3694 
z
" id="IPAexGothic-308c" transform="scale(0.015625)"/>
       </defs>
       <use xlink:href="#IPAexGothic-5e73"/>
       <use x="100" xlink:href="#IPAexGothic-5b89"/>
       <use x="200" xlink:href="#IPAexGothic-540d"/>
       <use x="300" xlink:href="#IPAexGothic-3059"/>
       <use x="400" xlink:href="#IPAexGothic-307f"/>
       <use x="500" xlink:href="#IPAexGothic-308c"/>
      </g>
     </g>
    </g>
    <g id="text_6">
     <!-- キャラクター -->
     <g transform="translate(265.2 412.36125)scale(0.1 -0.1)">
      <defs>
       <path d="M 2919 5056 
L 3169 3834 
L 4916 4134 
L 5000 3688 
L 3253 3397 
L 3475 2284 
L 5634 2656 
L 5722 2194 
L 3566 1844 
L 3969 -147 
L 3475 -263 
L 3072 1759 
L 834 1388 
L 744 1856 
L 2984 2203 
L 2759 3322 
L 1019 3034 
L 941 3488 
L 2669 3750 
L 2428 4959 
L 2919 5056 
z
" id="IPAexGothic-30ad" transform="scale(0.015625)"/>
       <path d="M 2559 3903 
L 2803 2816 
L 4863 3169 
L 5191 2894 
Q 4672 1875 4103 1203 
L 3666 1447 
Q 4175 2013 4525 2688 
L 2900 2388 
L 3450 -116 
L 2969 -231 
L 2419 2297 
L 1172 2069 
L 1075 2516 
L 2328 2731 
L 2094 3809 
L 2559 3903 
z
" id="IPAexGothic-30e3" transform="scale(0.015625)"/>
       <path d="M 1447 4709 
L 4922 4709 
L 4922 4234 
L 1447 4234 
L 1447 4709 
z
M 897 3303 
L 5172 3303 
L 5478 3013 
Q 5069 1669 4219 875 
Q 3475 181 2306 -181 
L 1972 294 
Q 4150 784 4834 2828 
L 897 2828 
L 897 3303 
z
" id="IPAexGothic-30e9" transform="scale(0.015625)"/>
       <path d="M 4934 4191 
L 5272 3941 
Q 4894 2334 4031 1300 
Q 3275 391 2028 -225 
L 1656 184 
Q 2875 691 3641 1625 
Q 4403 2553 4691 3731 
L 2903 3731 
Q 2188 2653 1356 1959 
L 978 2309 
Q 2328 3400 2931 5022 
L 3422 4881 
Q 3363 4672 3141 4191 
L 4934 4191 
z
" id="IPAexGothic-30af" transform="scale(0.015625)"/>
       <path d="M 4978 4263 
L 5313 3988 
Q 4797 2431 4056 1459 
Q 3191 325 1822 -300 
L 1466 109 
Q 2131 381 2613 738 
Q 3053 1066 3531 1600 
Q 2919 2225 2144 2791 
Q 1603 2203 1172 1875 
L 825 2234 
Q 2316 3328 2866 5031 
L 3359 4897 
Q 3325 4775 3109 4263 
L 4978 4263 
z
M 2894 3816 
Q 2709 3522 2438 3169 
Q 3194 2616 3841 2003 
Q 4366 2806 4747 3816 
L 2894 3816 
z
" id="IPAexGothic-30bf" transform="scale(0.015625)"/>
       <path d="M 588 2688 
L 5809 2688 
L 5809 2175 
L 588 2175 
L 588 2688 
z
" id="IPAexGothic-30fc" transform="scale(0.015625)"/>
      </defs>
      <use xlink:href="#IPAexGothic-30ad"/>
      <use x="100" xlink:href="#IPAexGothic-30e3"/>
      <use x="200" xlink:href="#IPAexGothic-30e9"/>
      <use x="300" xlink:href="#IPAexGothic-30af"/>
      <use x="400" xlink:href="#IPAexGothic-30bf"/>
      <use x="500" xlink:href="#IPAexGothic-30fc"/>
     </g>
    </g>
   </g>
   <g id="matplotlib.axis_2">
    <g id="ytick_1">
     <g id="line2d_6">
      <defs>
       <path d="M 0 0 
L -3.5 0 
" id="mc14b25da35" style="stroke:#000000;stroke-width:0.8;"/>
      </defs>
      <g>
       <use style="stroke:#000000;stroke-width:0.8;" x="72" xlink:href="#mc14b25da35" y="384.48"/>
      </g>
     </g>
     <g id="text_7">
      <!-- 0 -->
      <g transform="translate(58.701563 388.225312)scale(0.1 -0.1)">
       <defs>
        <path d="M 2038 4725 
Q 2881 4725 3334 3944 
Q 3694 3325 3694 2344 
Q 3694 1372 3334 741 
Q 2888 -31 2016 -31 
Q 1147 -31 700 741 
Q 341 1372 341 2350 
Q 341 3713 1000 4334 
Q 1419 4725 2038 4725 
z
M 2016 4266 
Q 1516 4266 1228 3759 
Q 934 3247 934 2344 
Q 934 1456 1222 947 
Q 1513 447 2016 447 
Q 2619 447 2909 1153 
Q 3100 1622 3100 2375 
Q 3100 3256 2806 3759 
Q 2509 4266 2016 4266 
z
" id="IPAexGothic-30" transform="scale(0.015625)"/>
       </defs>
       <use xlink:href="#IPAexGothic-30"/>
      </g>
     </g>
    </g>
    <g id="ytick_2">
     <g id="line2d_7">
      <g>
       <use style="stroke:#000000;stroke-width:0.8;" x="72" xlink:href="#mc14b25da35" y="317.952"/>
      </g>
     </g>
     <g id="text_8">
      <!-- 2 -->
      <g transform="translate(58.701563 321.697313)scale(0.1 -0.1)">
       <defs>
        <path d="M 3659 63 
L 447 63 
L 447 594 
Q 825 1475 1894 2203 
L 2072 2322 
Q 2619 2697 2791 2906 
Q 2988 3153 2988 3444 
Q 2988 3772 2756 4003 
Q 2500 4259 2084 4259 
Q 1250 4259 991 3328 
L 497 3506 
Q 853 4725 2116 4725 
Q 2806 4725 3216 4316 
Q 3575 3947 3575 3425 
Q 3575 3038 3344 2722 
Q 3131 2416 2366 1938 
L 2231 1856 
Q 1256 1253 978 569 
L 3659 569 
L 3659 63 
z
" id="IPAexGothic-32" transform="scale(0.015625)"/>
       </defs>
       <use xlink:href="#IPAexGothic-32"/>
      </g>
     </g>
    </g>
    <g id="ytick_3">
     <g id="line2d_8">
      <g>
       <use style="stroke:#000000;stroke-width:0.8;" x="72" xlink:href="#mc14b25da35" y="251.424"/>
      </g>
     </g>
     <g id="text_9">
      <!-- 4 -->
      <g transform="translate(58.701563 255.169312)scale(0.1 -0.1)">
       <defs>
        <path d="M 3813 1159 
L 3059 1159 
L 3059 63 
L 2547 63 
L 2547 1159 
L 197 1159 
L 197 1672 
L 2456 4678 
L 3059 4678 
L 3059 1634 
L 3813 1634 
L 3813 1159 
z
M 2578 4109 
L 2559 4109 
Q 2278 3656 2003 3284 
L 759 1634 
L 2547 1634 
L 2547 3144 
Q 2547 3481 2578 4109 
z
" id="IPAexGothic-34" transform="scale(0.015625)"/>
       </defs>
       <use xlink:href="#IPAexGothic-34"/>
      </g>
     </g>
    </g>
    <g id="ytick_4">
     <g id="line2d_9">
      <g>
       <use style="stroke:#000000;stroke-width:0.8;" x="72" xlink:href="#mc14b25da35" y="184.896"/>
      </g>
     </g>
     <g id="text_10">
      <!-- 6 -->
      <g transform="translate(58.701563 188.641313)scale(0.1 -0.1)">
       <defs>
        <path d="M 1056 2328 
Q 1509 2981 2234 2981 
Q 2906 2981 3316 2513 
Q 3675 2106 3675 1522 
Q 3675 884 3272 434 
Q 2853 -31 2178 -31 
Q 1375 -31 922 581 
Q 481 1178 481 2228 
Q 481 3425 1013 4109 
Q 1494 4725 2272 4725 
Q 3191 4725 3609 4025 
L 3150 3775 
Q 2894 4266 2300 4266 
Q 1119 4266 1031 2328 
L 1056 2328 
z
M 2141 2547 
Q 1684 2547 1384 2206 
Q 1116 1900 1116 1541 
Q 1116 1156 1353 844 
Q 1672 428 2159 428 
Q 2669 428 2941 844 
Q 3125 1128 3125 1503 
Q 3125 1944 2881 2228 
Q 2600 2547 2141 2547 
z
" id="IPAexGothic-36" transform="scale(0.015625)"/>
       </defs>
       <use xlink:href="#IPAexGothic-36"/>
      </g>
     </g>
    </g>
    <g id="ytick_5">
     <g id="line2d_10">
      <g>
       <use style="stroke:#000000;stroke-width:0.8;" x="72" xlink:href="#mc14b25da35" y="118.368"/>
      </g>
     </g>
     <g id="text_11">
      <!-- 8 -->
      <g transform="translate(58.701563 122.113313)scale(0.1 -0.1)">
       <defs>
        <path d="M 2541 2425 
Q 3700 2031 3700 1197 
Q 3700 541 3100 197 
Q 2663 -56 2016 -56 
Q 1366 -56 928 197 
Q 347 531 347 1178 
Q 347 1988 1409 2381 
L 1409 2400 
Q 481 2734 481 3509 
Q 481 4100 981 4456 
Q 1406 4756 2019 4756 
Q 2703 4756 3131 4403 
Q 3553 4069 3553 3566 
Q 3553 2706 2541 2444 
L 2541 2425 
z
M 2022 2625 
Q 2997 2856 2997 3528 
Q 2997 3916 2675 4150 
Q 2413 4347 2016 4347 
Q 1606 4347 1331 4128 
Q 1050 3897 1050 3522 
Q 1050 3150 1350 2925 
Q 1494 2809 1722 2722 
Q 1984 2616 2022 2625 
z
M 1978 2209 
Q 922 1931 922 1216 
Q 922 775 1313 556 
Q 1606 391 2009 391 
Q 2575 391 2881 697 
Q 3106 922 3106 1250 
Q 3106 1594 2794 1850 
Q 2609 1994 2350 2100 
Q 2047 2222 1978 2209 
z
" id="IPAexGothic-38" transform="scale(0.015625)"/>
       </defs>
       <use xlink:href="#IPAexGothic-38"/>
      </g>
     </g>
    </g>
    <g id="ytick_6">
     <g id="line2d_11">
      <g>
       <use style="stroke:#000000;stroke-width:0.8;" x="72" xlink:href="#mc14b25da35" y="51.84"/>
      </g>
     </g>
     <g id="text_12">
      <!-- 10 -->
      <g transform="translate(52.403125 55.585312)scale(0.1 -0.1)">
       <defs>
        <path d="M 2463 63 
L 1900 63 
L 1900 4103 
Q 1372 3922 788 3797 
L 684 4231 
Q 1519 4441 2106 4731 
L 2463 4731 
L 2463 63 
z
" id="IPAexGothic-31" transform="scale(0.015625)"/>
       </defs>
       <use xlink:href="#IPAexGothic-31"/>
       <use x="62.988281" xlink:href="#IPAexGothic-30"/>
      </g>
     </g>
    </g>
    <g id="text_13">
     <!-- 会話時間 (min) -->
     <g transform="translate(46.503125 251.565469)rotate(-90)scale(0.1 -0.1)">
      <defs>
       <path d="M 1863 3272 
L 4641 3272 
L 4641 2863 
L 1759 2863 
L 1759 3194 
Q 1734 3175 1638 3113 
Q 1238 2816 594 2497 
L 288 2863 
Q 1959 3597 2894 5147 
L 3431 5147 
Q 4341 3784 6131 3047 
L 5825 2631 
Q 4063 3497 3175 4731 
Q 2653 3881 1863 3272 
z
M 2822 1703 
Q 2531 997 2119 322 
L 2388 341 
Q 3366 409 4325 506 
L 4641 538 
Q 4169 1028 3859 1306 
L 4209 1550 
Q 5088 797 5778 -31 
L 5388 -350 
Q 5156 -50 4928 219 
L 4831 206 
Q 3106 -53 844 -238 
L 684 231 
Q 816 238 1191 263 
L 1631 288 
Q 2022 934 2322 1703 
L 641 1703 
L 641 2125 
L 5759 2125 
L 5759 1703 
L 2822 1703 
z
" id="IPAexGothic-4f1a" transform="scale(0.015625)"/>
       <path d="M 4578 2009 
L 5709 2009 
L 5709 -450 
L 5275 -450 
L 5275 -97 
L 3481 -97 
L 3481 -450 
L 3053 -450 
L 3053 2009 
L 4150 2009 
L 4150 3034 
L 2663 3034 
L 2663 3438 
L 4150 3438 
L 4150 4416 
Q 3581 4319 2969 4256 
L 2791 4647 
Q 4422 4831 5459 5197 
L 5800 4806 
Q 5216 4625 4578 4494 
L 4578 3438 
L 6075 3438 
L 6075 3034 
L 4578 3034 
L 4578 2009 
z
M 5275 1619 
L 3481 1619 
L 3481 294 
L 5275 294 
L 5275 1619 
z
M 2394 1684 
L 2394 -128 
L 959 -128 
L 959 -447 
L 538 -447 
L 538 1684 
L 2394 1684 
z
M 959 1313 
L 959 244 
L 1978 244 
L 1978 1313 
L 959 1313 
z
M 634 5044 
L 2306 5044 
L 2306 4659 
L 634 4659 
L 634 5044 
z
M 353 4206 
L 2631 4206 
L 2631 3816 
L 353 3816 
L 353 4206 
z
M 634 3359 
L 2306 3359 
L 2306 2975 
L 634 2975 
L 634 3359 
z
M 634 2522 
L 2306 2522 
L 2306 2138 
L 634 2138 
L 634 2522 
z
" id="IPAexGothic-8a71" transform="scale(0.015625)"/>
       <path d="M 2328 4728 
L 2328 563 
L 934 563 
L 934 56 
L 519 56 
L 519 4728 
L 2328 4728 
z
M 934 4331 
L 934 2881 
L 1906 2881 
L 1906 4331 
L 934 4331 
z
M 934 2497 
L 934 953 
L 1906 953 
L 1906 2497 
L 934 2497 
z
M 3938 4372 
L 3938 5313 
L 4378 5313 
L 4378 4372 
L 5772 4372 
L 5772 3981 
L 4378 3981 
L 4378 3194 
L 6072 3194 
L 6072 2803 
L 5203 2803 
L 5203 2047 
L 5959 2047 
L 5959 1650 
L 5216 1650 
L 5216 31 
Q 5216 -447 4691 -447 
Q 4394 -447 3888 -391 
L 3784 78 
Q 4272 0 4591 0 
Q 4775 0 4775 172 
L 4775 1650 
L 2581 1650 
L 2581 2047 
L 4763 2047 
L 4763 2803 
L 2538 2803 
L 2538 3194 
L 3938 3194 
L 3938 3981 
L 2716 3981 
L 2716 4372 
L 3938 4372 
z
M 3669 384 
Q 3331 950 2956 1325 
L 3291 1575 
Q 3719 1147 4025 659 
L 3669 384 
z
" id="IPAexGothic-6642" transform="scale(0.015625)"/>
       <path d="M 4450 2566 
L 4450 353 
L 2375 353 
L 2375 -25 
L 1953 -25 
L 1953 2566 
L 4450 2566 
z
M 4028 2200 
L 2375 2200 
L 2375 1653 
L 4028 1653 
L 4028 2200 
z
M 4028 1300 
L 2375 1300 
L 2375 719 
L 4028 719 
L 4028 1300 
z
M 2913 5019 
L 2913 3059 
L 1056 3059 
L 1056 -447 
L 609 -447 
L 609 5019 
L 2913 5019 
z
M 1056 4659 
L 1056 4206 
L 2497 4206 
L 2497 4659 
L 1056 4659 
z
M 1056 3881 
L 1056 3413 
L 2497 3413 
L 2497 3881 
L 1056 3881 
z
M 5788 5019 
L 5788 91 
Q 5788 -225 5641 -331 
Q 5525 -409 5231 -409 
Q 4803 -409 4481 -366 
L 4419 97 
Q 4853 38 5128 38 
Q 5341 38 5341 244 
L 5341 3059 
L 3438 3059 
L 3438 5019 
L 5788 5019 
z
M 3853 4659 
L 3853 4206 
L 5341 4206 
L 5341 4659 
L 3853 4659 
z
M 3853 3881 
L 3853 3413 
L 5341 3413 
L 5341 3881 
L 3853 3881 
z
" id="IPAexGothic-9593" transform="scale(0.015625)"/>
       <path id="IPAexGothic-20" transform="scale(0.015625)"/>
       <path d="M 1928 -1016 
L 1653 -1166 
Q 488 69 488 1875 
Q 488 3678 1653 4909 
L 1928 4763 
Q 1006 3522 1006 1881 
Q 1006 203 1928 -1016 
z
" id="IPAexGothic-28" transform="scale(0.015625)"/>
       <path d="M 5022 63 
L 4472 63 
L 4472 2059 
Q 4472 2869 3847 2869 
Q 3550 2869 3303 2594 
Q 3128 2397 3059 2103 
L 3059 63 
L 2509 63 
L 2509 2066 
Q 2509 2869 1919 2869 
Q 1606 2869 1369 2594 
Q 1113 2306 1113 2041 
L 1113 63 
L 563 63 
L 563 3250 
L 1075 3250 
L 1075 2700 
Q 1391 3316 2028 3316 
Q 2725 3316 2956 2647 
Q 3303 3316 3953 3316 
Q 4478 3316 4772 2944 
Q 5022 2638 5022 2072 
L 5022 63 
z
" id="IPAexGothic-6d" transform="scale(0.015625)"/>
       <path d="M 1178 3928 
L 550 3928 
L 550 4569 
L 1178 4569 
L 1178 3928 
z
M 1138 63 
L 588 63 
L 588 3250 
L 1138 3250 
L 1138 63 
z
" id="IPAexGothic-69" transform="scale(0.015625)"/>
       <path d="M 3328 63 
L 2778 63 
L 2778 2041 
Q 2778 2853 2106 2853 
Q 1428 2853 1113 2041 
L 1113 63 
L 563 63 
L 563 3250 
L 1075 3250 
L 1075 2675 
Q 1525 3316 2222 3316 
Q 3328 3316 3328 2072 
L 3328 63 
z
" id="IPAexGothic-6e" transform="scale(0.015625)"/>
       <path d="M 466 4909 
Q 1638 3672 1638 1875 
Q 1638 75 466 -1166 
L 191 -1016 
Q 1119 216 1119 1881 
Q 1119 3509 191 4763 
L 466 4909 
z
" id="IPAexGothic-29" transform="scale(0.015625)"/>
      </defs>
      <use xlink:href="#IPAexGothic-4f1a"/>
      <use x="100" xlink:href="#IPAexGothic-8a71"/>
      <use x="200" xlink:href="#IPAexGothic-6642"/>
      <use x="300" xlink:href="#IPAexGothic-9593"/>
      <use x="400" xlink:href="#IPAexGothic-20"/>
      <use x="427.001953" xlink:href="#IPAexGothic-28"/>
      <use x="460.302734" xlink:href="#IPAexGothic-6d"/>
      <use x="547.412109" xlink:href="#IPAexGothic-69"/>
      <use x="574.414062" xlink:href="#IPAexGothic-6e"/>
      <use x="634.814453" xlink:href="#IPAexGothic-29"/>
     </g>
    </g>
   </g>
   <g id="line2d_12">
    <path clip-path="url(#p3c527962cb)" d="M 81.477056 260.433 
L 151.802944 260.433 
" style="fill:none;stroke:#6b6b6b;stroke-dasharray:3.375,3.375;stroke-dashoffset:0;stroke-width:1.5;"/>
   </g>
   <g id="line2d_13">
    <path clip-path="url(#p3c527962cb)" d="M 81.547484 254.196 
L 151.732516 254.196 
" style="fill:none;stroke:#6b6b6b;stroke-dasharray:6.75,6.75;stroke-dashoffset:0;stroke-width:1.5;"/>
   </g>
   <g id="line2d_14">
    <path clip-path="url(#p3c527962cb)" d="M 96.068882 222.0408 
L 137.211118 222.0408 
" style="fill:none;stroke:#6b6b6b;stroke-dasharray:3.375,3.375;stroke-dashoffset:0;stroke-width:1.5;"/>
   </g>
   <g id="line2d_15">
    <path clip-path="url(#p3c527962cb)" d="M 189.826049 314.0712 
L 222.013951 314.0712 
" style="fill:none;stroke:#6b6b6b;stroke-dasharray:3.375,3.375;stroke-dashoffset:0;stroke-width:1.5;"/>
   </g>
   <g id="line2d_16">
    <path clip-path="url(#p3c527962cb)" d="M 184.617408 267.7788 
L 227.222592 267.7788 
" style="fill:none;stroke:#6b6b6b;stroke-dasharray:6.75,6.75;stroke-dashoffset:0;stroke-width:1.5;"/>
   </g>
   <g id="line2d_17">
    <path clip-path="url(#p3c527962cb)" d="M 184.927036 253.503 
L 226.912964 253.503 
" style="fill:none;stroke:#6b6b6b;stroke-dasharray:3.375,3.375;stroke-dashoffset:0;stroke-width:1.5;"/>
   </g>
   <g id="line2d_18">
    <path clip-path="url(#p3c527962cb)" d="M 270.813641 341.3754 
L 319.586359 341.3754 
" style="fill:none;stroke:#6b6b6b;stroke-dasharray:3.375,3.375;stroke-dashoffset:0;stroke-width:1.5;"/>
   </g>
   <g id="line2d_19">
    <path clip-path="url(#p3c527962cb)" d="M 271.912707 310.7448 
L 318.487293 310.7448 
" style="fill:none;stroke:#6b6b6b;stroke-dasharray:6.75,6.75;stroke-dashoffset:0;stroke-width:1.5;"/>
   </g>
   <g id="line2d_20">
    <path clip-path="url(#p3c527962cb)" d="M 272.821666 288.9846 
L 317.578334 288.9846 
" style="fill:none;stroke:#6b6b6b;stroke-dasharray:3.375,3.375;stroke-dashoffset:0;stroke-width:1.5;"/>
   </g>
   <g id="line2d_21">
    <path clip-path="url(#p3c527962cb)" d="M 360.521502 370.4814 
L 408.438498 370.4814 
" style="fill:none;stroke:#6b6b6b;stroke-dasharray:3.375,3.375;stroke-dashoffset:0;stroke-width:1.5;"/>
   </g>
   <g id="line2d_22">
    <path clip-path="url(#p3c527962cb)" d="M 358.511812 349.5528 
L 410.448188 349.5528 
" style="fill:none;stroke:#6b6b6b;stroke-dasharray:6.75,6.75;stroke-dashoffset:0;stroke-width:1.5;"/>
   </g>
   <g id="line2d_23">
    <path clip-path="url(#p3c527962cb)" d="M 365.882592 312.408 
L 403.077408 312.408 
" style="fill:none;stroke:#6b6b6b;stroke-dasharray:3.375,3.375;stroke-dashoffset:0;stroke-width:1.5;"/>
   </g>
   <g id="line2d_24">
    <path clip-path="url(#p3c527962cb)" d="M 454.796157 358.9776 
L 492.723843 358.9776 
" style="fill:none;stroke:#6b6b6b;stroke-dasharray:3.375,3.375;stroke-dashoffset:0;stroke-width:1.5;"/>
   </g>
   <g id="line2d_25">
    <path clip-path="url(#p3c527962cb)" d="M 454.409438 331.2576 
L 493.110562 331.2576 
" style="fill:none;stroke:#6b6b6b;stroke-dasharray:6.75,6.75;stroke-dashoffset:0;stroke-width:1.5;"/>
   </g>
   <g id="line2d_26">
    <path clip-path="url(#p3c527962cb)" d="M 461.512713 283.0248 
L 486.007287 283.0248 
" style="fill:none;stroke:#6b6b6b;stroke-dasharray:3.375,3.375;stroke-dashoffset:0;stroke-width:1.5;"/>
   </g>
   <g id="patch_3">
    <path d="M 72 384.48 
L 72 51.84 
" style="fill:none;stroke:#000000;stroke-linecap:square;stroke-linejoin:miter;stroke-width:0.8;"/>
   </g>
   <g id="patch_4">
    <path d="M 518.4 384.48 
L 518.4 51.84 
" style="fill:none;stroke:#000000;stroke-linecap:square;stroke-linejoin:miter;stroke-width:0.8;"/>
   </g>
   <g id="patch_5">
    <path d="M 72 384.48 
L 518.4 384.48 
" style="fill:none;stroke:#000000;stroke-linecap:square;stroke-linejoin:miter;stroke-width:0.8;"/>
   </g>
   <g id="patch_6">
    <path d="M 72 51.84 
L 518.4 51.84 
" style="fill:none;stroke:#000000;stroke-linecap:square;stroke-linejoin:miter;stroke-width:0.8;"/>
   </g>
   <g id="PathCollection_1">
    <defs>
     <path d="M 0 2.5 
C 0.663008 2.5 1.29895 2.236584 1.767767 1.767767 
C 2.236584 1.29895 2.5 0.663008 2.5 -0 
C 2.5 -0.663008 2.236584 -1.29895 1.767767 -1.767767 
C 1.29895 -2.236584 0.663008 -2.5 0 -2.5 
C -0.663008 -2.5 -1.29895 -2.236584 -1.767767 -1.767767 
C -2.236584 -1.29895 -2.5 -0.663008 -2.5 0 
C -2.5 0.663008 -2.236584 1.29895 -1.767767 1.767767 
C -1.29895 2.236584 -0.663008 2.5 0 2.5 
z
" id="C0_0_706b89dfed"/>
    </defs>
    <g clip-path="url(#p3c527962cb)">
     <use style="fill:#ff7f27;" x="116.64" xlink:href="#C0_0_706b89dfed" y="275.8176"/>
    </g>
    <g clip-path="url(#p3c527962cb)">
     <use style="fill:#ff7f27;" x="116.64" xlink:href="#C0_0_706b89dfed" y="269.7192"/>
    </g>
    <g clip-path="url(#p3c527962cb)">
     <use style="fill:#ff7f27;" x="116.64" xlink:href="#C0_0_706b89dfed" y="262.512"/>
    </g>
    <g clip-path="url(#p3c527962cb)">
     <use style="fill:#ff7f27;" x="112.077807" xlink:href="#C0_0_706b89dfed" y="259.74"/>
    </g>
    <g clip-path="url(#p3c527962cb)">
     <use style="fill:#ff7f27;" x="120.864226" xlink:href="#C0_0_706b89dfed" y="259.1856"/>
    </g>
    <g clip-path="url(#p3c527962cb)">
     <use style="fill:#ff7f27;" x="116.302033" xlink:href="#C0_0_706b89dfed" y="256.4136"/>
    </g>
    <g clip-path="url(#p3c527962cb)">
     <use style="fill:#ff7f27;" x="119.509107" xlink:href="#C0_0_706b89dfed" y="251.9784"/>
    </g>
    <g clip-path="url(#p3c527962cb)">
     <use style="fill:#ff7f27;" x="116.64" xlink:href="#C0_0_706b89dfed" y="244.7712"/>
    </g>
    <g clip-path="url(#p3c527962cb)">
     <use style="fill:#ff7f27;" x="116.64" xlink:href="#C0_0_706b89dfed" y="223.1496"/>
    </g>
    <g clip-path="url(#p3c527962cb)">
     <use style="fill:#ff7f27;" x="113.432926" xlink:href="#C0_0_706b89dfed" y="218.7144"/>
    </g>
    <g clip-path="url(#p3c527962cb)">
     <use style="fill:#ff7f27;" x="116.64" xlink:href="#C0_0_706b89dfed" y="202.6368"/>
    </g>
    <g clip-path="url(#p3c527962cb)">
     <use style="fill:#ff7f27;" x="116.64" xlink:href="#C0_0_706b89dfed" y="152.1864"/>
    </g>
   </g>
   <g id="PathCollection_2">
    <defs>
     <path d="M 0 2.5 
C 0.663008 2.5 1.29895 2.236584 1.767767 1.767767 
C 2.236584 1.29895 2.5 0.663008 2.5 -0 
C 2.5 -0.663008 2.236584 -1.29895 1.767767 -1.767767 
C 1.29895 -2.236584 0.663008 -2.5 0 -2.5 
C -0.663008 -2.5 -1.29895 -2.236584 -1.767767 -1.767767 
C -2.236584 -1.29895 -2.5 -0.663008 -2.5 0 
C -2.5 0.663008 -2.236584 1.29895 -1.767767 1.767767 
C -1.29895 2.236584 -0.663008 2.5 0 2.5 
z
" id="C1_0_5dc3e9f9b1"/>
    </defs>
    <g clip-path="url(#p3c527962cb)">
     <use style="fill:#a0fff9;" x="205.92" xlink:href="#C1_0_5dc3e9f9b1" y="346.7808"/>
    </g>
    <g clip-path="url(#p3c527962cb)">
     <use style="fill:#a0fff9;" x="205.92" xlink:href="#C1_0_5dc3e9f9b1" y="339.5736"/>
    </g>
    <g clip-path="url(#p3c527962cb)">
     <use style="fill:#a0fff9;" x="205.167068" xlink:href="#C1_0_5dc3e9f9b1" y="334.0296"/>
    </g>
    <g clip-path="url(#p3c527962cb)">
     <use style="fill:#a0fff9;" x="205.92" xlink:href="#C1_0_5dc3e9f9b1" y="307.4184"/>
    </g>
    <g clip-path="url(#p3c527962cb)">
     <use style="fill:#a0fff9;" x="205.92" xlink:href="#C1_0_5dc3e9f9b1" y="297.4392"/>
    </g>
    <g clip-path="url(#p3c527962cb)">
     <use style="fill:#a0fff9;" x="205.92" xlink:href="#C1_0_5dc3e9f9b1" y="275.2632"/>
    </g>
    <g clip-path="url(#p3c527962cb)">
     <use style="fill:#a0fff9;" x="205.92" xlink:href="#C1_0_5dc3e9f9b1" y="260.2944"/>
    </g>
    <g clip-path="url(#p3c527962cb)">
     <use style="fill:#a0fff9;" x="205.167068" xlink:href="#C1_0_5dc3e9f9b1" y="254.7504"/>
    </g>
    <g clip-path="url(#p3c527962cb)">
     <use style="fill:#a0fff9;" x="210.391294" xlink:href="#C1_0_5dc3e9f9b1" y="254.196"/>
    </g>
    <g clip-path="url(#p3c527962cb)">
     <use style="fill:#a0fff9;" x="200.942842" xlink:href="#C1_0_5dc3e9f9b1" y="251.424"/>
    </g>
    <g clip-path="url(#p3c527962cb)">
     <use style="fill:#a0fff9;" x="205.92" xlink:href="#C1_0_5dc3e9f9b1" y="239.7816"/>
    </g>
    <g clip-path="url(#p3c527962cb)">
     <use style="fill:#a0fff9;" x="205.92" xlink:href="#C1_0_5dc3e9f9b1" y="187.1136"/>
    </g>
   </g>
   <g id="PathCollection_3">
    <defs>
     <path d="M 0 2.5 
C 0.663008 2.5 1.29895 2.236584 1.767767 1.767767 
C 2.236584 1.29895 2.5 0.663008 2.5 -0 
C 2.5 -0.663008 2.236584 -1.29895 1.767767 -1.767767 
C 1.29895 -2.236584 0.663008 -2.5 0 -2.5 
C -0.663008 -2.5 -1.29895 -2.236584 -1.767767 -1.767767 
C -2.236584 -1.29895 -2.5 -0.663008 -2.5 0 
C -2.5 0.663008 -2.236584 1.29895 -1.767767 1.767767 
C -1.29895 2.236584 -0.663008 2.5 0 2.5 
z
" id="C2_0_d25f41b7f4"/>
    </defs>
    <g clip-path="url(#p3c527962cb)">
     <use style="fill:#ff6e90;" x="295.2" xlink:href="#C2_0_d25f41b7f4" y="361.7496"/>
    </g>
    <g clip-path="url(#p3c527962cb)">
     <use style="fill:#ff6e90;" x="295.2" xlink:href="#C2_0_d25f41b7f4" y="349.5528"/>
    </g>
    <g clip-path="url(#p3c527962cb)">
     <use style="fill:#ff6e90;" x="295.2" xlink:href="#C2_0_d25f41b7f4" y="341.7912"/>
    </g>
    <g clip-path="url(#p3c527962cb)">
     <use style="fill:#ff6e90;" x="289.975773" xlink:href="#C2_0_d25f41b7f4" y="341.2368"/>
    </g>
    <g clip-path="url(#p3c527962cb)">
     <use style="fill:#ff6e90;" x="295.2" xlink:href="#C2_0_d25f41b7f4" y="332.3664"/>
    </g>
    <g clip-path="url(#p3c527962cb)">
     <use style="fill:#ff6e90;" x="295.2" xlink:href="#C2_0_d25f41b7f4" y="322.9416"/>
    </g>
    <g clip-path="url(#p3c527962cb)">
     <use style="fill:#ff6e90;" x="295.2" xlink:href="#C2_0_d25f41b7f4" y="298.548"/>
    </g>
    <g clip-path="url(#p3c527962cb)">
     <use style="fill:#ff6e90;" x="295.2" xlink:href="#C2_0_d25f41b7f4" y="291.8952"/>
    </g>
    <g clip-path="url(#p3c527962cb)">
     <use style="fill:#ff6e90;" x="290.053868" xlink:href="#C2_0_d25f41b7f4" y="290.7864"/>
    </g>
    <g clip-path="url(#p3c527962cb)">
     <use style="fill:#ff6e90;" x="295.2" xlink:href="#C2_0_d25f41b7f4" y="283.5792"/>
    </g>
    <g clip-path="url(#p3c527962cb)">
     <use style="fill:#ff6e90;" x="295.2" xlink:href="#C2_0_d25f41b7f4" y="259.74"/>
    </g>
    <g clip-path="url(#p3c527962cb)">
     <use style="fill:#ff6e90;" x="295.2" xlink:href="#C2_0_d25f41b7f4" y="250.3152"/>
    </g>
   </g>
   <g id="PathCollection_4">
    <defs>
     <path d="M 0 2.5 
C 0.663008 2.5 1.29895 2.236584 1.767767 1.767767 
C 2.236584 1.29895 2.5 0.663008 2.5 -0 
C 2.5 -0.663008 2.236584 -1.29895 1.767767 -1.767767 
C 1.29895 -2.236584 0.663008 -2.5 0 -2.5 
C -0.663008 -2.5 -1.29895 -2.236584 -1.767767 -1.767767 
C -2.236584 -1.29895 -2.5 -0.663008 -2.5 0 
C -2.5 0.663008 -2.236584 1.29895 -1.767767 1.767767 
C -1.29895 2.236584 -0.663008 2.5 0 2.5 
z
" id="C3_0_2d5f91266a"/>
    </defs>
    <g clip-path="url(#p3c527962cb)">
     <use style="fill:#0000a0;" x="384.48" xlink:href="#C3_0_2d5f91266a" y="384.48"/>
    </g>
    <g clip-path="url(#p3c527962cb)">
     <use style="fill:#0000a0;" x="384.48" xlink:href="#C3_0_2d5f91266a" y="377.2728"/>
    </g>
    <g clip-path="url(#p3c527962cb)">
     <use style="fill:#0000a0;" x="380.693886" xlink:href="#C3_0_2d5f91266a" y="373.392"/>
    </g>
    <g clip-path="url(#p3c527962cb)">
     <use style="fill:#0000a0;" x="384.48" xlink:href="#C3_0_2d5f91266a" y="369.5112"/>
    </g>
    <g clip-path="url(#p3c527962cb)">
     <use style="fill:#0000a0;" x="384.48" xlink:href="#C3_0_2d5f91266a" y="352.3248"/>
    </g>
    <g clip-path="url(#p3c527962cb)">
     <use style="fill:#0000a0;" x="379.658879" xlink:href="#C3_0_2d5f91266a" y="350.1072"/>
    </g>
    <g clip-path="url(#p3c527962cb)">
     <use style="fill:#0000a0;" x="388.704226" xlink:href="#C3_0_2d5f91266a" y="348.9984"/>
    </g>
    <g clip-path="url(#p3c527962cb)">
     <use style="fill:#0000a0;" x="384.48" xlink:href="#C3_0_2d5f91266a" y="332.9208"/>
    </g>
    <g clip-path="url(#p3c527962cb)">
     <use style="fill:#0000a0;" x="384.48" xlink:href="#C3_0_2d5f91266a" y="313.5168"/>
    </g>
    <g clip-path="url(#p3c527962cb)">
     <use style="fill:#0000a0;" x="381.272926" xlink:href="#C3_0_2d5f91266a" y="309.0816"/>
    </g>
    <g clip-path="url(#p3c527962cb)">
     <use style="fill:#0000a0;" x="384.48" xlink:href="#C3_0_2d5f91266a" y="304.092"/>
    </g>
    <g clip-path="url(#p3c527962cb)">
     <use style="fill:#0000a0;" x="384.48" xlink:href="#C3_0_2d5f91266a" y="223.704"/>
    </g>
   </g>
   <g id="PathCollection_5">
    <defs>
     <path d="M 0 2.5 
C 0.663008 2.5 1.29895 2.236584 1.767767 1.767767 
C 2.236584 1.29895 2.5 0.663008 2.5 -0 
C 2.5 -0.663008 2.236584 -1.29895 1.767767 -1.767767 
C 1.29895 -2.236584 0.663008 -2.5 0 -2.5 
C -0.663008 -2.5 -1.29895 -2.236584 -1.767767 -1.767767 
C -2.236584 -1.29895 -2.5 -0.663008 -2.5 0 
C -2.5 0.663008 -2.236584 1.29895 -1.767767 1.767767 
C -1.29895 2.236584 -0.663008 2.5 0 2.5 
z
" id="C4_0_666c70f5c5"/>
    </defs>
    <g clip-path="url(#p3c527962cb)">
     <use style="fill:#74f466;" x="473.76" xlink:href="#C4_0_666c70f5c5" y="381.708"/>
    </g>
    <g clip-path="url(#p3c527962cb)">
     <use style="fill:#74f466;" x="468.746728" xlink:href="#C4_0_666c70f5c5" y="380.0448"/>
    </g>
    <g clip-path="url(#p3c527962cb)">
     <use style="fill:#74f466;" x="473.76" xlink:href="#C4_0_666c70f5c5" y="372.2832"/>
    </g>
    <g clip-path="url(#p3c527962cb)">
     <use style="fill:#74f466;" x="473.76" xlink:href="#C4_0_666c70f5c5" y="354.5424"/>
    </g>
    <g clip-path="url(#p3c527962cb)">
     <use style="fill:#74f466;" x="473.76" xlink:href="#C4_0_666c70f5c5" y="334.584"/>
    </g>
    <g clip-path="url(#p3c527962cb)">
     <use style="fill:#74f466;" x="469.535774" xlink:href="#C4_0_666c70f5c5" y="331.2576"/>
    </g>
    <g clip-path="url(#p3c527962cb)">
     <use style="fill:#74f466;" x="477.984226" xlink:href="#C4_0_666c70f5c5" y="331.2576"/>
    </g>
    <g clip-path="url(#p3c527962cb)">
     <use style="fill:#74f466;" x="464.285774" xlink:href="#C4_0_666c70f5c5" y="331.2576"/>
    </g>
    <g clip-path="url(#p3c527962cb)">
     <use style="fill:#74f466;" x="473.76" xlink:href="#C4_0_666c70f5c5" y="286.3512"/>
    </g>
    <g clip-path="url(#p3c527962cb)">
     <use style="fill:#74f466;" x="473.76" xlink:href="#C4_0_666c70f5c5" y="273.0456"/>
    </g>
    <g clip-path="url(#p3c527962cb)">
     <use style="fill:#74f466;" x="473.76" xlink:href="#C4_0_666c70f5c5" y="257.5224"/>
    </g>
    <g clip-path="url(#p3c527962cb)">
     <use style="fill:#74f466;" x="473.76" xlink:href="#C4_0_666c70f5c5" y="203.7456"/>
    </g>
   </g>
   <g id="text_14">
    <!-- 会話時間比較 -->
    <g transform="translate(259.2 45.84)scale(0.12 -0.12)">
     <defs>
      <path d="M 1525 3250 
L 3003 3250 
L 3003 2822 
L 1525 2822 
L 1525 472 
Q 2469 747 3016 934 
L 3041 531 
Q 1813 59 459 -300 
L 294 159 
Q 694 250 1056 344 
L 1056 5081 
L 1525 5081 
L 1525 3250 
z
M 3794 3028 
Q 4691 3472 5341 4038 
L 5744 3706 
Q 4778 2969 3794 2572 
L 3794 556 
Q 3794 353 3978 313 
Q 4106 288 4472 288 
Q 5169 288 5328 378 
Q 5491 463 5522 1516 
L 5994 1356 
Q 5966 238 5772 34 
Q 5566 -172 4491 -172 
Q 3809 -172 3588 -75 
Q 3334 28 3334 397 
L 3334 5113 
L 3794 5113 
L 3794 3028 
z
" id="IPAexGothic-6bd4" transform="scale(0.015625)"/>
      <path d="M 1413 3688 
L 1413 4153 
L 384 4153 
L 384 4538 
L 1413 4538 
L 1413 5313 
L 1816 5313 
L 1816 4538 
L 2875 4538 
L 2875 4153 
L 1816 4153 
L 1816 3688 
L 2734 3688 
L 2734 1516 
L 1816 1516 
L 1816 1013 
L 2931 1013 
L 2931 628 
L 1816 628 
L 1816 -447 
L 1413 -447 
L 1413 628 
L 294 628 
L 294 1013 
L 1413 1013 
L 1413 1516 
L 531 1516 
L 531 3688 
L 1413 3688 
z
M 1425 3353 
L 903 3353 
L 903 2778 
L 1425 2778 
L 1425 3353 
z
M 1803 3353 
L 1803 2778 
L 2363 2778 
L 2363 3353 
L 1803 3353 
z
M 1425 2456 
L 903 2456 
L 903 1856 
L 1425 1856 
L 1425 2456 
z
M 1803 2456 
L 1803 1856 
L 2363 1856 
L 2363 2456 
L 1803 2456 
z
M 4241 1013 
Q 3791 1606 3550 2338 
L 3916 2509 
Q 4091 1900 4478 1363 
Q 4825 1941 4978 2638 
L 5375 2491 
Q 5194 1719 4747 1031 
Q 5294 444 6144 44 
L 5859 -378 
Q 5069 50 4497 691 
Q 3853 -78 3050 -481 
L 2750 -128 
Q 3644 259 4241 1013 
z
M 4647 4263 
L 6059 4263 
L 6059 3853 
L 2963 3853 
L 2963 4263 
L 4206 4263 
L 4206 5313 
L 4647 5313 
L 4647 4263 
z
M 2847 2297 
Q 3406 2859 3738 3700 
L 4119 3541 
Q 3769 2644 3153 1991 
L 2847 2297 
z
M 5759 2106 
Q 5334 2863 4734 3541 
L 5075 3731 
Q 5731 3044 6097 2419 
L 5759 2106 
z
" id="IPAexGothic-8f03" transform="scale(0.015625)"/>
     </defs>
     <use xlink:href="#IPAexGothic-4f1a"/>
     <use x="100" xlink:href="#IPAexGothic-8a71"/>
     <use x="200" xlink:href="#IPAexGothic-6642"/>
     <use x="300" xlink:href="#IPAexGothic-9593"/>
     <use x="400" xlink:href="#IPAexGothic-6bd4"/>
     <use x="500" xlink:href="#IPAexGothic-8f03"/>
    </g>
   </g>
  </g>
 </g>
 <defs>
  <clipPath id="p3c527962cb">
   <rect height="332.64" width="446.4" x="72" y="51.84"/>
  </clipPath>
 </defs>
</svg>
