<?xml version="1.0" encoding="utf-8" standalone="no"?>
<!DOCTYPE svg PUBLIC "-//W3C//DTD SVG 1.1//EN"
  "http://www.w3.org/Graphics/SVG/1.1/DTD/svg11.dtd">
<svg height="576pt" version="1.1" viewBox="0 0 576 576" width="576pt" xmlns="http://www.w3.org/2000/svg" xmlns:xlink="http://www.w3.org/1999/xlink">
 <metadata>
  <rdf:RDF xmlns:cc="http://creativecommons.org/ns#" xmlns:dc="http://purl.org/dc/elements/1.1/" xmlns:rdf="http://www.w3.org/1999/02/22-rdf-syntax-ns#">
   <cc:Work>
    <dc:type rdf:resource="http://purl.org/dc/dcmitype/StillImage"/>
    <dc:date>2021-10-28T02:10:07.181045</dc:date>
    <dc:format>image/svg+xml</dc:format>
    <dc:creator>
     <cc:Agent>
      <dc:title>Matplotlib v3.4.2, https://matplotlib.org/</dc:title>
     </cc:Agent>
    </dc:creator>
   </cc:Work>
  </rdf:RDF>
 </metadata>
 <defs>
  <style type="text/css">*{stroke-linecap:butt;stroke-linejoin:round;}</style>
 </defs>
 <g id="figure_1">
  <g id="patch_1">
   <path d="M 0 576 
L 576 576 
L 576 0 
L 0 0 
z
" style="fill:#ffffff;"/>
  </g>
  <g id="axes_1">
   <g id="patch_2">
    <path d="M 230.4 512.64 
L 518.4 512.64 
L 518.4 69.12 
L 230.4 69.12 
z
" style="fill:#e5e5e5;"/>
   </g>
   <g id="matplotlib.axis_1">
    <g id="xtick_1">
     <g id="line2d_1">
      <path clip-path="url(#pca701eb9d4)" d="M 243.155293 512.64 
L 243.155293 69.12 
" style="fill:none;stroke:#ffffff;stroke-linecap:square;stroke-width:0.8;"/>
     </g>
     <g id="line2d_2">
      <defs>
       <path d="M 0 0 
L 0 3.5 
" id="med47728cfc" style="stroke:#555555;stroke-width:0.8;"/>
      </defs>
      <g>
       <use style="fill:#555555;stroke:#555555;stroke-width:0.8;" x="243.155293" xlink:href="#med47728cfc" y="512.64"/>
      </g>
     </g>
     <g id="text_1">
      <!-- 0 -->
      <g style="fill:#555555;" transform="translate(240.006074 527.130625)scale(0.1 -0.1)">
       <defs>
        <path d="M 2038 4725 
Q 2881 4725 3334 3944 
Q 3694 3325 3694 2344 
Q 3694 1372 3334 741 
Q 2888 -31 2016 -31 
Q 1147 -31 700 741 
Q 341 1372 341 2350 
Q 341 3713 1000 4334 
Q 1419 4725 2038 4725 
z
M 2016 4266 
Q 1516 4266 1228 3759 
Q 934 3247 934 2344 
Q 934 1456 1222 947 
Q 1513 447 2016 447 
Q 2619 447 2909 1153 
Q 3100 1622 3100 2375 
Q 3100 3256 2806 3759 
Q 2509 4266 2016 4266 
z
" id="IPAexGothic-30" transform="scale(0.015625)"/>
       </defs>
       <use xlink:href="#IPAexGothic-30"/>
      </g>
     </g>
    </g>
    <g id="xtick_2">
     <g id="line2d_3">
      <path clip-path="url(#pca701eb9d4)" d="M 280.446018 512.64 
L 280.446018 69.12 
" style="fill:none;stroke:#ffffff;stroke-linecap:square;stroke-width:0.8;"/>
     </g>
     <g id="line2d_4">
      <g>
       <use style="fill:#555555;stroke:#555555;stroke-width:0.8;" x="280.446018" xlink:href="#med47728cfc" y="512.64"/>
      </g>
     </g>
     <g id="text_2">
      <!-- 2 -->
      <g style="fill:#555555;" transform="translate(277.296799 527.130625)scale(0.1 -0.1)">
       <defs>
        <path d="M 3659 63 
L 447 63 
L 447 594 
Q 825 1475 1894 2203 
L 2072 2322 
Q 2619 2697 2791 2906 
Q 2988 3153 2988 3444 
Q 2988 3772 2756 4003 
Q 2500 4259 2084 4259 
Q 1250 4259 991 3328 
L 497 3506 
Q 853 4725 2116 4725 
Q 2806 4725 3216 4316 
Q 3575 3947 3575 3425 
Q 3575 3038 3344 2722 
Q 3131 2416 2366 1938 
L 2231 1856 
Q 1256 1253 978 569 
L 3659 569 
L 3659 63 
z
" id="IPAexGothic-32" transform="scale(0.015625)"/>
       </defs>
       <use xlink:href="#IPAexGothic-32"/>
      </g>
     </g>
    </g>
    <g id="xtick_3">
     <g id="line2d_5">
      <path clip-path="url(#pca701eb9d4)" d="M 317.736743 512.64 
L 317.736743 69.12 
" style="fill:none;stroke:#ffffff;stroke-linecap:square;stroke-width:0.8;"/>
     </g>
     <g id="line2d_6">
      <g>
       <use style="fill:#555555;stroke:#555555;stroke-width:0.8;" x="317.736743" xlink:href="#med47728cfc" y="512.64"/>
      </g>
     </g>
     <g id="text_3">
      <!-- 4 -->
      <g style="fill:#555555;" transform="translate(314.587524 527.130625)scale(0.1 -0.1)">
       <defs>
        <path d="M 3813 1159 
L 3059 1159 
L 3059 63 
L 2547 63 
L 2547 1159 
L 197 1159 
L 197 1672 
L 2456 4678 
L 3059 4678 
L 3059 1634 
L 3813 1634 
L 3813 1159 
z
M 2578 4109 
L 2559 4109 
Q 2278 3656 2003 3284 
L 759 1634 
L 2547 1634 
L 2547 3144 
Q 2547 3481 2578 4109 
z
" id="IPAexGothic-34" transform="scale(0.015625)"/>
       </defs>
       <use xlink:href="#IPAexGothic-34"/>
      </g>
     </g>
    </g>
    <g id="xtick_4">
     <g id="line2d_7">
      <path clip-path="url(#pca701eb9d4)" d="M 355.027468 512.64 
L 355.027468 69.12 
" style="fill:none;stroke:#ffffff;stroke-linecap:square;stroke-width:0.8;"/>
     </g>
     <g id="line2d_8">
      <g>
       <use style="fill:#555555;stroke:#555555;stroke-width:0.8;" x="355.027468" xlink:href="#med47728cfc" y="512.64"/>
      </g>
     </g>
     <g id="text_4">
      <!-- 6 -->
      <g style="fill:#555555;" transform="translate(351.878249 527.130625)scale(0.1 -0.1)">
       <defs>
        <path d="M 1056 2328 
Q 1509 2981 2234 2981 
Q 2906 2981 3316 2513 
Q 3675 2106 3675 1522 
Q 3675 884 3272 434 
Q 2853 -31 2178 -31 
Q 1375 -31 922 581 
Q 481 1178 481 2228 
Q 481 3425 1013 4109 
Q 1494 4725 2272 4725 
Q 3191 4725 3609 4025 
L 3150 3775 
Q 2894 4266 2300 4266 
Q 1119 4266 1031 2328 
L 1056 2328 
z
M 2141 2547 
Q 1684 2547 1384 2206 
Q 1116 1900 1116 1541 
Q 1116 1156 1353 844 
Q 1672 428 2159 428 
Q 2669 428 2941 844 
Q 3125 1128 3125 1503 
Q 3125 1944 2881 2228 
Q 2600 2547 2141 2547 
z
" id="IPAexGothic-36" transform="scale(0.015625)"/>
       </defs>
       <use xlink:href="#IPAexGothic-36"/>
      </g>
     </g>
    </g>
    <g id="xtick_5">
     <g id="line2d_9">
      <path clip-path="url(#pca701eb9d4)" d="M 392.318193 512.64 
L 392.318193 69.12 
" style="fill:none;stroke:#ffffff;stroke-linecap:square;stroke-width:0.8;"/>
     </g>
     <g id="line2d_10">
      <g>
       <use style="fill:#555555;stroke:#555555;stroke-width:0.8;" x="392.318193" xlink:href="#med47728cfc" y="512.64"/>
      </g>
     </g>
     <g id="text_5">
      <!-- 8 -->
      <g style="fill:#555555;" transform="translate(389.168975 527.130625)scale(0.1 -0.1)">
       <defs>
        <path d="M 2541 2425 
Q 3700 2031 3700 1197 
Q 3700 541 3100 197 
Q 2663 -56 2016 -56 
Q 1366 -56 928 197 
Q 347 531 347 1178 
Q 347 1988 1409 2381 
L 1409 2400 
Q 481 2734 481 3509 
Q 481 4100 981 4456 
Q 1406 4756 2019 4756 
Q 2703 4756 3131 4403 
Q 3553 4069 3553 3566 
Q 3553 2706 2541 2444 
L 2541 2425 
z
M 2022 2625 
Q 2997 2856 2997 3528 
Q 2997 3916 2675 4150 
Q 2413 4347 2016 4347 
Q 1606 4347 1331 4128 
Q 1050 3897 1050 3522 
Q 1050 3150 1350 2925 
Q 1494 2809 1722 2722 
Q 1984 2616 2022 2625 
z
M 1978 2209 
Q 922 1931 922 1216 
Q 922 775 1313 556 
Q 1606 391 2009 391 
Q 2575 391 2881 697 
Q 3106 922 3106 1250 
Q 3106 1594 2794 1850 
Q 2609 1994 2350 2100 
Q 2047 2222 1978 2209 
z
" id="IPAexGothic-38" transform="scale(0.015625)"/>
       </defs>
       <use xlink:href="#IPAexGothic-38"/>
      </g>
     </g>
    </g>
    <g id="xtick_6">
     <g id="line2d_11">
      <path clip-path="url(#pca701eb9d4)" d="M 429.608919 512.64 
L 429.608919 69.12 
" style="fill:none;stroke:#ffffff;stroke-linecap:square;stroke-width:0.8;"/>
     </g>
     <g id="line2d_12">
      <g>
       <use style="fill:#555555;stroke:#555555;stroke-width:0.8;" x="429.608919" xlink:href="#med47728cfc" y="512.64"/>
      </g>
     </g>
     <g id="text_6">
      <!-- 10 -->
      <g style="fill:#555555;" transform="translate(423.310481 527.130625)scale(0.1 -0.1)">
       <defs>
        <path d="M 2463 63 
L 1900 63 
L 1900 4103 
Q 1372 3922 788 3797 
L 684 4231 
Q 1519 4441 2106 4731 
L 2463 4731 
L 2463 63 
z
" id="IPAexGothic-31" transform="scale(0.015625)"/>
       </defs>
       <use xlink:href="#IPAexGothic-31"/>
       <use x="62.988281" xlink:href="#IPAexGothic-30"/>
      </g>
     </g>
    </g>
    <g id="xtick_7">
     <g id="line2d_13">
      <path clip-path="url(#pca701eb9d4)" d="M 466.899644 512.64 
L 466.899644 69.12 
" style="fill:none;stroke:#ffffff;stroke-linecap:square;stroke-width:0.8;"/>
     </g>
     <g id="line2d_14">
      <g>
       <use style="fill:#555555;stroke:#555555;stroke-width:0.8;" x="466.899644" xlink:href="#med47728cfc" y="512.64"/>
      </g>
     </g>
     <g id="text_7">
      <!-- 12 -->
      <g style="fill:#555555;" transform="translate(460.601206 527.130625)scale(0.1 -0.1)">
       <use xlink:href="#IPAexGothic-31"/>
       <use x="62.988281" xlink:href="#IPAexGothic-32"/>
      </g>
     </g>
    </g>
    <g id="xtick_8">
     <g id="line2d_15">
      <path clip-path="url(#pca701eb9d4)" d="M 504.190369 512.64 
L 504.190369 69.12 
" style="fill:none;stroke:#ffffff;stroke-linecap:square;stroke-width:0.8;"/>
     </g>
     <g id="line2d_16">
      <g>
       <use style="fill:#555555;stroke:#555555;stroke-width:0.8;" x="504.190369" xlink:href="#med47728cfc" y="512.64"/>
      </g>
     </g>
     <g id="text_8">
      <!-- 14 -->
      <g style="fill:#555555;" transform="translate(497.891932 527.130625)scale(0.1 -0.1)">
       <use xlink:href="#IPAexGothic-31"/>
       <use x="62.988281" xlink:href="#IPAexGothic-34"/>
      </g>
     </g>
    </g>
    <g id="text_9">
     <!-- 各回放送時間（時間） -->
     <g style="fill:#555555;" transform="translate(314.4 542.019375)scale(0.12 -0.12)">
      <defs>
       <path d="M 4991 1906 
L 4991 -447 
L 4522 -447 
L 4522 -122 
L 1925 -122 
L 1925 -447 
L 1456 -447 
L 1456 1778 
Q 1116 1631 619 1453 
L 325 1850 
Q 1703 2213 2903 3078 
Q 2422 3500 2047 3969 
Q 1594 3431 906 2956 
L 619 3309 
Q 1734 4053 2450 5338 
L 2922 5228 
Q 2734 4913 2666 4813 
L 4663 4813 
L 4900 4581 
Q 4313 3738 3588 3091 
Q 4509 2459 6034 2144 
L 5753 1709 
Q 4188 2138 3244 2809 
Q 2572 2300 1747 1906 
L 4991 1906 
z
M 1925 1509 
L 1925 269 
L 4522 269 
L 4522 1509 
L 1925 1509 
z
M 3244 3347 
Q 3809 3813 4253 4422 
L 2403 4422 
Q 2328 4319 2297 4275 
Q 2759 3722 3244 3347 
z
" id="IPAexGothic-5404" transform="scale(0.015625)"/>
       <path d="M 4519 3647 
L 4519 1178 
L 1875 1178 
L 1875 3647 
L 4519 3647 
z
M 2328 3250 
L 2328 1575 
L 4066 1575 
L 4066 3250 
L 2328 3250 
z
M 5722 4891 
L 5722 -456 
L 5247 -456 
L 5247 -103 
L 1147 -103 
L 1147 -456 
L 672 -456 
L 672 4891 
L 5722 4891 
z
M 1147 4475 
L 1147 313 
L 5247 313 
L 5247 4475 
L 1147 4475 
z
" id="IPAexGothic-56de" transform="scale(0.015625)"/>
       <path d="M 1650 3859 
L 1650 3097 
L 1650 2969 
L 2803 2969 
Q 2775 738 2616 -6 
Q 2531 -397 2047 -397 
Q 1753 -397 1466 -366 
L 1394 103 
Q 1663 38 1913 38 
Q 2147 38 2194 250 
Q 2309 875 2356 2388 
L 2356 2566 
L 1638 2566 
Q 1559 663 575 -506 
L 250 -184 
Q 891 581 1094 1613 
Q 1216 2231 1216 3097 
L 1216 3859 
L 416 3859 
L 416 4275 
L 1453 4275 
L 1453 5313 
L 1894 5313 
L 1894 4275 
L 3084 4275 
L 3084 3859 
L 1650 3859 
z
M 5447 3775 
L 5441 3731 
Q 5325 2259 4800 1259 
Q 5388 516 6131 69 
L 5794 -378 
Q 5169 81 4563 850 
Q 4013 19 3150 -475 
L 2841 -78 
Q 3781 388 4294 1241 
Q 3822 1944 3591 2803 
Q 3425 2425 3175 2034 
L 2869 2381 
Q 3519 3459 3775 5291 
L 4231 5200 
Q 4109 4513 4031 4197 
L 5959 4197 
L 5959 3775 
L 5447 3775 
z
M 5013 3775 
L 3925 3775 
Q 3859 3550 3816 3416 
Q 4031 2478 4513 1675 
Q 4897 2559 5013 3775 
z
" id="IPAexGothic-653e" transform="scale(0.015625)"/>
       <path d="M 3688 3672 
L 2241 3672 
L 2241 4056 
L 4091 4056 
Q 4100 4081 4116 4100 
Q 4413 4594 4647 5222 
L 5131 5056 
Q 4863 4506 4563 4056 
L 5722 4056 
L 5722 3672 
L 4128 3672 
L 4128 2822 
L 5950 2822 
L 5950 2425 
L 4122 2425 
Q 4113 2197 4063 1984 
Q 4903 1541 5778 909 
L 5419 513 
Q 4588 1191 3934 1588 
Q 3572 800 2419 434 
L 2106 819 
Q 3613 1213 3681 2425 
L 2022 2425 
L 2022 2822 
L 3688 2822 
L 3688 3672 
z
M 1703 734 
Q 1972 363 2484 216 
Q 2934 88 3938 88 
Q 4791 88 6144 172 
Q 6025 -56 5978 -306 
Q 4884 -347 4353 -347 
Q 2834 -347 2259 -141 
Q 1778 28 1519 397 
Q 1128 -56 647 -453 
L 366 19 
Q 894 341 1263 672 
L 1263 2303 
L 378 2303 
L 378 2731 
L 1703 2731 
L 1703 734 
z
M 1522 3781 
Q 1034 4372 556 4728 
L 872 5056 
Q 1456 4600 1863 4134 
L 1522 3781 
z
M 3188 4091 
Q 2897 4678 2625 4978 
L 3034 5209 
Q 3316 4888 3609 4341 
L 3188 4091 
z
" id="IPAexGothic-9001" transform="scale(0.015625)"/>
       <path d="M 2328 4728 
L 2328 563 
L 934 563 
L 934 56 
L 519 56 
L 519 4728 
L 2328 4728 
z
M 934 4331 
L 934 2881 
L 1906 2881 
L 1906 4331 
L 934 4331 
z
M 934 2497 
L 934 953 
L 1906 953 
L 1906 2497 
L 934 2497 
z
M 3938 4372 
L 3938 5313 
L 4378 5313 
L 4378 4372 
L 5772 4372 
L 5772 3981 
L 4378 3981 
L 4378 3194 
L 6072 3194 
L 6072 2803 
L 5203 2803 
L 5203 2047 
L 5959 2047 
L 5959 1650 
L 5216 1650 
L 5216 31 
Q 5216 -447 4691 -447 
Q 4394 -447 3888 -391 
L 3784 78 
Q 4272 0 4591 0 
Q 4775 0 4775 172 
L 4775 1650 
L 2581 1650 
L 2581 2047 
L 4763 2047 
L 4763 2803 
L 2538 2803 
L 2538 3194 
L 3938 3194 
L 3938 3981 
L 2716 3981 
L 2716 4372 
L 3938 4372 
z
M 3669 384 
Q 3331 950 2956 1325 
L 3291 1575 
Q 3719 1147 4025 659 
L 3669 384 
z
" id="IPAexGothic-6642" transform="scale(0.015625)"/>
       <path d="M 4450 2566 
L 4450 353 
L 2375 353 
L 2375 -25 
L 1953 -25 
L 1953 2566 
L 4450 2566 
z
M 4028 2200 
L 2375 2200 
L 2375 1653 
L 4028 1653 
L 4028 2200 
z
M 4028 1300 
L 2375 1300 
L 2375 719 
L 4028 719 
L 4028 1300 
z
M 2913 5019 
L 2913 3059 
L 1056 3059 
L 1056 -447 
L 609 -447 
L 609 5019 
L 2913 5019 
z
M 1056 4659 
L 1056 4206 
L 2497 4206 
L 2497 4659 
L 1056 4659 
z
M 1056 3881 
L 1056 3413 
L 2497 3413 
L 2497 3881 
L 1056 3881 
z
M 5788 5019 
L 5788 91 
Q 5788 -225 5641 -331 
Q 5525 -409 5231 -409 
Q 4803 -409 4481 -366 
L 4419 97 
Q 4853 38 5128 38 
Q 5341 38 5341 244 
L 5341 3059 
L 3438 3059 
L 3438 5019 
L 5788 5019 
z
M 3853 4659 
L 3853 4206 
L 5341 4206 
L 5341 4659 
L 3853 4659 
z
M 3853 3881 
L 3853 3413 
L 5341 3413 
L 5341 3881 
L 3853 3881 
z
" id="IPAexGothic-9593" transform="scale(0.015625)"/>
       <path d="M 5419 -434 
Q 4197 769 4197 2438 
Q 4197 4097 5419 5300 
L 5919 5300 
Q 4678 4078 4678 2425 
Q 4678 788 5919 -434 
L 5419 -434 
z
" id="IPAexGothic-ff08" transform="scale(0.015625)"/>
       <path d="M 481 -434 
Q 1722 788 1722 2431 
Q 1722 4066 481 5300 
L 981 5300 
Q 2203 4097 2203 2431 
Q 2203 769 981 -434 
L 481 -434 
z
" id="IPAexGothic-ff09" transform="scale(0.015625)"/>
      </defs>
      <use xlink:href="#IPAexGothic-5404"/>
      <use x="100" xlink:href="#IPAexGothic-56de"/>
      <use x="200" xlink:href="#IPAexGothic-653e"/>
      <use x="300" xlink:href="#IPAexGothic-9001"/>
      <use x="400" xlink:href="#IPAexGothic-6642"/>
      <use x="500" xlink:href="#IPAexGothic-9593"/>
      <use x="600" xlink:href="#IPAexGothic-ff08"/>
      <use x="700" xlink:href="#IPAexGothic-6642"/>
      <use x="800" xlink:href="#IPAexGothic-9593"/>
      <use x="900" xlink:href="#IPAexGothic-ff09"/>
     </g>
    </g>
   </g>
   <g id="matplotlib.axis_2">
    <g id="ytick_1">
     <g id="line2d_17">
      <defs>
       <path d="M 0 0 
L -3.5 0 
" id="ma4df2aba7e" style="stroke:#555555;stroke-width:0.8;"/>
      </defs>
      <g>
       <use style="fill:#555555;stroke:#555555;stroke-width:0.8;" x="230.4" xlink:href="#ma4df2aba7e" y="100.8"/>
      </g>
     </g>
     <g id="text_10">
      <!-- 村上奈津実のなっチャンネル -->
      <g style="fill:#555555;" transform="translate(93.4 104.545313)scale(0.1 -0.1)">
       <defs>
        <path d="M 1597 2691 
Q 1241 1606 616 731 
L 309 1159 
Q 1119 2163 1494 3534 
L 475 3534 
L 475 3956 
L 1597 3956 
L 1597 5244 
L 2044 5244 
L 2044 3956 
L 2875 3956 
L 2875 3534 
L 2044 3534 
L 2044 2900 
Q 2050 2894 2069 2881 
Q 2106 2850 2125 2838 
Q 2672 2409 3084 1941 
L 2791 1506 
Q 2425 2000 2044 2403 
L 2044 -447 
L 1597 -447 
L 1597 2691 
z
M 4706 3956 
L 4706 5209 
L 5166 5209 
L 5166 3956 
L 6031 3956 
L 6031 3528 
L 5200 3528 
L 5200 134 
Q 5200 -366 4591 -366 
Q 4178 -366 3706 -313 
L 3631 166 
Q 4153 94 4519 94 
Q 4731 94 4731 300 
L 4731 3528 
L 3028 3528 
L 3028 3956 
L 4706 3956 
z
M 3847 1275 
Q 3519 2088 3072 2731 
L 3456 2963 
Q 3903 2353 4263 1550 
L 3847 1275 
z
" id="IPAexGothic-6751" transform="scale(0.015625)"/>
        <path d="M 3259 3366 
L 5475 3366 
L 5475 2913 
L 3259 2913 
L 3259 556 
L 5991 556 
L 5991 103 
L 391 103 
L 391 556 
L 2772 556 
L 2772 5050 
L 3259 5050 
L 3259 3366 
z
" id="IPAexGothic-4e0a" transform="scale(0.015625)"/>
        <path d="M 2406 4372 
Q 2641 4813 2797 5313 
L 3263 5216 
Q 3106 4766 2903 4372 
L 5850 4372 
L 5850 3975 
L 4203 3975 
Q 4934 3169 6103 2650 
L 5797 2253 
Q 4481 2916 3691 3975 
L 2669 3975 
Q 2319 3453 1888 3041 
L 4575 3041 
L 4575 2644 
L 1828 2644 
L 1828 2991 
Q 1297 2513 606 2144 
L 313 2509 
Q 1506 3072 2156 3975 
L 544 3975 
L 544 4372 
L 2406 4372 
z
M 3469 1650 
L 3469 147 
Q 3469 -131 3353 -238 
Q 3231 -359 2866 -359 
Q 2509 -359 2163 -313 
L 2078 172 
Q 2441 88 2788 88 
Q 2994 88 2994 313 
L 2994 1650 
L 844 1650 
L 844 2041 
L 5563 2041 
L 5563 1650 
L 3469 1650 
z
M 447 250 
Q 1366 719 1869 1394 
L 2272 1153 
Q 1594 331 794 -141 
L 447 250 
z
M 5478 -50 
Q 4788 628 3994 1141 
L 4331 1434 
Q 5006 1031 5881 313 
L 5478 -50 
z
" id="IPAexGothic-5948" transform="scale(0.015625)"/>
        <path d="M 3541 4634 
L 3541 5313 
L 3994 5313 
L 3994 4634 
L 5428 4634 
L 5428 3725 
L 6069 3725 
L 6069 3353 
L 5428 3353 
L 5428 2431 
L 3994 2431 
L 3994 1906 
L 5741 1906 
L 5741 1528 
L 3994 1528 
L 3994 1006 
L 6094 1006 
L 6094 609 
L 3994 609 
L 3994 -447 
L 3541 -447 
L 3541 609 
L 1734 609 
L 1734 1006 
L 3541 1006 
L 3541 1528 
L 2025 1528 
L 2025 1906 
L 3541 1906 
L 3541 2431 
L 2209 2431 
L 2209 2791 
L 3541 2791 
L 3541 3353 
L 1819 3353 
L 1819 3725 
L 3541 3725 
L 3541 4269 
L 2209 4269 
L 2209 4634 
L 3541 4634 
z
M 4988 4269 
L 3994 4269 
L 3994 3725 
L 4988 3725 
L 4988 4269 
z
M 4988 3353 
L 3994 3353 
L 3994 2791 
L 4988 2791 
L 4988 3353 
z
M 1509 3872 
Q 1075 4369 603 4722 
L 916 5075 
Q 1425 4700 1838 4250 
L 1509 3872 
z
M 1344 2394 
Q 831 2934 391 3250 
L 697 3603 
Q 1225 3238 1666 2753 
L 1344 2394 
z
M 391 -13 
Q 925 800 1356 1978 
L 1728 1638 
Q 1322 513 806 -391 
L 391 -13 
z
" id="IPAexGothic-6d25" transform="scale(0.015625)"/>
        <path d="M 3525 1275 
Q 4288 350 6022 91 
L 5738 -375 
Q 3953 -41 3219 1050 
Q 2731 -144 728 -472 
L 466 -44 
Q 2422 150 2872 1275 
L 384 1275 
L 384 1659 
L 2950 1659 
L 2950 2144 
L 966 2144 
L 966 2509 
L 2950 2509 
L 2950 2969 
L 1266 2969 
L 1266 3341 
L 2950 3341 
L 2950 3988 
L 3403 3988 
L 3403 3341 
L 5125 3341 
L 5125 2969 
L 3403 2969 
L 3403 2509 
L 5444 2509 
L 5444 2144 
L 3403 2144 
L 3403 1659 
L 6016 1659 
L 6016 1275 
L 3525 1275 
z
M 3413 4544 
L 5778 4544 
L 5778 3269 
L 5309 3269 
L 5309 4147 
L 1084 4147 
L 1084 3269 
L 616 3269 
L 616 4544 
L 2938 4544 
L 2938 5313 
L 3413 5313 
L 3413 4544 
z
" id="IPAexGothic-5b9f" transform="scale(0.015625)"/>
        <path d="M 3119 469 
Q 5275 766 5275 2425 
Q 5275 3453 4413 3925 
Q 4041 4116 3547 4159 
Q 3394 2525 2850 1400 
Q 2322 306 1722 306 
Q 1384 306 1084 666 
Q 609 1244 609 2003 
Q 609 3025 1397 3794 
Q 2184 4563 3431 4563 
Q 4306 4563 4928 4122 
Q 5813 3506 5813 2425 
Q 5813 438 3431 6 
L 3119 469 
z
M 3053 4147 
Q 2378 4044 1891 3641 
Q 1097 2981 1097 1991 
Q 1097 1366 1434 978 
Q 1581 813 1719 813 
Q 2022 813 2416 1625 
Q 2909 2638 3053 4147 
z
" id="IPAexGothic-306e" transform="scale(0.015625)"/>
        <path d="M 3906 3147 
L 4372 3147 
Q 4381 2278 4444 1272 
Q 5244 1003 5838 631 
L 5556 222 
Q 4953 600 4463 813 
Q 4478 263 4234 22 
Q 3984 -225 3419 -225 
Q 2897 -225 2563 0 
Q 2216 231 2216 647 
Q 2216 1081 2656 1319 
Q 2959 1484 3297 1484 
Q 3638 1484 3969 1413 
Q 3916 2219 3906 3147 
z
M 3975 984 
Q 3631 1081 3297 1081 
Q 3031 1081 2856 978 
Q 2663 863 2663 653 
Q 2663 197 3400 197 
Q 3750 197 3875 378 
Q 3997 556 3975 984 
z
M 738 3928 
Q 1453 3884 1997 3938 
Q 2144 4381 2294 5125 
L 2784 5050 
Q 2684 4559 2516 3988 
Q 2969 4031 3559 4172 
L 3578 3713 
Q 2919 3575 2375 3531 
Q 1853 2028 1044 831 
L 603 1113 
Q 1325 2063 1856 3488 
Q 1063 3459 763 3475 
L 738 3928 
z
M 5538 2759 
Q 5000 3353 4263 3853 
L 4591 4191 
Q 5338 3728 5897 3128 
L 5538 2759 
z
" id="IPAexGothic-306a" transform="scale(0.015625)"/>
        <path d="M 1113 2656 
Q 2778 3103 3709 3103 
Q 4359 3103 4734 2778 
Q 5150 2409 5150 1803 
Q 5150 247 2456 25 
L 2231 494 
Q 3425 541 4028 878 
Q 4663 1231 4663 1806 
Q 4663 2681 3647 2681 
Q 2834 2681 1319 2203 
L 1113 2656 
z
" id="IPAexGothic-3063" transform="scale(0.015625)"/>
        <path d="M 3088 2853 
L 3088 3981 
Q 2359 3847 1531 3797 
L 1288 4238 
Q 3200 4344 4553 4872 
L 4909 4456 
Q 4244 4216 3606 4078 
L 3606 2913 
L 5806 2913 
L 5806 2459 
L 3600 2459 
Q 3559 1422 3188 850 
Q 2722 138 1738 -256 
L 1347 153 
Q 2319 500 2709 1081 
Q 3031 1563 3081 2400 
L 597 2400 
L 597 2853 
L 3088 2853 
z
" id="IPAexGothic-30c1" transform="scale(0.015625)"/>
        <path d="M 2559 3903 
L 2803 2816 
L 4863 3169 
L 5191 2894 
Q 4672 1875 4103 1203 
L 3666 1447 
Q 4175 2013 4525 2688 
L 2900 2388 
L 3450 -116 
L 2969 -231 
L 2419 2297 
L 1172 2069 
L 1075 2516 
L 2328 2731 
L 2094 3809 
L 2559 3903 
z
" id="IPAexGothic-30e3" transform="scale(0.015625)"/>
        <path d="M 2444 3084 
Q 1816 3656 1056 4084 
L 1381 4519 
Q 2063 4191 2816 3559 
L 2444 3084 
z
M 1100 609 
Q 3984 1106 5216 3828 
L 5619 3469 
Q 4413 794 1434 103 
L 1100 609 
z
" id="IPAexGothic-30f3" transform="scale(0.015625)"/>
        <path d="M 1288 3834 
L 4803 3834 
L 5066 3559 
Q 4419 2813 3466 2134 
L 3466 -294 
L 2953 -294 
L 2953 1800 
Q 1963 1203 1056 891 
L 731 1328 
Q 1797 1631 2844 2281 
Q 3675 2794 4253 3381 
L 1288 3381 
L 1288 3834 
z
M 3669 4031 
Q 3094 4459 2291 4850 
L 2572 5222 
Q 3334 4884 4000 4428 
L 3669 4031 
z
M 5441 838 
Q 4781 1413 3859 1966 
L 4159 2316 
Q 5078 1819 5825 1247 
L 5441 838 
z
" id="IPAexGothic-30cd" transform="scale(0.015625)"/>
        <path d="M 353 331 
Q 1313 994 1544 2022 
Q 1684 2650 1684 4397 
L 2203 4397 
L 2203 4153 
L 2203 4116 
Q 2203 2259 1934 1491 
Q 1619 588 744 -38 
L 353 331 
z
M 3125 4666 
L 3650 4666 
L 3650 769 
Q 4875 1488 5672 2734 
L 6000 2278 
Q 5075 966 3516 63 
L 3125 359 
L 3125 4666 
z
" id="IPAexGothic-30eb" transform="scale(0.015625)"/>
       </defs>
       <use xlink:href="#IPAexGothic-6751"/>
       <use x="100" xlink:href="#IPAexGothic-4e0a"/>
       <use x="200" xlink:href="#IPAexGothic-5948"/>
       <use x="300" xlink:href="#IPAexGothic-6d25"/>
       <use x="400" xlink:href="#IPAexGothic-5b9f"/>
       <use x="500" xlink:href="#IPAexGothic-306e"/>
       <use x="600" xlink:href="#IPAexGothic-306a"/>
       <use x="700" xlink:href="#IPAexGothic-3063"/>
       <use x="800" xlink:href="#IPAexGothic-30c1"/>
       <use x="900" xlink:href="#IPAexGothic-30e3"/>
       <use x="1000" xlink:href="#IPAexGothic-30f3"/>
       <use x="1100" xlink:href="#IPAexGothic-30cd"/>
       <use x="1200" xlink:href="#IPAexGothic-30eb"/>
      </g>
     </g>
    </g>
    <g id="ytick_2">
     <g id="line2d_18">
      <g>
       <use style="fill:#555555;stroke:#555555;stroke-width:0.8;" x="230.4" xlink:href="#ma4df2aba7e" y="164.16"/>
      </g>
     </g>
     <g id="text_11">
      <!-- 久保田未夢のNice to MEAT you ＆ YOU -->
      <g style="fill:#555555;" transform="translate(43.003125 168.31)scale(0.1 -0.1)">
       <defs>
        <path d="M 2744 4519 
L 4275 4519 
L 4531 4288 
Q 4275 3213 3813 2319 
L 3853 2259 
Q 4613 988 6003 231 
L 5631 -234 
Q 4253 722 3550 1856 
Q 2641 359 888 -375 
L 563 53 
Q 2181 675 3019 1928 
Q 3694 2938 3941 4084 
L 2559 4084 
L 2534 4034 
Q 2009 2903 1063 2009 
L 697 2363 
Q 1947 3438 2413 5178 
L 2925 5050 
Q 2794 4647 2744 4519 
z
" id="IPAexGothic-4e45" transform="scale(0.015625)"/>
        <path d="M 4216 1856 
Q 4934 975 6103 403 
L 5791 -13 
Q 4647 681 4075 1497 
L 4075 -447 
L 3622 -447 
L 3622 1459 
Q 3088 534 2003 -141 
L 1697 250 
Q 2797 766 3463 1856 
L 1800 1856 
L 1800 2259 
L 3622 2259 
L 3622 3013 
L 2369 3013 
L 2369 4978 
L 5369 4978 
L 5369 3013 
L 4075 3013 
L 4075 2259 
L 5963 2259 
L 5963 1856 
L 4216 1856 
z
M 2809 4588 
L 2809 3397 
L 4928 3397 
L 4928 4588 
L 2809 4588 
z
M 1503 3775 
L 1503 -441 
L 1063 -441 
L 1063 2822 
Q 825 2391 531 1978 
L 281 2369 
Q 1125 3591 1522 5325 
L 1963 5222 
Q 1775 4500 1503 3775 
z
" id="IPAexGothic-4fdd" transform="scale(0.015625)"/>
        <path d="M 5559 4703 
L 5559 -256 
L 5091 -256 
L 5091 128 
L 1300 128 
L 1300 -294 
L 831 -294 
L 831 4703 
L 5559 4703 
z
M 1300 4288 
L 1300 2650 
L 2950 2650 
L 2950 4288 
L 1300 4288 
z
M 1300 2241 
L 1300 544 
L 2950 544 
L 2950 2241 
L 1300 2241 
z
M 5091 544 
L 5091 2241 
L 3403 2241 
L 3403 544 
L 5091 544 
z
M 5091 2650 
L 5091 4288 
L 3403 4288 
L 3403 2650 
L 5091 2650 
z
" id="IPAexGothic-7530" transform="scale(0.015625)"/>
        <path d="M 3656 2438 
Q 4506 1213 6094 378 
L 5744 -91 
Q 4197 894 3413 2131 
L 3413 -450 
L 2938 -450 
L 2938 2078 
Q 2191 694 684 -213 
L 341 203 
Q 1834 981 2725 2438 
L 447 2438 
L 447 2853 
L 2938 2853 
L 2938 3903 
L 959 3903 
L 959 4319 
L 2938 4319 
L 2938 5309 
L 3413 5309 
L 3413 4319 
L 5434 4319 
L 5434 3903 
L 3413 3903 
L 3413 2853 
L 5947 2853 
L 5947 2438 
L 3656 2438 
z
" id="IPAexGothic-672a" transform="scale(0.015625)"/>
        <path d="M 4359 3975 
L 5325 3975 
L 5325 2766 
L 1069 2766 
L 1069 3975 
L 1991 3975 
L 1991 4403 
L 416 4403 
L 416 4775 
L 1991 4775 
L 1991 5313 
L 2438 5313 
L 2438 4775 
L 3916 4775 
L 3916 5313 
L 4359 5313 
L 4359 4775 
L 5978 4775 
L 5978 4403 
L 4359 4403 
L 4359 3975 
z
M 3916 3975 
L 3916 4403 
L 2438 4403 
L 2438 3975 
L 3916 3975 
z
M 2356 3634 
L 1497 3634 
L 1497 3097 
L 2356 3097 
L 2356 3634 
z
M 2753 3634 
L 2753 3097 
L 3622 3097 
L 3622 3634 
L 2753 3634 
z
M 4013 3634 
L 4013 3097 
L 4897 3097 
L 4897 3634 
L 4013 3634 
z
M 3109 2066 
Q 3013 1909 2834 1697 
L 4750 1697 
L 4975 1484 
Q 4063 363 2878 -128 
Q 2209 -397 1181 -544 
L 931 -153 
Q 2216 -9 3041 397 
Q 2644 669 2091 991 
Q 1700 697 1234 513 
L 944 831 
Q 2000 1244 2603 2066 
L 1022 2066 
L 1022 1388 
L 575 1388 
L 575 2425 
L 5838 2425 
L 5838 1388 
L 5384 1388 
L 5384 2066 
L 3109 2066 
z
M 2500 1338 
Q 2416 1250 2394 1234 
Q 2875 981 3444 634 
Q 3831 881 4275 1338 
L 2500 1338 
z
" id="IPAexGothic-5922" transform="scale(0.015625)"/>
        <path d="M 4244 63 
L 3731 63 
L 1697 3150 
Q 1466 3500 1141 4097 
L 1116 4097 
L 1128 3797 
Q 1159 2803 1159 2469 
L 1159 63 
L 609 63 
L 609 4634 
L 1366 4634 
L 3113 1978 
Q 3453 1447 3713 966 
L 3738 966 
Q 3694 1897 3694 2469 
L 3694 4634 
L 4244 4634 
L 4244 63 
z
" id="IPAexGothic-4e" transform="scale(0.015625)"/>
        <path d="M 1178 3928 
L 550 3928 
L 550 4569 
L 1178 4569 
L 1178 3928 
z
M 1138 63 
L 588 63 
L 588 3250 
L 1138 3250 
L 1138 63 
z
" id="IPAexGothic-69" transform="scale(0.015625)"/>
        <path d="M 3269 784 
Q 2834 -31 1900 -31 
Q 1228 -31 788 409 
Q 313 891 313 1663 
Q 313 2428 788 2913 
Q 1222 3347 1881 3347 
Q 2813 3347 3206 2541 
L 2763 2309 
Q 2484 2900 1900 2900 
Q 1516 2900 1234 2619 
Q 881 2266 881 1650 
Q 881 1069 1222 728 
Q 1522 428 1956 428 
Q 2547 428 2847 1016 
L 3269 784 
z
" id="IPAexGothic-63" transform="scale(0.015625)"/>
        <path d="M 863 1594 
Q 891 1041 1209 722 
Q 1534 397 1997 397 
Q 2606 397 2963 966 
L 3322 728 
Q 2869 -31 1931 -31 
Q 1222 -31 766 422 
Q 306 884 306 1641 
Q 306 2444 788 2925 
Q 1216 3353 1856 3353 
Q 2459 3353 2866 2956 
Q 3322 2494 3322 1722 
L 3322 1594 
L 863 1594 
z
M 2756 1997 
Q 2709 2431 2450 2681 
Q 2194 2938 1844 2938 
Q 1438 2938 1150 2591 
Q 953 2356 894 1997 
L 2756 1997 
z
" id="IPAexGothic-65" transform="scale(0.015625)"/>
        <path id="IPAexGothic-20" transform="scale(0.015625)"/>
        <path d="M 2125 241 
Q 1769 -6 1397 -6 
Q 653 -6 653 831 
L 653 2859 
L 219 2859 
L 219 3250 
L 653 3250 
L 653 3966 
L 1178 4228 
L 1178 3250 
L 2063 3250 
L 2063 2859 
L 1178 2859 
L 1178 906 
Q 1178 416 1513 416 
Q 1738 416 1941 588 
L 2125 241 
z
" id="IPAexGothic-74" transform="scale(0.015625)"/>
        <path d="M 1919 3341 
Q 2594 3341 3056 2888 
Q 3531 2413 3531 1638 
Q 3531 888 3066 422 
Q 2609 -31 1919 -31 
Q 1228 -31 781 416 
Q 313 881 313 1656 
Q 313 2413 788 2888 
Q 1241 3341 1919 3341 
z
M 1919 2919 
Q 1519 2919 1241 2631 
Q 888 2278 888 1650 
Q 888 1031 1234 684 
Q 1516 403 1919 403 
Q 2331 403 2609 691 
Q 2956 1038 2956 1672 
Q 2956 2269 2603 2631 
Q 2316 2919 1919 2919 
z
" id="IPAexGothic-6f" transform="scale(0.015625)"/>
        <path d="M 5147 63 
L 4597 63 
L 4597 2534 
Q 4597 3281 4634 4134 
L 4609 4134 
Q 4356 3409 4066 2675 
L 3066 209 
L 2650 209 
L 1641 2725 
Q 1328 3506 1128 4141 
L 1103 4141 
Q 1141 3131 1141 2553 
L 1141 63 
L 609 63 
L 609 4634 
L 1416 4634 
L 2503 1944 
Q 2697 1472 2869 906 
L 2888 906 
Q 3028 1416 3234 1931 
L 4316 4634 
L 5147 4634 
L 5147 63 
z
" id="IPAexGothic-4d" transform="scale(0.015625)"/>
        <path d="M 3547 63 
L 609 63 
L 609 4634 
L 3469 4634 
L 3469 4147 
L 1166 4147 
L 1166 2650 
L 3206 2650 
L 3206 2191 
L 1166 2191 
L 1166 556 
L 3547 556 
L 3547 63 
z
" id="IPAexGothic-45" transform="scale(0.015625)"/>
        <path d="M 4056 63 
L 3444 63 
L 2938 1409 
L 1100 1409 
L 603 63 
L -6 63 
L 1806 4666 
L 2259 4666 
L 4056 63 
z
M 2778 1863 
L 2316 3078 
Q 2125 3588 2028 4000 
L 2009 4000 
Q 1897 3563 1716 3078 
L 1263 1863 
L 2778 1863 
z
" id="IPAexGothic-41" transform="scale(0.015625)"/>
        <path d="M 3866 4141 
L 2175 4141 
L 2175 63 
L 1606 63 
L 1606 4141 
L -31 4141 
L -31 4634 
L 3866 4634 
L 3866 4141 
z
" id="IPAexGothic-54" transform="scale(0.015625)"/>
        <path d="M 3122 3250 
L 1575 -488 
Q 1278 -1203 550 -1203 
L 478 -1203 
L 344 -703 
L 447 -703 
Q 969 -703 1150 -238 
L 1356 275 
L 38 3250 
L 659 3250 
L 1363 1459 
Q 1528 1025 1606 781 
L 1625 781 
Q 1750 1169 1863 1459 
L 2528 3250 
L 3122 3250 
z
" id="IPAexGothic-79" transform="scale(0.015625)"/>
        <path d="M 3284 63 
L 2772 63 
L 2772 644 
Q 2300 0 1625 0 
Q 1072 0 763 375 
Q 519 678 519 1241 
L 519 3250 
L 1069 3250 
L 1069 1259 
Q 1069 466 1734 466 
Q 2406 466 2734 1291 
L 2734 3250 
L 3284 3250 
L 3284 63 
z
" id="IPAexGothic-75" transform="scale(0.015625)"/>
        <path d="M 4881 325 
L 4350 838 
Q 3672 197 2781 197 
Q 2072 197 1572 563 
Q 1131 888 1131 1438 
Q 1131 2231 2334 2769 
Q 1759 3384 1759 3891 
Q 1759 4428 2206 4722 
Q 2525 4934 2981 4934 
Q 3503 4934 3838 4647 
Q 4197 4325 4197 3884 
Q 4197 3181 3256 2731 
L 3097 2656 
L 4325 1541 
Q 4616 1991 4734 2513 
L 5259 2513 
Q 5081 1816 4678 1222 
L 5669 325 
L 4881 325 
z
M 2675 2463 
Q 2194 2238 2009 2097 
Q 1663 1838 1663 1469 
Q 1663 1094 2003 863 
Q 2303 656 2781 656 
Q 3509 656 4019 1156 
L 2675 2463 
z
M 2756 2963 
Q 3250 3194 3416 3334 
Q 3672 3544 3672 3872 
Q 3672 4184 3428 4359 
Q 3241 4488 2988 4488 
Q 2278 4488 2278 3853 
Q 2278 3472 2713 3006 
L 2756 2963 
z
" id="IPAexGothic-ff06" transform="scale(0.015625)"/>
        <path d="M 3963 4634 
L 2241 2188 
L 2241 63 
L 1678 63 
L 1678 2188 
L -13 4634 
L 697 4634 
L 1978 2638 
L 3256 4634 
L 3963 4634 
z
" id="IPAexGothic-59" transform="scale(0.015625)"/>
        <path d="M 2541 4725 
Q 3456 4725 4044 4138 
Q 4709 3472 4709 2331 
Q 4709 1219 4031 550 
Q 3450 -31 2541 -31 
Q 1638 -31 1056 550 
Q 378 1219 378 2356 
Q 378 3469 1044 4138 
Q 1631 4725 2541 4725 
z
M 2541 4266 
Q 1953 4266 1531 3844 
Q 994 3303 994 2350 
Q 994 1391 1531 863 
Q 1947 447 2541 447 
Q 3131 447 3556 863 
Q 4094 1400 4094 2375 
Q 4094 3297 3550 3844 
Q 3138 4266 2541 4266 
z
" id="IPAexGothic-4f" transform="scale(0.015625)"/>
        <path d="M 4219 4634 
L 4219 1631 
Q 4219 994 3906 594 
Q 3400 -63 2388 -63 
Q 1372 -63 856 594 
Q 550 988 550 1631 
L 550 4634 
L 1113 4634 
L 1113 1700 
Q 1113 1134 1388 831 
Q 1753 428 2388 428 
Q 3031 428 3388 831 
Q 3663 1144 3663 1700 
L 3663 4634 
L 4219 4634 
z
" id="IPAexGothic-55" transform="scale(0.015625)"/>
       </defs>
       <use xlink:href="#IPAexGothic-4e45"/>
       <use x="100" xlink:href="#IPAexGothic-4fdd"/>
       <use x="200" xlink:href="#IPAexGothic-7530"/>
       <use x="300" xlink:href="#IPAexGothic-672a"/>
       <use x="400" xlink:href="#IPAexGothic-5922"/>
       <use x="500" xlink:href="#IPAexGothic-306e"/>
       <use x="600" xlink:href="#IPAexGothic-4e"/>
       <use x="675.976562" xlink:href="#IPAexGothic-69"/>
       <use x="702.978516" xlink:href="#IPAexGothic-63"/>
       <use x="757.373047" xlink:href="#IPAexGothic-65"/>
       <use x="814.257812" xlink:href="#IPAexGothic-20"/>
       <use x="841.259766" xlink:href="#IPAexGothic-74"/>
       <use x="875.878906" xlink:href="#IPAexGothic-6f"/>
       <use x="936.279297" xlink:href="#IPAexGothic-20"/>
       <use x="963.28125" xlink:href="#IPAexGothic-4d"/>
       <use x="1053.466797" xlink:href="#IPAexGothic-45"/>
       <use x="1112.988281" xlink:href="#IPAexGothic-41"/>
       <use x="1176.708984" xlink:href="#IPAexGothic-54"/>
       <use x="1236.621094" xlink:href="#IPAexGothic-20"/>
       <use x="1263.623047" xlink:href="#IPAexGothic-79"/>
       <use x="1312.841797" xlink:href="#IPAexGothic-6f"/>
       <use x="1373.242188" xlink:href="#IPAexGothic-75"/>
       <use x="1433.642578" xlink:href="#IPAexGothic-20"/>
       <use x="1460.644531" xlink:href="#IPAexGothic-ff06"/>
       <use x="1560.644531" xlink:href="#IPAexGothic-20"/>
       <use x="1587.646484" xlink:href="#IPAexGothic-59"/>
       <use x="1649.560547" xlink:href="#IPAexGothic-4f"/>
       <use x="1729.248047" xlink:href="#IPAexGothic-55"/>
      </g>
     </g>
    </g>
    <g id="ytick_3">
     <g id="line2d_19">
      <g>
       <use style="fill:#555555;stroke:#555555;stroke-width:0.8;" x="230.4" xlink:href="#ma4df2aba7e" y="227.52"/>
      </g>
     </g>
     <g id="text_12">
      <!-- かおりんがゆく〜王国奮闘日誌〜 -->
      <g style="fill:#555555;" transform="translate(73.4 231.265312)scale(0.1 -0.1)">
       <defs>
        <path d="M 659 3384 
Q 1434 3503 2113 3581 
Q 2313 4341 2394 4972 
L 2900 4875 
Q 2759 4147 2619 3628 
L 2719 3634 
Q 2894 3641 3041 3641 
Q 4072 3641 4072 2369 
Q 4072 1128 3700 384 
Q 3478 -56 3003 -56 
Q 2591 -56 2113 231 
L 2138 775 
Q 2631 444 2925 444 
Q 3169 444 3297 706 
Q 3566 1294 3566 2388 
Q 3566 3219 3016 3219 
Q 2825 3219 2497 3194 
Q 2388 2763 2113 2047 
Q 1634 797 1119 -38 
L 678 244 
Q 1356 1238 1863 2750 
Q 1888 2819 1991 3128 
Q 1594 3081 769 2916 
L 659 3384 
z
M 5644 1753 
Q 5072 3025 4238 3916 
L 4641 4184 
Q 5494 3275 6081 2094 
L 5644 1753 
z
" id="IPAexGothic-304b" transform="scale(0.015625)"/>
        <path d="M 2113 4891 
L 2588 4891 
L 2588 3853 
Q 3216 3956 3675 4084 
L 3719 3634 
Q 3034 3469 2588 3419 
L 2588 2456 
Q 3184 2656 3803 2656 
Q 4438 2656 4866 2431 
Q 5494 2113 5494 1447 
Q 5494 28 3278 -97 
L 3053 366 
Q 3759 366 4259 550 
Q 4975 828 4975 1428 
Q 4975 2247 3766 2247 
Q 3191 2247 2588 2034 
L 2588 459 
Q 2588 141 2438 6 
Q 2313 -103 2056 -103 
Q 1547 -103 1128 231 
Q 763 519 763 856 
Q 763 1675 2113 2278 
L 2113 3359 
Q 1572 3297 959 3297 
L 959 3750 
L 1031 3750 
Q 1647 3750 2113 3794 
L 2113 4891 
z
M 2113 1838 
Q 1250 1444 1250 869 
Q 1250 716 1391 575 
Q 1616 350 1888 350 
Q 2113 350 2113 581 
L 2113 1838 
z
M 5422 3028 
Q 4844 3653 4084 4134 
L 4391 4475 
Q 5113 4047 5769 3413 
L 5422 3028 
z
" id="IPAexGothic-304a" transform="scale(0.015625)"/>
        <path d="M 2878 2925 
Q 2503 2294 2372 2041 
Q 2222 1750 2163 1459 
L 1716 1503 
Q 1509 2131 1509 3091 
Q 1509 3744 1663 4872 
L 2181 4806 
Q 2003 3541 2003 3016 
Q 2003 2613 2028 2259 
Q 2109 2413 2313 2766 
Q 2484 3063 2578 3238 
L 2878 2925 
z
M 2488 128 
Q 3534 503 3928 1184 
Q 4234 1713 4234 2975 
Q 4234 3872 4122 4928 
L 4666 4928 
Q 4759 3794 4759 2975 
Q 4759 1516 4356 844 
Q 3913 103 2853 -288 
L 2488 128 
z
" id="IPAexGothic-308a" transform="scale(0.015625)"/>
        <path d="M 659 31 
Q 1684 2316 3066 4934 
L 3559 4703 
Q 2781 3375 2156 2100 
Q 2659 2572 3109 2572 
Q 3619 2572 3781 2059 
Q 3863 1803 3872 1147 
Q 3881 328 4313 328 
Q 4928 328 5466 1663 
L 5875 1288 
Q 5175 -178 4300 -178 
Q 3400 -178 3400 1069 
L 3400 1119 
Q 3400 2125 3003 2125 
Q 2153 2125 1128 -178 
L 659 31 
z
" id="IPAexGothic-3093" transform="scale(0.015625)"/>
        <path d="M 659 3384 
Q 1434 3503 2113 3581 
Q 2313 4341 2394 4972 
L 2900 4875 
Q 2759 4147 2619 3628 
L 2719 3634 
Q 2894 3641 3041 3641 
Q 4072 3641 4072 2369 
Q 4072 1128 3700 384 
Q 3478 -56 3003 -56 
Q 2591 -56 2113 231 
L 2138 775 
Q 2631 444 2925 444 
Q 3169 444 3297 706 
Q 3566 1294 3566 2388 
Q 3566 3219 3016 3219 
Q 2825 3219 2497 3194 
Q 2388 2763 2113 2047 
Q 1634 797 1119 -38 
L 678 244 
Q 1356 1238 1863 2750 
Q 1888 2819 1991 3128 
Q 1594 3081 769 2916 
L 659 3384 
z
M 5441 1838 
Q 4913 3038 4091 3916 
L 4475 4184 
Q 5350 3269 5888 2156 
L 5441 1838 
z
M 5913 4275 
Q 5553 4819 5159 5147 
L 5459 5375 
Q 5844 5066 6234 4550 
L 5913 4275 
z
M 5344 3788 
Q 5053 4278 4609 4678 
L 4922 4922 
Q 5294 4613 5678 4063 
L 5344 3788 
z
" id="IPAexGothic-304c" transform="scale(0.015625)"/>
        <path d="M 1509 4506 
Q 1275 3444 1275 2606 
Q 1275 2406 1281 2259 
Q 2150 3856 3500 4097 
Q 3494 4325 3450 4813 
L 3438 4991 
L 3944 4991 
L 3956 4819 
L 3963 4678 
L 3981 4441 
L 3988 4294 
L 4000 4128 
Q 4653 4078 5069 3775 
Q 5703 3325 5703 2522 
Q 5703 1572 4959 1141 
Q 4519 881 3853 891 
Q 3591 97 2919 -366 
L 2491 -44 
Q 3103 309 3372 972 
Q 2678 1181 2209 1747 
L 2503 2081 
Q 2916 1572 3481 1388 
Q 3563 1750 3563 2394 
Q 3563 2863 3525 3681 
Q 2694 3528 1972 2591 
Q 1369 1809 1369 1166 
Q 1369 925 1428 659 
L 947 594 
Q 794 1594 794 2566 
Q 794 3619 1019 4603 
L 1509 4506 
z
M 4019 3694 
Q 4044 3056 4044 2491 
Q 4044 1825 3956 1319 
Q 4519 1328 4838 1638 
Q 5178 1978 5178 2522 
Q 5178 3559 4019 3694 
z
" id="IPAexGothic-3086" transform="scale(0.015625)"/>
        <path d="M 4022 -300 
Q 3050 984 1863 2047 
Q 1538 2338 1538 2522 
Q 1538 2700 1953 3041 
Q 3144 4019 3816 5094 
L 4256 4769 
Q 3456 3659 2234 2694 
Q 2106 2588 2106 2528 
Q 2106 2466 2344 2247 
Q 3591 1113 4444 103 
L 4022 -300 
z
" id="IPAexGothic-304f" transform="scale(0.015625)"/>
        <path d="M 678 2591 
Q 1259 3116 2022 3116 
Q 2559 3116 3359 2603 
Q 4019 2188 4353 2188 
Q 5056 2188 5722 2853 
L 5722 2259 
Q 5141 1734 4378 1734 
Q 3806 1734 3041 2234 
Q 2381 2663 2041 2663 
Q 1344 2663 678 1997 
L 678 2591 
z
" id="IPAexGothic-301c" transform="scale(0.015625)"/>
        <path d="M 3425 4219 
L 3425 2675 
L 5344 2675 
L 5344 2247 
L 3425 2247 
L 3425 478 
L 5888 478 
L 5888 38 
L 513 38 
L 513 478 
L 2925 478 
L 2925 2247 
L 1056 2247 
L 1056 2675 
L 2925 2675 
L 2925 4219 
L 738 4219 
L 738 4653 
L 5659 4653 
L 5659 4219 
L 3425 4219 
z
" id="IPAexGothic-738b" transform="scale(0.015625)"/>
        <path d="M 3334 3628 
L 3334 2822 
L 4728 2822 
L 4728 2438 
L 3334 2438 
L 3334 1241 
L 4991 1241 
L 4991 838 
L 1397 838 
L 1397 1241 
L 2888 1241 
L 2888 2438 
L 1659 2438 
L 1659 2822 
L 2888 2822 
L 2888 3628 
L 1459 3628 
L 1459 4025 
L 4922 4025 
L 4922 3628 
L 3334 3628 
z
M 4347 1313 
Q 4069 1725 3719 2075 
L 4041 2322 
Q 4388 2013 4684 1600 
L 4347 1313 
z
M 5759 4984 
L 5759 -447 
L 5300 -447 
L 5300 -128 
L 1097 -128 
L 1097 -447 
L 628 -447 
L 628 4984 
L 5759 4984 
z
M 1097 4581 
L 1097 275 
L 5300 275 
L 5300 4581 
L 1097 4581 
z
" id="IPAexGothic-56fd" transform="scale(0.015625)"/>
        <path d="M 3500 3425 
L 3500 3156 
L 4972 3156 
L 4972 2863 
L 3500 2863 
L 3500 2584 
L 4972 2584 
L 4972 2297 
L 3500 2297 
L 3500 2009 
L 5431 2009 
L 5431 1697 
L 1547 1697 
L 1547 2953 
Q 1328 2750 1047 2547 
L 784 2850 
Q 1541 3306 2169 4184 
Q 1453 3550 569 3150 
L 294 3488 
Q 1244 3825 1919 4441 
L 478 4441 
L 478 4788 
L 2250 4788 
Q 2428 5003 2622 5306 
L 3075 5216 
Q 2891 4941 2744 4788 
L 5913 4788 
L 5913 4441 
L 4338 4441 
Q 5028 3847 6109 3541 
L 5834 3181 
Q 5309 3391 4953 3591 
L 4953 3425 
L 3500 3425 
z
M 1963 3425 
L 1963 3156 
L 3109 3156 
L 3109 3425 
L 1963 3425 
z
M 1963 2863 
L 1963 2584 
L 3109 2584 
L 3109 2863 
L 1963 2863 
z
M 1963 2297 
L 1963 2009 
L 3109 2009 
L 3109 2297 
L 1963 2297 
z
M 3159 3731 
L 3178 3763 
Q 3313 4000 3409 4244 
L 3838 4153 
Q 3716 3934 3569 3731 
L 4728 3731 
Q 4278 4022 3856 4441 
L 2438 4441 
L 2250 4256 
L 2584 4153 
Q 2441 3916 2275 3731 
L 3159 3731 
z
M 5453 1431 
L 5453 -450 
L 5031 -450 
L 5031 -225 
L 1363 -225 
L 1363 -450 
L 941 -450 
L 941 1431 
L 5453 1431 
z
M 1363 1119 
L 1363 775 
L 2969 775 
L 2969 1119 
L 1363 1119 
z
M 1363 475 
L 1363 106 
L 2969 106 
L 2969 475 
L 1363 475 
z
M 5031 106 
L 5031 475 
L 3384 475 
L 3384 106 
L 5031 106 
z
M 5031 775 
L 5031 1119 
L 3384 1119 
L 3384 775 
L 5031 775 
z
" id="IPAexGothic-596e" transform="scale(0.015625)"/>
        <path d="M 4344 2406 
L 4344 3134 
L 4741 3134 
L 4741 2406 
L 5216 2406 
L 5216 2053 
L 4763 2053 
L 4763 313 
Q 4763 -63 4313 -63 
Q 3975 -63 3678 -19 
L 3609 359 
Q 4028 309 4216 309 
Q 4366 309 4366 453 
L 4366 2053 
L 3347 2053 
L 3347 2406 
L 4344 2406 
z
M 2919 5056 
L 2919 3275 
L 991 3275 
L 991 -450 
L 550 -450 
L 550 5056 
L 2919 5056 
z
M 991 4709 
L 991 4325 
L 2509 4325 
L 2509 4709 
L 991 4709 
z
M 991 4013 
L 991 3616 
L 2509 3616 
L 2509 4013 
L 991 4013 
z
M 5844 5056 
L 5844 31 
Q 5844 -409 5359 -409 
Q 5063 -409 4788 -378 
L 4700 63 
Q 4994 19 5244 19 
Q 5403 19 5403 184 
L 5403 3275 
L 3431 3275 
L 3431 5056 
L 5844 5056 
z
M 3841 4709 
L 3841 4325 
L 5403 4325 
L 5403 4709 
L 3841 4709 
z
M 3841 4013 
L 3841 3616 
L 5403 3616 
L 5403 4013 
L 3841 4013 
z
M 3206 2266 
L 3206 1281 
L 1441 1281 
L 1441 2266 
L 3206 2266 
z
M 1813 1991 
L 1813 1556 
L 2834 1556 
L 2834 1991 
L 1813 1991 
z
M 2419 447 
Q 2584 784 2713 1216 
L 3109 1113 
Q 2938 722 2816 519 
Q 3163 575 3500 641 
L 3525 341 
Q 2406 72 1394 -78 
L 1241 288 
Q 1716 341 2419 447 
z
M 1253 2925 
L 3366 2925 
L 3366 2594 
L 1253 2594 
L 1253 2925 
z
M 1784 428 
Q 1694 703 1528 1044 
L 1881 1184 
Q 2047 878 2156 581 
L 1784 428 
z
M 3813 738 
Q 3663 1266 3425 1691 
L 3744 1844 
Q 3972 1447 4159 909 
L 3813 738 
z
" id="IPAexGothic-95d8" transform="scale(0.015625)"/>
        <path d="M 5231 4800 
L 5231 -288 
L 4744 -288 
L 4744 128 
L 1647 128 
L 1647 -288 
L 1159 -288 
L 1159 4800 
L 5231 4800 
z
M 1647 4372 
L 1647 2731 
L 4744 2731 
L 4744 4372 
L 1647 4372 
z
M 1647 2297 
L 1647 556 
L 4744 556 
L 4744 2297 
L 1647 2297 
z
" id="IPAexGothic-65e5" transform="scale(0.015625)"/>
        <path d="M 2291 1684 
L 2291 -128 
L 925 -128 
L 925 -447 
L 516 -447 
L 516 1684 
L 2291 1684 
z
M 925 1313 
L 925 244 
L 1888 244 
L 1888 1313 
L 925 1313 
z
M 3934 4231 
L 3934 5306 
L 4388 5306 
L 4388 4231 
L 5925 4231 
L 5925 3841 
L 4388 3841 
L 4388 2981 
L 5719 2981 
L 5719 2584 
L 2641 2584 
L 2641 2981 
L 3934 2981 
L 3934 3841 
L 2534 3841 
L 2534 4231 
L 3934 4231 
z
M 600 5044 
L 2206 5044 
L 2206 4659 
L 600 4659 
L 600 5044 
z
M 331 4206 
L 2413 4206 
L 2413 3816 
L 331 3816 
L 331 4206 
z
M 600 3359 
L 2206 3359 
L 2206 2975 
L 600 2975 
L 600 3359 
z
M 600 2522 
L 2206 2522 
L 2206 2138 
L 600 2138 
L 600 2522 
z
M 2378 84 
Q 2678 669 2841 1600 
L 3256 1503 
Q 3134 559 2769 -197 
L 2378 84 
z
M 3481 1753 
L 3922 1753 
L 3922 269 
Q 3922 109 3988 63 
Q 4056 19 4313 19 
Q 4703 19 4772 166 
Q 4831 291 4850 775 
L 4850 863 
L 5278 728 
Q 5250 119 5175 -84 
Q 5088 -309 4838 -366 
Q 4656 -403 4300 -403 
Q 3775 -403 3622 -288 
Q 3481 -184 3481 63 
L 3481 1753 
z
M 4516 1344 
Q 4072 1919 3647 2259 
L 3966 2516 
Q 4431 2178 4881 1644 
L 4516 1344 
z
M 5766 13 
Q 5416 984 5009 1528 
L 5419 1722 
Q 5859 1103 6194 294 
L 5766 13 
z
" id="IPAexGothic-8a8c" transform="scale(0.015625)"/>
       </defs>
       <use xlink:href="#IPAexGothic-304b"/>
       <use x="100" xlink:href="#IPAexGothic-304a"/>
       <use x="200" xlink:href="#IPAexGothic-308a"/>
       <use x="300" xlink:href="#IPAexGothic-3093"/>
       <use x="400" xlink:href="#IPAexGothic-304c"/>
       <use x="500" xlink:href="#IPAexGothic-3086"/>
       <use x="600" xlink:href="#IPAexGothic-304f"/>
       <use x="700" xlink:href="#IPAexGothic-301c"/>
       <use x="800" xlink:href="#IPAexGothic-738b"/>
       <use x="900" xlink:href="#IPAexGothic-56fd"/>
       <use x="1000" xlink:href="#IPAexGothic-596e"/>
       <use x="1100" xlink:href="#IPAexGothic-95d8"/>
       <use x="1200" xlink:href="#IPAexGothic-65e5"/>
       <use x="1300" xlink:href="#IPAexGothic-8a8c"/>
       <use x="1400" xlink:href="#IPAexGothic-301c"/>
      </g>
     </g>
    </g>
    <g id="ytick_4">
     <g id="line2d_20">
      <g>
       <use style="fill:#555555;stroke:#555555;stroke-width:0.8;" x="230.4" xlink:href="#ma4df2aba7e" y="290.88"/>
      </g>
     </g>
     <g id="text_13">
      <!-- スナックちえみ倶楽部 -->
      <g style="fill:#555555;" transform="translate(123.4 294.625313)scale(0.1 -0.1)">
       <defs>
        <path d="M 4359 4481 
L 4716 4147 
Q 4328 3072 3647 2150 
Q 4659 1434 5659 453 
L 5234 19 
Q 4256 1088 3353 1778 
Q 2372 597 1044 -31 
L 653 403 
Q 3128 1453 4097 4000 
L 1241 3963 
L 1228 4453 
L 4359 4481 
z
" id="IPAexGothic-30b9" transform="scale(0.015625)"/>
        <path d="M 3103 4959 
L 3634 4959 
L 3634 3488 
L 5706 3488 
L 5706 2994 
L 3634 2994 
Q 3597 1753 3256 1113 
Q 2825 306 1906 -188 
L 1522 228 
Q 2416 641 2809 1419 
Q 3075 1950 3103 2994 
L 691 2994 
L 691 3488 
L 3103 3488 
L 3103 4959 
z
" id="IPAexGothic-30ca" transform="scale(0.015625)"/>
        <path d="M 1775 1984 
Q 1553 2666 1275 3175 
L 1716 3391 
Q 2034 2866 2247 2209 
L 1775 1984 
z
M 3003 2297 
Q 2813 2978 2522 3469 
L 2978 3681 
Q 3291 3166 3484 2522 
L 3003 2297 
z
M 1928 372 
Q 3094 744 3731 1569 
Q 4275 2263 4469 3525 
L 4975 3406 
Q 4734 1975 4016 1119 
Q 3406 391 2266 -44 
L 1928 372 
z
" id="IPAexGothic-30c3" transform="scale(0.015625)"/>
        <path d="M 4934 4191 
L 5272 3941 
Q 4894 2334 4031 1300 
Q 3275 391 2028 -225 
L 1656 184 
Q 2875 691 3641 1625 
Q 4403 2553 4691 3731 
L 2903 3731 
Q 2188 2653 1356 1959 
L 978 2309 
Q 2328 3400 2931 5022 
L 3422 4881 
Q 3363 4672 3141 4191 
L 4934 4191 
z
" id="IPAexGothic-30af" transform="scale(0.015625)"/>
        <path d="M 684 4084 
Q 1250 4038 2131 4038 
Q 2269 4706 2328 5113 
L 2809 5044 
Q 2709 4494 2616 4056 
Q 3625 4103 4575 4300 
L 4634 3841 
Q 3650 3663 2509 3616 
Q 2281 2638 2003 1913 
Q 2956 2644 3956 2644 
Q 4522 2644 4891 2425 
Q 5447 2109 5447 1466 
Q 5447 -66 2425 -159 
L 2206 294 
Q 4941 344 4941 1472 
Q 4941 2234 3878 2234 
Q 3228 2234 2522 1819 
Q 2091 1563 1766 1216 
L 1356 1509 
Q 1756 2484 2028 3597 
Q 1122 3597 703 3622 
L 684 4084 
z
" id="IPAexGothic-3061" transform="scale(0.015625)"/>
        <path d="M 3797 4038 
Q 3144 4428 2013 4709 
L 2266 5106 
Q 3388 4838 4078 4469 
L 3797 4038 
z
M 1263 3347 
Q 2566 3428 3956 3641 
L 4291 3263 
Q 3759 2741 2875 1778 
Q 3156 1881 3356 1881 
Q 3909 1881 3919 1253 
L 3931 709 
Q 3941 456 4116 409 
Q 4244 372 4519 372 
Q 4944 372 5538 481 
L 5581 -31 
Q 5097 -103 4675 -103 
Q 4047 -103 3791 25 
Q 3484 178 3463 594 
L 3444 1094 
Q 3434 1491 3150 1491 
Q 2800 1491 2322 1072 
Q 1950 747 1109 -184 
L 738 166 
Q 2053 1434 3597 3181 
Q 2600 2988 1391 2841 
L 1263 3347 
z
" id="IPAexGothic-3048" transform="scale(0.015625)"/>
        <path d="M 1291 4416 
Q 2209 4456 3341 4647 
L 3666 4409 
Q 3478 3597 3134 2703 
Q 3959 2575 4581 2300 
Q 4669 2759 4678 3488 
L 5163 3381 
Q 5134 2672 5016 2106 
Q 5519 1856 6016 1519 
L 5722 1081 
Q 5184 1459 4888 1613 
Q 4572 441 3456 -238 
L 3072 109 
Q 4150 678 4472 1831 
Q 3706 2200 2969 2284 
Q 2038 200 1319 200 
Q 1013 200 775 525 
Q 569 819 569 1197 
Q 569 1756 1081 2172 
Q 1681 2647 2663 2716 
Q 2900 3313 3084 4159 
Q 2278 4022 1447 3956 
L 1291 4416 
z
M 2481 2291 
Q 1644 2206 1241 1734 
Q 1038 1494 1038 1178 
Q 1038 1019 1100 897 
Q 1188 706 1338 706 
Q 1513 706 1797 1097 
Q 2131 1534 2481 2291 
z
" id="IPAexGothic-307f" transform="scale(0.015625)"/>
        <path d="M 1572 3688 
L 1572 -447 
L 1119 -447 
L 1119 2741 
Q 900 2331 550 1863 
L 300 2253 
Q 1197 3516 1597 5241 
L 2041 5141 
Q 1831 4313 1572 3688 
z
M 5400 4984 
L 5400 1838 
L 2494 1838 
L 2494 4984 
L 5400 4984 
z
M 2922 4600 
L 2922 4050 
L 4972 4050 
L 4972 4600 
L 2922 4600 
z
M 2922 3691 
L 2922 3144 
L 4972 3144 
L 4972 3691 
L 2922 3691 
z
M 2922 2778 
L 2922 2209 
L 4972 2209 
L 4972 2778 
L 2922 2778 
z
M 1919 1416 
L 6084 1416 
L 6084 1019 
L 1919 1019 
L 1919 1416 
z
M 1778 -153 
Q 2569 200 3225 903 
L 3584 628 
Q 2966 -69 2097 -525 
L 1778 -153 
z
M 5669 -469 
Q 4991 166 4222 641 
L 4544 916 
Q 5397 422 6059 -109 
L 5669 -469 
z
" id="IPAexGothic-5036" transform="scale(0.015625)"/>
        <path d="M 2944 2316 
L 2088 2316 
L 2088 4659 
L 2797 4659 
Q 2897 4966 2956 5306 
L 3463 5216 
Q 3363 4938 3219 4659 
L 4303 4659 
L 4303 2316 
L 3403 2316 
L 3403 1825 
L 5988 1825 
L 5988 1428 
L 3750 1428 
Q 4750 613 6103 175 
L 5794 -263 
Q 4256 366 3403 1275 
L 3403 -447 
L 2944 -447 
L 2944 1244 
Q 2144 250 659 -384 
L 353 6 
Q 1713 459 2613 1428 
L 416 1428 
L 416 1825 
L 2944 1825 
L 2944 2316 
z
M 2497 4288 
L 2497 3688 
L 3900 3688 
L 3900 4288 
L 2497 4288 
z
M 2497 3328 
L 2497 2688 
L 3900 2688 
L 3900 3328 
L 2497 3328 
z
M 1588 3584 
Q 1100 4153 538 4556 
L 847 4863 
Q 1403 4494 1916 3916 
L 1588 3584 
z
M 366 2438 
Q 1141 2847 1800 3413 
L 2003 3047 
Q 1434 2525 647 2069 
L 366 2438 
z
M 4450 3938 
Q 5059 4428 5472 4941 
L 5869 4653 
Q 5419 4156 4781 3659 
L 4450 3938 
z
M 5788 2209 
Q 5200 2738 4425 3206 
L 4700 3519 
Q 5666 2941 6125 2566 
L 5788 2209 
z
" id="IPAexGothic-697d" transform="scale(0.015625)"/>
        <path d="M 3034 4031 
L 3028 4000 
Q 2897 3488 2675 2888 
L 3631 2888 
L 3631 2503 
L 322 2503 
L 322 2888 
L 1256 2888 
Q 1150 3450 950 4031 
L 438 4031 
L 438 4416 
L 1756 4416 
L 1756 5313 
L 2197 5313 
L 2197 4416 
L 3456 4416 
L 3456 4031 
L 3034 4031 
z
M 2594 4031 
L 1384 4031 
Q 1566 3538 1691 2888 
L 2241 2888 
Q 2463 3466 2594 4031 
z
M 3194 1863 
L 3194 -422 
L 2766 -422 
L 2766 -103 
L 1250 -103 
L 1250 -450 
L 822 -450 
L 822 1863 
L 3194 1863 
z
M 1250 1478 
L 1250 281 
L 2766 281 
L 2766 1478 
L 1250 1478 
z
M 5166 2878 
Q 5953 2066 5953 1159 
Q 5953 391 5306 391 
Q 5016 391 4584 459 
L 4528 947 
Q 4844 850 5166 850 
Q 5472 850 5472 1216 
Q 5472 2041 4669 2828 
Q 5081 3600 5300 4409 
L 4291 4409 
L 4291 -447 
L 3850 -447 
L 3850 4825 
L 5575 4825 
L 5866 4594 
Q 5563 3659 5166 2878 
z
" id="IPAexGothic-90e8" transform="scale(0.015625)"/>
       </defs>
       <use xlink:href="#IPAexGothic-30b9"/>
       <use x="100" xlink:href="#IPAexGothic-30ca"/>
       <use x="200" xlink:href="#IPAexGothic-30c3"/>
       <use x="300" xlink:href="#IPAexGothic-30af"/>
       <use x="400" xlink:href="#IPAexGothic-3061"/>
       <use x="500" xlink:href="#IPAexGothic-3048"/>
       <use x="600" xlink:href="#IPAexGothic-307f"/>
       <use x="700" xlink:href="#IPAexGothic-5036"/>
       <use x="800" xlink:href="#IPAexGothic-697d"/>
       <use x="900" xlink:href="#IPAexGothic-90e8"/>
      </g>
     </g>
    </g>
    <g id="ytick_5">
     <g id="line2d_21">
      <g>
       <use style="fill:#555555;stroke:#555555;stroke-width:0.8;" x="230.4" xlink:href="#ma4df2aba7e" y="354.24"/>
      </g>
     </g>
     <g id="text_14">
      <!-- 相良茉優のFUN！FAN！FACTORY -->
      <g style="fill:#555555;" transform="translate(66.954688 357.985312)scale(0.1 -0.1)">
       <defs>
        <path d="M 1388 2691 
L 1369 2631 
Q 1075 1622 556 781 
L 275 1250 
Q 1006 2284 1316 3541 
L 409 3541 
L 409 3956 
L 1388 3956 
L 1388 5300 
L 1828 5300 
L 1828 3956 
L 2725 3956 
L 2725 3541 
L 1828 3541 
L 1828 2925 
Q 2456 2400 2819 1978 
L 2550 1519 
Q 2238 1963 1828 2422 
L 1828 -447 
L 1388 -447 
L 1388 2691 
z
M 5803 4884 
L 5803 -331 
L 5369 -331 
L 5369 116 
L 3409 116 
L 3409 -331 
L 2981 -331 
L 2981 4884 
L 5803 4884 
z
M 3409 4488 
L 3409 3450 
L 5369 3450 
L 5369 4488 
L 3409 4488 
z
M 3409 3066 
L 3409 2022 
L 5369 2022 
L 5369 3066 
L 3409 3066 
z
M 3409 1638 
L 3409 506 
L 5369 506 
L 5369 1638 
L 3409 1638 
z
" id="IPAexGothic-76f8" transform="scale(0.015625)"/>
        <path d="M 3406 1959 
Q 3578 1541 4059 1069 
Q 4706 1484 5266 1984 
L 5656 1709 
Q 5031 1203 4391 794 
Q 5038 334 5956 78 
L 5644 -372 
Q 3531 350 2956 1959 
L 1753 1959 
L 1753 219 
Q 2597 381 3425 603 
L 3456 206 
Q 2188 -172 753 -428 
L 575 25 
Q 613 31 1131 109 
L 1284 134 
L 1284 4563 
L 2931 4563 
L 2931 5313 
L 3406 5313 
L 3406 4563 
L 5106 4563 
L 5106 1959 
L 3406 1959 
z
M 4647 2356 
L 4647 3103 
L 1753 3103 
L 1753 2356 
L 4647 2356 
z
M 4647 3475 
L 4647 4172 
L 1753 4172 
L 1753 3475 
L 4647 3475 
z
" id="IPAexGothic-826f" transform="scale(0.015625)"/>
        <path d="M 3766 1741 
Q 4713 878 6113 384 
L 5800 -38 
Q 4259 631 3413 1575 
L 3413 -447 
L 2944 -447 
L 2944 1556 
Q 2166 403 575 -191 
L 288 206 
Q 1741 678 2625 1741 
L 653 1741 
L 653 2138 
L 2944 2138 
L 2944 2875 
L 422 2875 
L 422 3272 
L 2944 3272 
L 2944 3847 
L 3413 3847 
L 3413 3272 
L 5978 3272 
L 5978 2875 
L 3413 2875 
L 3413 2138 
L 5756 2138 
L 5756 1741 
L 3766 1741 
z
M 1900 4594 
L 1900 5309 
L 2359 5309 
L 2359 4594 
L 3994 4594 
L 3994 5309 
L 4453 5309 
L 4453 4594 
L 6072 4594 
L 6072 4191 
L 4453 4191 
L 4453 3616 
L 3994 3616 
L 3994 4191 
L 2359 4191 
L 2359 3616 
L 1900 3616 
L 1900 4191 
L 331 4191 
L 331 4594 
L 1900 4594 
z
" id="IPAexGothic-8309" transform="scale(0.015625)"/>
        <path d="M 3872 4459 
L 5209 4459 
L 5209 2894 
L 6041 2894 
L 6041 1969 
L 5625 1969 
L 5625 2563 
L 2131 2563 
L 2131 1969 
L 1716 1969 
L 1716 2894 
L 2419 2894 
L 2419 4459 
L 3463 4459 
Q 3503 4603 3538 4741 
L 1856 4741 
L 1856 5088 
L 5900 5088 
L 5900 4741 
L 3988 4741 
Q 3984 4731 3972 4703 
Q 3959 4678 3956 4663 
Q 3947 4634 3872 4459 
z
M 4806 4166 
L 2822 4166 
L 2822 3922 
L 4806 3922 
L 4806 4166 
z
M 4806 2894 
L 4806 3163 
L 2822 3163 
L 2822 2894 
L 4806 2894 
z
M 2822 3666 
L 2822 3419 
L 4806 3419 
L 4806 3666 
L 2822 3666 
z
M 4397 338 
Q 5181 63 6169 -34 
L 5894 -450 
Q 4906 -297 4013 106 
Q 3138 -375 1888 -544 
L 1600 -163 
Q 2775 -66 3609 306 
Q 3216 522 2913 784 
Q 2534 509 2022 319 
L 1753 625 
Q 2675 947 3269 1541 
Q 3250 1541 3238 1541 
Q 2969 1559 2969 1834 
L 2969 2447 
L 3347 2447 
L 3347 1988 
Q 3347 1822 3878 1822 
Q 4325 1822 4384 1931 
Q 4425 2003 4434 2256 
L 4794 2172 
Q 4766 1688 4613 1603 
Q 4466 1531 3731 1519 
Q 3625 1397 3550 1322 
L 5094 1322 
L 5313 1131 
Q 4881 653 4397 338 
z
M 3994 503 
Q 4341 709 4634 991 
L 3200 991 
Q 3503 734 3994 503 
z
M 1394 3816 
L 1394 -447 
L 966 -447 
L 966 2797 
Q 756 2369 478 1972 
L 244 2369 
Q 950 3469 1375 5313 
L 1809 5203 
Q 1588 4344 1394 3816 
z
M 2003 1600 
Q 2294 1928 2466 2394 
L 2834 2228 
Q 2659 1734 2331 1331 
L 2003 1600 
z
M 3878 1906 
Q 3716 2222 3559 2400 
L 3884 2547 
Q 4072 2359 4231 2081 
L 3878 1906 
z
M 5384 1472 
Q 5138 1884 4788 2266 
L 5100 2463 
Q 5484 2091 5709 1722 
L 5384 1472 
z
" id="IPAexGothic-512a" transform="scale(0.015625)"/>
        <path d="M 3469 4141 
L 1172 4141 
L 1172 2656 
L 3206 2656 
L 3206 2188 
L 1172 2188 
L 1172 63 
L 609 63 
L 609 4634 
L 3469 4634 
L 3469 4141 
z
" id="IPAexGothic-46" transform="scale(0.015625)"/>
        <path d="M 2828 5081 
L 3572 5081 
L 3456 1228 
L 2944 1228 
L 2828 5081 
z
M 2828 647 
L 3572 647 
L 3572 -97 
L 2828 -97 
L 2828 647 
z
" id="IPAexGothic-ff01" transform="scale(0.015625)"/>
        <path d="M 4353 1088 
Q 4181 694 3859 428 
Q 3313 -31 2559 -31 
Q 1588 -31 959 653 
Q 378 1294 378 2331 
Q 378 3406 1013 4078 
Q 1619 4725 2534 4725 
Q 3813 4725 4322 3628 
L 3809 3391 
Q 3425 4238 2541 4238 
Q 1891 4238 1453 3744 
Q 994 3216 994 2322 
Q 994 1550 1384 1056 
Q 1841 472 2563 472 
Q 3456 472 3878 1319 
L 4353 1088 
z
" id="IPAexGothic-43" transform="scale(0.015625)"/>
        <path d="M 4072 63 
L 3394 63 
Q 3138 641 2828 1197 
Q 2584 1641 2344 1825 
Q 2050 2044 1625 2044 
L 1172 2044 
L 1172 63 
L 609 63 
L 609 4634 
L 2009 4634 
Q 2713 4634 3131 4378 
Q 3688 4044 3688 3381 
Q 3688 2784 3181 2459 
Q 2906 2272 2522 2216 
L 2522 2197 
Q 2941 2050 3247 1581 
Q 3516 1166 4072 63 
z
M 1172 2478 
L 1869 2478 
Q 3106 2478 3106 3369 
Q 3106 4181 1928 4181 
L 1172 4181 
L 1172 2478 
z
" id="IPAexGothic-52" transform="scale(0.015625)"/>
       </defs>
       <use xlink:href="#IPAexGothic-76f8"/>
       <use x="100" xlink:href="#IPAexGothic-826f"/>
       <use x="200" xlink:href="#IPAexGothic-8309"/>
       <use x="300" xlink:href="#IPAexGothic-512a"/>
       <use x="400" xlink:href="#IPAexGothic-306e"/>
       <use x="500" xlink:href="#IPAexGothic-46"/>
       <use x="557.177734" xlink:href="#IPAexGothic-55"/>
       <use x="631.884766" xlink:href="#IPAexGothic-4e"/>
       <use x="707.861328" xlink:href="#IPAexGothic-ff01"/>
       <use x="807.861328" xlink:href="#IPAexGothic-46"/>
       <use x="865.039062" xlink:href="#IPAexGothic-41"/>
       <use x="928.759766" xlink:href="#IPAexGothic-4e"/>
       <use x="1004.736328" xlink:href="#IPAexGothic-ff01"/>
       <use x="1104.736328" xlink:href="#IPAexGothic-46"/>
       <use x="1161.914062" xlink:href="#IPAexGothic-41"/>
       <use x="1225.634766" xlink:href="#IPAexGothic-43"/>
       <use x="1298.144531" xlink:href="#IPAexGothic-54"/>
       <use x="1358.056641" xlink:href="#IPAexGothic-4f"/>
       <use x="1437.744141" xlink:href="#IPAexGothic-52"/>
       <use x="1502.539062" xlink:href="#IPAexGothic-59"/>
      </g>
     </g>
    </g>
    <g id="ytick_6">
     <g id="line2d_22">
      <g>
       <use style="fill:#555555;stroke:#555555;stroke-width:0.8;" x="230.4" xlink:href="#ma4df2aba7e" y="417.6"/>
      </g>
     </g>
     <g id="text_15">
      <!-- 大西亜玖璃の大和撫子への道 -->
      <g style="fill:#555555;" transform="translate(93.4 421.345312)scale(0.1 -0.1)">
       <defs>
        <path d="M 3528 3181 
Q 4150 1197 6003 275 
L 5647 -184 
Q 3891 831 3259 2681 
Q 2894 644 872 -344 
L 513 97 
Q 1678 528 2344 1538 
Q 2784 2219 2900 3181 
L 481 3181 
L 481 3628 
L 2925 3628 
L 2925 5150 
L 3431 5150 
L 3431 3628 
L 5922 3628 
L 5922 3181 
L 3528 3181 
z
" id="IPAexGothic-5927" transform="scale(0.015625)"/>
        <path d="M 2272 3444 
L 2272 4372 
L 416 4372 
L 416 4788 
L 5978 4788 
L 5978 4372 
L 3947 4372 
L 3947 3444 
L 5588 3444 
L 5588 -350 
L 5134 -350 
L 5134 103 
L 1259 103 
L 1259 -350 
L 806 -350 
L 806 3444 
L 2272 3444 
z
M 2706 3444 
L 3513 3444 
L 3513 4372 
L 2706 4372 
L 2706 3444 
z
M 2266 3053 
L 1259 3053 
L 1259 506 
L 5134 506 
L 5134 3053 
L 3947 3053 
L 3947 1913 
Q 3947 1709 4203 1709 
Q 4547 1709 4594 1766 
Q 4650 1828 4678 2169 
Q 4678 2234 4684 2266 
L 5044 2138 
Q 4978 1594 4903 1472 
Q 4788 1300 4197 1300 
Q 3513 1300 3513 1691 
L 3513 3053 
L 2700 3053 
Q 2672 2378 2444 1913 
Q 2219 1438 1625 1044 
L 1328 1375 
Q 1981 1756 2163 2375 
Q 2247 2650 2266 3053 
z
" id="IPAexGothic-897f" transform="scale(0.015625)"/>
        <path d="M 2259 3541 
L 2259 4488 
L 513 4488 
L 513 4897 
L 5891 4897 
L 5891 4488 
L 4091 4488 
L 4091 3541 
L 5525 3541 
L 5525 1050 
L 5084 1050 
L 5084 1503 
L 4091 1503 
L 4091 213 
L 6044 213 
L 6044 -197 
L 353 -197 
L 353 213 
L 2259 213 
L 2259 1503 
L 1313 1503 
L 1313 1050 
L 872 1050 
L 872 3541 
L 2259 3541 
z
M 2700 3541 
L 3650 3541 
L 3650 4488 
L 2700 4488 
L 2700 3541 
z
M 3650 1503 
L 2700 1503 
L 2700 213 
L 3650 213 
L 3650 1503 
z
M 2259 3144 
L 1313 3144 
L 1313 1900 
L 2259 1900 
L 2259 3144 
z
M 2700 3144 
L 2700 1900 
L 3650 1900 
L 3650 3144 
L 2700 3144 
z
M 4091 3144 
L 4091 1900 
L 5084 1900 
L 5084 3144 
L 4091 3144 
z
" id="IPAexGothic-4e9c" transform="scale(0.015625)"/>
        <path d="M 4422 1781 
Q 3788 328 2516 -506 
L 2188 -94 
Q 4169 1050 4622 4097 
L 3694 4097 
Q 3366 2856 2719 1978 
L 2369 2266 
Q 3181 3425 3450 5216 
L 3938 5147 
Q 3888 4888 3803 4513 
L 4891 4513 
L 5147 4303 
Q 4947 3175 4647 2338 
Q 5091 1069 6131 116 
L 5784 -344 
Q 4809 756 4422 1781 
z
M 1631 4328 
L 1631 2931 
L 2347 2931 
L 2347 2534 
L 1631 2534 
L 1631 1056 
Q 2263 1256 2541 1350 
L 2578 959 
Q 1547 553 422 250 
L 256 697 
Q 678 788 1191 928 
L 1191 2534 
L 453 2534 
L 453 2931 
L 1191 2931 
L 1191 4328 
L 384 4328 
L 384 4738 
L 2503 4738 
L 2503 4328 
L 1631 4328 
z
" id="IPAexGothic-7396" transform="scale(0.015625)"/>
        <path d="M 4744 888 
L 4706 966 
Q 4600 1169 4481 1331 
L 4800 1466 
Q 5094 1084 5391 453 
L 5031 263 
Q 4959 466 4897 600 
Q 4163 450 3131 359 
L 3009 756 
Q 3228 766 3481 775 
L 3509 831 
Q 3625 1147 3769 1656 
L 2834 1656 
L 2834 -447 
L 2406 -447 
L 2406 2003 
L 3853 2003 
Q 3888 2172 3931 2413 
L 2644 2413 
L 2644 4109 
L 3059 4109 
L 3059 2766 
L 5256 2766 
L 5256 4109 
L 5678 4109 
L 5678 2413 
L 4378 2413 
Q 4350 2294 4303 2088 
L 4281 2003 
L 5947 2003 
L 5947 63 
Q 5947 -384 5422 -384 
Q 5041 -384 4725 -347 
L 4653 84 
Q 5075 13 5306 13 
Q 5519 13 5519 238 
L 5519 1656 
L 4188 1656 
Q 4056 1228 3938 916 
L 3897 806 
L 4066 819 
Q 4713 884 4744 888 
z
M 1534 4384 
L 1534 2981 
L 2131 2981 
L 2131 2584 
L 1534 2584 
L 1534 1034 
Q 1984 1178 2231 1278 
L 2272 900 
Q 1388 538 428 288 
L 256 722 
Q 763 828 1100 913 
L 1100 2584 
L 434 2584 
L 434 2981 
L 1100 2981 
L 1100 4384 
L 366 4384 
L 366 4788 
L 2169 4788 
L 2169 4384 
L 1534 4384 
z
M 4353 4691 
L 6075 4691 
L 6075 4319 
L 2313 4319 
L 2313 4691 
L 3919 4691 
L 3919 5313 
L 4353 5313 
L 4353 4691 
z
M 3909 3531 
Q 3575 3744 3238 3916 
L 3494 4166 
Q 3850 3984 4184 3781 
Q 4403 4000 4597 4256 
L 4928 4056 
Q 4725 3803 4506 3584 
Q 4869 3344 5141 3138 
L 4866 2853 
Q 4453 3178 4225 3322 
Q 3850 3006 3456 2803 
L 3175 3091 
Q 3581 3272 3909 3531 
z
" id="IPAexGothic-7483" transform="scale(0.015625)"/>
        <path d="M 1697 2288 
Q 1322 1325 672 553 
L 378 969 
Q 1191 1838 1613 3016 
L 428 3016 
L 428 3425 
L 1697 3425 
L 1697 4341 
L 1653 4334 
Q 1247 4259 775 4200 
L 563 4572 
Q 1797 4731 2772 5063 
L 3084 4684 
Q 2634 4534 2150 4428 
L 2150 3425 
L 3263 3425 
L 3263 3016 
L 2150 3016 
L 2150 2516 
Q 2741 2138 3244 1684 
L 2981 1225 
Q 2591 1684 2150 2050 
L 2150 -447 
L 1697 -447 
L 1697 2288 
z
M 5781 4506 
L 5781 -225 
L 5328 -225 
L 5328 166 
L 3975 166 
L 3975 -294 
L 3522 -294 
L 3522 4506 
L 5781 4506 
z
M 3975 4091 
L 3975 588 
L 5328 588 
L 5328 4091 
L 3975 4091 
z
" id="IPAexGothic-548c" transform="scale(0.015625)"/>
        <path d="M 2613 1697 
L 2613 2803 
L 2034 2803 
L 2034 3175 
L 2613 3175 
L 2613 3963 
Q 2409 3634 2209 3403 
L 2041 3616 
L 1534 3616 
L 1534 2369 
Q 1869 2472 2150 2578 
L 2197 2209 
Q 1722 2016 1534 1947 
L 1534 63 
Q 1534 -213 1413 -306 
Q 1309 -391 1034 -391 
Q 775 -391 484 -353 
L 416 103 
Q 681 50 928 50 
Q 1119 50 1119 231 
L 1119 1797 
Q 678 1650 422 1581 
L 269 2022 
Q 659 2109 1119 2241 
L 1119 3616 
L 344 3616 
L 344 4019 
L 1119 4019 
L 1119 5313 
L 1534 5313 
L 1534 4019 
L 2053 4019 
L 2053 3853 
Q 2578 4531 2844 5338 
L 3231 5238 
Q 3125 4881 2997 4616 
L 5938 4616 
L 5938 4244 
L 5503 4244 
L 5503 3175 
L 6084 3175 
L 6084 2803 
L 5503 2803 
L 5503 1697 
L 6016 1697 
L 6016 1325 
L 2150 1325 
L 2150 1697 
L 2613 1697 
z
M 3009 1697 
L 3450 1697 
L 3450 2803 
L 3009 2803 
L 3009 1697 
z
M 5106 1697 
L 5106 2803 
L 4641 2803 
L 4641 1697 
L 5106 1697 
z
M 4263 1697 
L 4263 2803 
L 3822 2803 
L 3822 1697 
L 4263 1697 
z
M 3009 3175 
L 3450 3175 
L 3450 4244 
L 3009 4244 
L 3009 3175 
z
M 5106 4244 
L 4641 4244 
L 4641 3175 
L 5106 3175 
L 5106 4244 
z
M 4263 4244 
L 3822 4244 
L 3822 3175 
L 4263 3175 
L 4263 4244 
z
M 1906 -63 
Q 2297 394 2509 1094 
L 2931 959 
Q 2691 138 2278 -397 
L 1906 -63 
z
M 3397 -366 
Q 3359 406 3238 928 
L 3641 997 
Q 3794 447 3866 -269 
L 3397 -366 
z
M 4519 -269 
Q 4281 544 4072 972 
L 4441 1094 
Q 4731 591 4959 -103 
L 4519 -269 
z
M 5747 -313 
Q 5328 553 4984 997 
L 5344 1178 
Q 5828 588 6150 -44 
L 5747 -313 
z
" id="IPAexGothic-64ab" transform="scale(0.015625)"/>
        <path d="M 3481 3263 
L 3481 2566 
L 5938 2566 
L 5938 2125 
L 3519 2125 
L 3519 206 
Q 3519 -56 3425 -172 
Q 3306 -325 2897 -325 
Q 2569 -325 1944 -269 
L 1847 263 
Q 2409 181 2763 181 
Q 3025 181 3025 416 
L 3025 2125 
L 453 2125 
L 453 2566 
L 2988 2566 
L 2988 3488 
Q 3784 3844 4509 4366 
L 1113 4366 
L 1113 4794 
L 5150 4794 
L 5431 4500 
Q 4466 3788 3481 3263 
z
" id="IPAexGothic-5b50" transform="scale(0.015625)"/>
        <path d="M 416 2022 
Q 1325 2681 2194 3653 
Q 2394 3872 2578 3872 
Q 2766 3872 3022 3616 
Q 4488 2147 5991 1419 
L 5631 947 
Q 4106 1847 2872 3069 
Q 2675 3269 2572 3269 
Q 2478 3269 2297 3056 
Q 1503 2166 734 1559 
L 416 2022 
z
" id="IPAexGothic-3078" transform="scale(0.015625)"/>
        <path d="M 1831 781 
Q 2144 400 2663 256 
Q 3019 159 4222 159 
Q 5213 159 6119 216 
Q 5994 -3 5944 -263 
Q 5025 -294 4428 -294 
Q 2800 -294 2272 -63 
Q 1869 119 1600 491 
Q 1131 -53 666 -444 
L 372 44 
Q 881 344 1378 775 
L 1378 2303 
L 397 2303 
L 397 2731 
L 1831 2731 
L 1831 781 
z
M 3731 4038 
L 2088 4038 
L 2088 4409 
L 3113 4409 
Q 2931 4800 2700 5088 
L 3131 5288 
Q 3369 4897 3572 4409 
L 4338 4409 
Q 4519 4781 4678 5313 
L 5156 5178 
Q 4966 4728 4794 4409 
L 5944 4409 
L 5944 4038 
L 4203 4038 
Q 4184 3975 4166 3903 
Q 4122 3734 4050 3553 
L 5434 3553 
L 5434 634 
L 2575 634 
L 2575 3553 
L 3616 3553 
Q 3684 3788 3731 4038 
z
M 2991 3194 
L 2991 2700 
L 5016 2700 
L 5016 3194 
L 2991 3194 
z
M 2991 2347 
L 2991 1863 
L 5016 1863 
L 5016 2347 
L 2991 2347 
z
M 2991 1509 
L 2991 1006 
L 5016 1006 
L 5016 1509 
L 2991 1509 
z
M 1619 3622 
Q 1266 4113 634 4703 
L 972 4997 
Q 1531 4541 1978 3969 
L 1619 3622 
z
" id="IPAexGothic-9053" transform="scale(0.015625)"/>
       </defs>
       <use xlink:href="#IPAexGothic-5927"/>
       <use x="100" xlink:href="#IPAexGothic-897f"/>
       <use x="200" xlink:href="#IPAexGothic-4e9c"/>
       <use x="300" xlink:href="#IPAexGothic-7396"/>
       <use x="400" xlink:href="#IPAexGothic-7483"/>
       <use x="500" xlink:href="#IPAexGothic-306e"/>
       <use x="600" xlink:href="#IPAexGothic-5927"/>
       <use x="700" xlink:href="#IPAexGothic-548c"/>
       <use x="800" xlink:href="#IPAexGothic-64ab"/>
       <use x="900" xlink:href="#IPAexGothic-5b50"/>
       <use x="1000" xlink:href="#IPAexGothic-3078"/>
       <use x="1100" xlink:href="#IPAexGothic-306e"/>
       <use x="1200" xlink:href="#IPAexGothic-9053"/>
      </g>
     </g>
    </g>
    <g id="ytick_7">
     <g id="line2d_23">
      <g>
       <use style="fill:#555555;stroke:#555555;stroke-width:0.8;" x="230.4" xlink:href="#ma4df2aba7e" y="480.96"/>
      </g>
     </g>
     <g id="text_16">
      <!-- 田中ちえ美のだららんど -->
      <g style="fill:#555555;" transform="translate(113.4 484.705312)scale(0.1 -0.1)">
       <defs>
        <path d="M 2925 3950 
L 2925 5209 
L 3425 5209 
L 3425 3950 
L 5613 3950 
L 5613 1125 
L 5125 1125 
L 5125 1594 
L 3425 1594 
L 3425 -447 
L 2925 -447 
L 2925 1594 
L 1263 1594 
L 1263 1094 
L 775 1094 
L 775 3950 
L 2925 3950 
z
M 1263 3534 
L 1263 2009 
L 2925 2009 
L 2925 3534 
L 1263 3534 
z
M 5125 2009 
L 5125 3534 
L 3425 3534 
L 3425 2009 
L 5125 2009 
z
" id="IPAexGothic-4e2d" transform="scale(0.015625)"/>
        <path d="M 2950 2228 
L 416 2228 
L 416 2625 
L 2950 2625 
L 2950 3200 
L 959 3200 
L 959 3572 
L 2950 3572 
L 2950 4116 
L 672 4116 
L 672 4500 
L 2175 4500 
Q 1963 4847 1759 5081 
L 2181 5275 
Q 2438 4944 2669 4500 
L 3672 4500 
Q 3944 4878 4116 5294 
L 4588 5122 
Q 4391 4803 4159 4500 
L 5722 4500 
L 5722 4116 
L 3403 4116 
L 3403 3572 
L 5441 3572 
L 5441 3200 
L 3403 3200 
L 3403 2625 
L 5978 2625 
L 5978 2228 
L 3403 2228 
L 3403 1638 
L 5888 1638 
L 5888 1253 
L 3544 1253 
Q 4181 388 6028 88 
L 5741 -366 
Q 3941 -9 3225 1047 
Q 2756 -91 728 -475 
L 466 -41 
Q 1559 122 2131 453 
Q 2647 744 2866 1253 
L 506 1253 
L 506 1638 
L 2950 1638 
L 2950 2228 
z
" id="IPAexGothic-7f8e" transform="scale(0.015625)"/>
        <path d="M 684 3963 
Q 1138 3922 1556 3922 
Q 1800 3922 2106 3944 
Q 2266 4563 2369 5081 
L 2875 4991 
Q 2806 4700 2619 3981 
Q 3209 4050 3656 4159 
L 3688 3688 
Q 3109 3581 2497 3531 
Q 1822 1263 1153 -78 
L 653 141 
Q 1406 1469 1991 3500 
Q 1641 3481 1256 3481 
Q 1109 3481 697 3494 
L 684 3963 
z
M 5753 44 
Q 5053 -44 4597 -44 
Q 3619 -44 3206 303 
Q 2866 594 2766 1191 
L 3213 1356 
Q 3247 1038 3347 869 
Q 3425 741 3578 641 
Q 3866 450 4556 450 
Q 5009 450 5728 544 
L 5753 44 
z
M 3144 2828 
Q 4216 3113 5409 3041 
L 5381 2566 
L 5356 2566 
Q 4263 2631 3194 2388 
L 3144 2828 
z
M 5569 4103 
Q 5206 4644 4813 4972 
L 5113 5203 
Q 5497 4894 5888 4378 
L 5569 4103 
z
M 4972 3634 
Q 4684 4125 4238 4525 
L 4550 4769 
Q 4922 4459 5306 3909 
L 4972 3634 
z
" id="IPAexGothic-3060" transform="scale(0.015625)"/>
        <path d="M 3700 3928 
Q 2897 4478 2156 4750 
L 2381 5166 
Q 3147 4891 3956 4384 
L 3700 3928 
z
M 1344 1281 
Q 1450 2544 1747 4038 
L 2234 3928 
Q 1994 2856 1888 1844 
Q 2897 2688 3963 2688 
Q 4531 2688 4909 2450 
Q 5441 2122 5441 1516 
Q 5441 669 4569 213 
Q 3856 -169 2584 -238 
L 2363 250 
Q 3484 250 4213 588 
Q 4909 922 4909 1509 
Q 4909 1856 4647 2059 
Q 4366 2266 3897 2266 
Q 2853 2266 1766 1141 
L 1344 1281 
z
" id="IPAexGothic-3089" transform="scale(0.015625)"/>
        <path d="M 5222 56 
Q 4200 -72 3450 -72 
Q 2478 -72 1941 113 
Q 1184 372 1184 1038 
Q 1184 1584 1594 2009 
Q 1941 2369 2656 2725 
Q 2231 3734 1972 4878 
L 2491 4978 
Q 2706 3884 3078 2950 
Q 4250 3447 4756 3616 
L 4978 3150 
Q 3181 2575 2409 2078 
Q 1691 1613 1691 1113 
Q 1691 403 3322 403 
Q 4125 403 5134 563 
L 5222 56 
z
M 5778 4153 
Q 5419 4697 5025 5025 
L 5325 5253 
Q 5709 4944 6100 4428 
L 5778 4153 
z
M 5184 3688 
Q 4894 4175 4447 4575 
L 4763 4819 
Q 5134 4513 5516 3963 
L 5184 3688 
z
" id="IPAexGothic-3069" transform="scale(0.015625)"/>
       </defs>
       <use xlink:href="#IPAexGothic-7530"/>
       <use x="100" xlink:href="#IPAexGothic-4e2d"/>
       <use x="200" xlink:href="#IPAexGothic-3061"/>
       <use x="300" xlink:href="#IPAexGothic-3048"/>
       <use x="400" xlink:href="#IPAexGothic-7f8e"/>
       <use x="500" xlink:href="#IPAexGothic-306e"/>
       <use x="600" xlink:href="#IPAexGothic-3060"/>
       <use x="700" xlink:href="#IPAexGothic-3089"/>
       <use x="800" xlink:href="#IPAexGothic-3089"/>
       <use x="900" xlink:href="#IPAexGothic-3093"/>
       <use x="1000" xlink:href="#IPAexGothic-3069"/>
      </g>
     </g>
    </g>
   </g>
   <g id="PathCollection_1">
    <defs>
     <path d="M 0 4.242641 
L 2.545584 0 
L 0 -4.242641 
L -2.545584 0 
z
" id="m0fb228ee34" style="stroke:#474747;stroke-width:0.5;"/>
    </defs>
    <g clip-path="url(#pca701eb9d4)">
     <use style="fill:#474747;stroke:#474747;stroke-width:0.5;" x="264.280488" xlink:href="#m0fb228ee34" y="100.8"/>
     <use style="fill:#474747;stroke:#474747;stroke-width:0.5;" x="265.846699" xlink:href="#m0fb228ee34" y="100.8"/>
     <use style="fill:#474747;stroke:#474747;stroke-width:0.5;" x="259.003851" xlink:href="#m0fb228ee34" y="100.8"/>
     <use style="fill:#474747;stroke:#474747;stroke-width:0.5;" x="266.778967" xlink:href="#m0fb228ee34" y="100.8"/>
     <use style="fill:#474747;stroke:#474747;stroke-width:0.5;" x="266.778967" xlink:href="#m0fb228ee34" y="100.8"/>
     <use style="fill:#474747;stroke:#474747;stroke-width:0.5;" x="289.153402" xlink:href="#m0fb228ee34" y="100.8"/>
     <use style="fill:#474747;stroke:#474747;stroke-width:0.5;" x="292.248532" xlink:href="#m0fb228ee34" y="100.8"/>
     <use style="fill:#474747;stroke:#474747;stroke-width:0.5;" x="300.955917" xlink:href="#m0fb228ee34" y="100.8"/>
     <use style="fill:#474747;stroke:#474747;stroke-width:0.5;" x="329.539258" xlink:href="#m0fb228ee34" y="100.8"/>
     <use style="fill:#474747;stroke:#474747;stroke-width:0.5;" x="298.159112" xlink:href="#m0fb228ee34" y="100.8"/>
    </g>
   </g>
   <g id="PatchCollection_1">
    <path clip-path="url(#pca701eb9d4)" d="M 266.872194 94.464 
L 285.849677 94.464 
L 285.849677 107.136 
L 266.872194 107.136 
z
" style="fill:#f7e6e4;stroke:#474747;stroke-width:0.5;"/>
    <path clip-path="url(#pca701eb9d4)" d="M 267.394264 88.128 
L 276.749575 88.128 
L 276.749575 113.472 
L 267.394264 113.472 
z
" style="fill:#e2a097;stroke:#474747;stroke-width:0.5;"/>
    <path clip-path="url(#pca701eb9d4)" d="M 269.2588 75.456 
L 274.237112 75.456 
L 274.237112 126.144 
L 269.2588 126.144 
z
" style="fill:#cc5a49;stroke:#474747;stroke-width:0.5;"/>
   </g>
   <g id="PathCollection_2">
    <g clip-path="url(#pca701eb9d4)">
     <use style="fill:#474747;stroke:#474747;stroke-width:0.5;" x="267.077293" xlink:href="#m0fb228ee34" y="164.16"/>
     <use style="fill:#474747;stroke:#474747;stroke-width:0.5;" x="262.415952" xlink:href="#m0fb228ee34" y="164.16"/>
     <use style="fill:#474747;stroke:#474747;stroke-width:0.5;" x="268.009561" xlink:href="#m0fb228ee34" y="164.16"/>
     <use style="fill:#474747;stroke:#474747;stroke-width:0.5;" x="266.778967" xlink:href="#m0fb228ee34" y="164.16"/>
     <use style="fill:#474747;stroke:#474747;stroke-width:0.5;" x="255.591749" xlink:href="#m0fb228ee34" y="164.16"/>
     <use style="fill:#474747;stroke:#474747;stroke-width:0.5;" x="254.957807" xlink:href="#m0fb228ee34" y="164.16"/>
     <use style="fill:#474747;stroke:#474747;stroke-width:0.5;" x="287.288866" xlink:href="#m0fb228ee34" y="164.16"/>
     <use style="fill:#474747;stroke:#474747;stroke-width:0.5;" x="279.196778" xlink:href="#m0fb228ee34" y="164.16"/>
     <use style="fill:#474747;stroke:#474747;stroke-width:0.5;" x="280.446018" xlink:href="#m0fb228ee34" y="164.16"/>
     <use style="fill:#474747;stroke:#474747;stroke-width:0.5;" x="277.649213" xlink:href="#m0fb228ee34" y="164.16"/>
     <use style="fill:#474747;stroke:#474747;stroke-width:0.5;" x="276.399974" xlink:href="#m0fb228ee34" y="164.16"/>
     <use style="fill:#474747;stroke:#474747;stroke-width:0.5;" x="276.399974" xlink:href="#m0fb228ee34" y="164.16"/>
    </g>
   </g>
   <g id="PatchCollection_2">
    <path clip-path="url(#pca701eb9d4)" d="M 268.168047 151.488 
L 275.467706 151.488 
L 275.467706 176.832 
L 268.168047 176.832 
z
" style="fill:#e3edf3;stroke:#474747;stroke-width:0.5;"/>
    <path clip-path="url(#pca701eb9d4)" d="M 269.2588 138.816 
L 272.670902 138.816 
L 272.670902 189.504 
L 269.2588 189.504 
z
" style="fill:#4586ac;stroke:#474747;stroke-width:0.5;"/>
   </g>
   <g id="PathCollection_3">
    <g clip-path="url(#pca701eb9d4)">
     <use style="fill:#474747;stroke:#474747;stroke-width:0.5;" x="263.665191" xlink:href="#m0fb228ee34" y="227.52"/>
     <use style="fill:#474747;stroke:#474747;stroke-width:0.5;" x="265.846699" xlink:href="#m0fb228ee34" y="227.52"/>
     <use style="fill:#474747;stroke:#474747;stroke-width:0.5;" x="265.212757" xlink:href="#m0fb228ee34" y="227.52"/>
     <use style="fill:#474747;stroke:#474747;stroke-width:0.5;" x="265.846699" xlink:href="#m0fb228ee34" y="227.52"/>
     <use style="fill:#474747;stroke:#474747;stroke-width:0.5;" x="299.408352" xlink:href="#m0fb228ee34" y="227.52"/>
     <use style="fill:#474747;stroke:#474747;stroke-width:0.5;" x="273.304844" xlink:href="#m0fb228ee34" y="227.52"/>
     <use style="fill:#474747;stroke:#474747;stroke-width:0.5;" x="272.987873" xlink:href="#m0fb228ee34" y="227.52"/>
     <use style="fill:#474747;stroke:#474747;stroke-width:0.5;" x="276.716945" xlink:href="#m0fb228ee34" y="227.52"/>
    </g>
   </g>
   <g id="PatchCollection_3">
    <defs>
     <path d="M 268.168047 -373.824 
L 271.589471 -373.824 
L 271.589471 -323.136 
L 268.168047 -323.136 
z
" id="m55bf1e61c5" style="stroke:#474747;stroke-width:0.5;"/>
    </defs>
    <g clip-path="url(#pca701eb9d4)">
     <use style="fill:#9e97cc;stroke:#474747;stroke-width:0.5;" x="0" xlink:href="#m55bf1e61c5" y="576"/>
    </g>
   </g>
   <g id="PathCollection_4">
    <g clip-path="url(#pca701eb9d4)">
     <use style="fill:#474747;stroke:#474747;stroke-width:0.5;" x="265.529728" xlink:href="#m0fb228ee34" y="290.88"/>
     <use style="fill:#474747;stroke:#474747;stroke-width:0.5;" x="266.145025" xlink:href="#m0fb228ee34" y="290.88"/>
     <use style="fill:#474747;stroke:#474747;stroke-width:0.5;" x="265.529728" xlink:href="#m0fb228ee34" y="290.88"/>
     <use style="fill:#474747;stroke:#474747;stroke-width:0.5;" x="266.145025" xlink:href="#m0fb228ee34" y="290.88"/>
     <use style="fill:#474747;stroke:#474747;stroke-width:0.5;" x="275.784677" xlink:href="#m0fb228ee34" y="290.88"/>
     <use style="fill:#474747;stroke:#474747;stroke-width:0.5;" x="275.16938" xlink:href="#m0fb228ee34" y="290.88"/>
     <use style="fill:#474747;stroke:#474747;stroke-width:0.5;" x="274.237112" xlink:href="#m0fb228ee34" y="290.88"/>
     <use style="fill:#474747;stroke:#474747;stroke-width:0.5;" x="273.60317" xlink:href="#m0fb228ee34" y="290.88"/>
    </g>
   </g>
   <g id="PatchCollection_4">
    <defs>
     <path d="M 266.382753 -310.464 
L 273.141697 -310.464 
L 273.141697 -259.776 
L 266.382753 -259.776 
z
" id="m68d90ac8c2" style="stroke:#474747;stroke-width:0.5;"/>
    </defs>
    <g clip-path="url(#pca701eb9d4)">
     <use style="fill:#777777;stroke:#474747;stroke-width:0.5;" x="0" xlink:href="#m68d90ac8c2" y="576"/>
    </g>
   </g>
   <g id="PathCollection_5">
    <g clip-path="url(#pca701eb9d4)">
     <use style="fill:#474747;stroke:#474747;stroke-width:0.5;" x="272.204768" xlink:href="#m0fb228ee34" y="354.24"/>
     <use style="fill:#474747;stroke:#474747;stroke-width:0.5;" x="273.099745" xlink:href="#m0fb228ee34" y="354.24"/>
     <use style="fill:#474747;stroke:#474747;stroke-width:0.5;" x="269.874097" xlink:href="#m0fb228ee34" y="354.24"/>
     <use style="fill:#474747;stroke:#474747;stroke-width:0.5;" x="271.104691" xlink:href="#m0fb228ee34" y="354.24"/>
     <use style="fill:#474747;stroke:#474747;stroke-width:0.5;" x="267.562072" xlink:href="#m0fb228ee34" y="354.24"/>
     <use style="fill:#474747;stroke:#474747;stroke-width:0.5;" x="268.177369" xlink:href="#m0fb228ee34" y="354.24"/>
     <use style="fill:#474747;stroke:#474747;stroke-width:0.5;" x="243.490909" xlink:href="#m0fb228ee34" y="354.24"/>
     <use style="fill:#474747;stroke:#474747;stroke-width:0.5;" x="273.323489" xlink:href="#m0fb228ee34" y="354.24"/>
     <use style="fill:#474747;stroke:#474747;stroke-width:0.5;" x="447.154205" xlink:href="#m0fb228ee34" y="354.24"/>
     <use style="fill:#474747;stroke:#474747;stroke-width:0.5;" x="407.122611" xlink:href="#m0fb228ee34" y="354.24"/>
     <use style="fill:#474747;stroke:#474747;stroke-width:0.5;" x="378.595207" xlink:href="#m0fb228ee34" y="354.24"/>
     <use style="fill:#474747;stroke:#474747;stroke-width:0.5;" x="414.114622" xlink:href="#m0fb228ee34" y="354.24"/>
     <use style="fill:#474747;stroke:#474747;stroke-width:0.5;" x="364.499312" xlink:href="#m0fb228ee34" y="354.24"/>
     <use style="fill:#474747;stroke:#474747;stroke-width:0.5;" x="426.0663" xlink:href="#m0fb228ee34" y="354.24"/>
     <use style="fill:#474747;stroke:#474747;stroke-width:0.5;" x="416.557165" xlink:href="#m0fb228ee34" y="354.24"/>
     <use style="fill:#474747;stroke:#474747;stroke-width:0.5;" x="505.309091" xlink:href="#m0fb228ee34" y="354.24"/>
    </g>
   </g>
   <g id="PatchCollection_5">
    <path clip-path="url(#pca701eb9d4)" d="M 273.910818 341.568 
L 355.474957 341.568 
L 355.474957 366.912 
L 273.910818 366.912 
z
" style="fill:#fbf5ea;stroke:#474747;stroke-width:0.5;"/>
    <path clip-path="url(#pca701eb9d4)" d="M 278.674708 328.896 
L 308.134381 328.896 
L 308.134381 379.584 
L 278.674708 379.584 
z
" style="fill:#e7bc72;stroke:#474747;stroke-width:0.5;"/>
   </g>
   <g id="PathCollection_6">
    <g clip-path="url(#pca701eb9d4)">
     <use style="fill:#474747;stroke:#474747;stroke-width:0.5;" x="266.778967" xlink:href="#m0fb228ee34" y="417.6"/>
     <use style="fill:#474747;stroke:#474747;stroke-width:0.5;" x="269.2588" xlink:href="#m0fb228ee34" y="417.6"/>
    </g>
   </g>
   <g id="PatchCollection_6">
    <defs>
     <path d="M 267.24044 -183.744 
L 269.021072 -183.744 
L 269.021072 -133.056 
L 267.24044 -133.056 
z
" id="m3eb1ce3f59" style="stroke:#474747;stroke-width:0.5;"/>
    </defs>
    <g clip-path="url(#pca701eb9d4)">
     <use style="fill:#8aab51;stroke:#474747;stroke-width:0.5;" x="0" xlink:href="#m3eb1ce3f59" y="576"/>
    </g>
   </g>
   <g id="PathCollection_7">
    <g clip-path="url(#pca701eb9d4)">
     <use style="fill:#474747;stroke:#474747;stroke-width:0.5;" x="255.274778" xlink:href="#m0fb228ee34" y="480.96"/>
     <use style="fill:#474747;stroke:#474747;stroke-width:0.5;" x="254.957807" xlink:href="#m0fb228ee34" y="480.96"/>
     <use style="fill:#474747;stroke:#474747;stroke-width:0.5;" x="254.957807" xlink:href="#m0fb228ee34" y="480.96"/>
     <use style="fill:#474747;stroke:#474747;stroke-width:0.5;" x="254.659481" xlink:href="#m0fb228ee34" y="480.96"/>
     <use style="fill:#474747;stroke:#474747;stroke-width:0.5;" x="255.274778" xlink:href="#m0fb228ee34" y="480.96"/>
     <use style="fill:#474747;stroke:#474747;stroke-width:0.5;" x="254.34251" xlink:href="#m0fb228ee34" y="480.96"/>
     <use style="fill:#474747;stroke:#474747;stroke-width:0.5;" x="253.727213" xlink:href="#m0fb228ee34" y="480.96"/>
     <use style="fill:#474747;stroke:#474747;stroke-width:0.5;" x="254.957807" xlink:href="#m0fb228ee34" y="480.96"/>
     <use style="fill:#474747;stroke:#474747;stroke-width:0.5;" x="258.071583" xlink:href="#m0fb228ee34" y="480.96"/>
     <use style="fill:#474747;stroke:#474747;stroke-width:0.5;" x="260.25309" xlink:href="#m0fb228ee34" y="480.96"/>
     <use style="fill:#474747;stroke:#474747;stroke-width:0.5;" x="260.551416" xlink:href="#m0fb228ee34" y="480.96"/>
     <use style="fill:#474747;stroke:#474747;stroke-width:0.5;" x="272.670902" xlink:href="#m0fb228ee34" y="480.96"/>
     <use style="fill:#474747;stroke:#474747;stroke-width:0.5;" x="257.139315" xlink:href="#m0fb228ee34" y="480.96"/>
     <use style="fill:#474747;stroke:#474747;stroke-width:0.5;" x="257.754611" xlink:href="#m0fb228ee34" y="480.96"/>
     <use style="fill:#474747;stroke:#474747;stroke-width:0.5;" x="258.071583" xlink:href="#m0fb228ee34" y="480.96"/>
     <use style="fill:#474747;stroke:#474747;stroke-width:0.5;" x="257.139315" xlink:href="#m0fb228ee34" y="480.96"/>
    </g>
   </g>
   <g id="PatchCollection_7">
    <defs>
     <path d="M 255.354021 -120.384 
L 257.060072 -120.384 
L 257.060072 -69.696 
L 255.354021 -69.696 
z
" id="ma7e8369640" style="stroke:#474747;stroke-width:0.5;"/>
    </defs>
    <g clip-path="url(#pca701eb9d4)">
     <use style="fill:#f6bec0;stroke:#474747;stroke-width:0.5;" x="0" xlink:href="#ma7e8369640" y="576"/>
    </g>
   </g>
   <g id="line2d_24">
    <path clip-path="url(#pca701eb9d4)" d="M 271.440308 75.456 
L 271.440308 126.144 
" style="fill:none;stroke:#262626;stroke-opacity:0.45;stroke-width:0.5;"/>
   </g>
   <g id="line2d_25">
    <path clip-path="url(#pca701eb9d4)" d="M 270.806365 138.816 
L 270.806365 189.504 
" style="fill:none;stroke:#262626;stroke-opacity:0.45;stroke-width:0.5;"/>
   </g>
   <g id="line2d_26">
    <path clip-path="url(#pca701eb9d4)" d="M 270.191068 202.176 
L 270.191068 252.864 
" style="fill:none;stroke:#262626;stroke-opacity:0.45;stroke-width:0.5;"/>
   </g>
   <g id="line2d_27">
    <path clip-path="url(#pca701eb9d4)" d="M 269.109637 265.536 
L 269.109637 316.224 
" style="fill:none;stroke:#262626;stroke-opacity:0.45;stroke-width:0.5;"/>
   </g>
   <g id="line2d_28">
    <path clip-path="url(#pca701eb9d4)" d="M 285.610783 328.896 
L 285.610783 379.584 
" style="fill:none;stroke:#262626;stroke-opacity:0.45;stroke-width:0.5;"/>
   </g>
   <g id="line2d_29">
    <path clip-path="url(#pca701eb9d4)" d="M 268.168047 392.256 
L 268.168047 442.944 
" style="fill:none;stroke:#262626;stroke-opacity:0.45;stroke-width:0.5;"/>
   </g>
   <g id="line2d_30">
    <path clip-path="url(#pca701eb9d4)" d="M 256.048561 455.616 
L 256.048561 506.304 
" style="fill:none;stroke:#262626;stroke-opacity:0.45;stroke-width:0.5;"/>
   </g>
   <g id="patch_3">
    <path d="M 230.4 512.64 
L 230.4 69.12 
" style="fill:none;stroke:#ffffff;stroke-linecap:square;stroke-linejoin:miter;"/>
   </g>
   <g id="patch_4">
    <path d="M 518.4 512.64 
L 518.4 69.12 
" style="fill:none;stroke:#ffffff;stroke-linecap:square;stroke-linejoin:miter;"/>
   </g>
   <g id="patch_5">
    <path d="M 230.4 512.64 
L 518.4 512.64 
" style="fill:none;stroke:#ffffff;stroke-linecap:square;stroke-linejoin:miter;"/>
   </g>
   <g id="patch_6">
    <path d="M 230.4 69.12 
L 518.4 69.12 
" style="fill:none;stroke:#ffffff;stroke-linecap:square;stroke-linejoin:miter;"/>
   </g>
  </g>
 </g>
 <defs>
  <clipPath id="pca701eb9d4">
   <rect height="443.52" width="288" x="230.4" y="69.12"/>
  </clipPath>
 </defs>
</svg>
